G04 #@! TF.GenerationSoftware,KiCad,Pcbnew,(5.1.5-0-10_14)*
G04 #@! TF.CreationDate,2020-04-26T22:29:08-07:00*
G04 #@! TF.ProjectId,modelm,6d6f6465-6c6d-42e6-9b69-6361645f7063,v0.1*
G04 #@! TF.SameCoordinates,Original*
G04 #@! TF.FileFunction,Copper,L1,Top*
G04 #@! TF.FilePolarity,Positive*
%FSLAX46Y46*%
G04 Gerber Fmt 4.6, Leading zero omitted, Abs format (unit mm)*
G04 Created by KiCad (PCBNEW (5.1.5-0-10_14)) date 2020-04-26 22:29:08*
%MOMM*%
%LPD*%
G04 APERTURE LIST*
%ADD10C,1.600000*%
%ADD11R,1.600000X1.600000*%
%ADD12O,1.600000X1.600000*%
%ADD13O,1.700000X1.700000*%
%ADD14R,1.700000X1.700000*%
%ADD15C,0.250000*%
%ADD16C,0.254000*%
G04 APERTURE END LIST*
D10*
X96390000Y-51020000D03*
X96390000Y-53560000D03*
X96390000Y-56100000D03*
X96390000Y-58640000D03*
X96390000Y-61180000D03*
X96390000Y-63720000D03*
X96390000Y-66260000D03*
X96390000Y-68800000D03*
X96390000Y-71340000D03*
X96390000Y-73880000D03*
X96390000Y-76420000D03*
X96390000Y-78960000D03*
X81150000Y-78960000D03*
X81150000Y-76420000D03*
X81150000Y-73880000D03*
X81150000Y-71340000D03*
X81150000Y-68800000D03*
X81150000Y-66260000D03*
X81150000Y-63720000D03*
X81150000Y-61180000D03*
X81150000Y-58640000D03*
X81150000Y-56100000D03*
X81150000Y-53560000D03*
D11*
X81150000Y-51020000D03*
D10*
X158366000Y-62310000D03*
X158366000Y-67310000D03*
X153032000Y-62310000D03*
X153032000Y-67310000D03*
D12*
X109598000Y-60706000D03*
X142618000Y-68326000D03*
X112138000Y-60706000D03*
X140078000Y-68326000D03*
X114678000Y-60706000D03*
X137538000Y-68326000D03*
X117218000Y-60706000D03*
X134998000Y-68326000D03*
X119758000Y-60706000D03*
X132458000Y-68326000D03*
X122298000Y-60706000D03*
X129918000Y-68326000D03*
X124838000Y-60706000D03*
X127378000Y-68326000D03*
X127378000Y-60706000D03*
X124838000Y-68326000D03*
X129918000Y-60706000D03*
X122298000Y-68326000D03*
X132458000Y-60706000D03*
X119758000Y-68326000D03*
X134998000Y-60706000D03*
X117218000Y-68326000D03*
X137538000Y-60706000D03*
X114678000Y-68326000D03*
X140078000Y-60706000D03*
X112138000Y-68326000D03*
X142618000Y-60706000D03*
D11*
X109598000Y-68326000D03*
D12*
X167002000Y-60706000D03*
X200022000Y-68326000D03*
X169542000Y-60706000D03*
X197482000Y-68326000D03*
X172082000Y-60706000D03*
X194942000Y-68326000D03*
X174622000Y-60706000D03*
X192402000Y-68326000D03*
X177162000Y-60706000D03*
X189862000Y-68326000D03*
X179702000Y-60706000D03*
X187322000Y-68326000D03*
X182242000Y-60706000D03*
X184782000Y-68326000D03*
X184782000Y-60706000D03*
X182242000Y-68326000D03*
X187322000Y-60706000D03*
X179702000Y-68326000D03*
X189862000Y-60706000D03*
X177162000Y-68326000D03*
X192402000Y-60706000D03*
X174622000Y-68326000D03*
X194942000Y-60706000D03*
X172082000Y-68326000D03*
X197482000Y-60706000D03*
X169542000Y-68326000D03*
X200022000Y-60706000D03*
D11*
X167002000Y-68326000D03*
D13*
X208770000Y-58420000D03*
X208770000Y-55880000D03*
X208770000Y-53340000D03*
D14*
X208770000Y-50800000D03*
D13*
X191894000Y-51054000D03*
X189354000Y-51054000D03*
X186814000Y-51054000D03*
X184274000Y-51054000D03*
X181734000Y-51054000D03*
X179194000Y-51054000D03*
X176654000Y-51054000D03*
D14*
X174114000Y-51054000D03*
D13*
X154810000Y-51054000D03*
X152270000Y-51054000D03*
X149730000Y-51054000D03*
X147190000Y-51054000D03*
X144650000Y-51054000D03*
X142110000Y-51054000D03*
X139570000Y-51054000D03*
X137030000Y-51054000D03*
X134490000Y-51054000D03*
X131950000Y-51054000D03*
X129410000Y-51054000D03*
X126870000Y-51054000D03*
X124330000Y-51054000D03*
X121790000Y-51054000D03*
X119250000Y-51054000D03*
D14*
X116710000Y-51054000D03*
D12*
X180718000Y-75184000D03*
D10*
X190878000Y-75184000D03*
D12*
X180718000Y-78486000D03*
D10*
X190878000Y-78486000D03*
D12*
X180718000Y-81788000D03*
D10*
X190878000Y-81788000D03*
D15*
X203944000Y-60706000D02*
X208770000Y-55880000D01*
X200022000Y-60706000D02*
X203944000Y-60706000D01*
X154810000Y-53594000D02*
X154810000Y-51054000D01*
X143241980Y-65162020D02*
X154810000Y-53594000D01*
X130541980Y-65162020D02*
X143241980Y-65162020D01*
X127378000Y-68326000D02*
X130541980Y-65162020D01*
X141151990Y-64712010D02*
X152270000Y-53594000D01*
X152270000Y-53594000D02*
X152270000Y-51054000D01*
X128451990Y-64712010D02*
X141151990Y-64712010D01*
X124838000Y-68326000D02*
X128451990Y-64712010D01*
X122298000Y-68326000D02*
X126362000Y-64262000D01*
X149730000Y-52256081D02*
X149730000Y-51054000D01*
X126362000Y-64262000D02*
X140727002Y-64262000D01*
X140727002Y-64262000D02*
X144142000Y-60847002D01*
X144142000Y-59182000D02*
X149730000Y-53594000D01*
X144142000Y-60847002D02*
X144142000Y-59182000D01*
X149730000Y-53594000D02*
X149730000Y-52256081D01*
X119758000Y-68326000D02*
X124330000Y-63754000D01*
X141492999Y-60956003D02*
X141492999Y-59291001D01*
X138695002Y-63754000D02*
X141492999Y-60956003D01*
X124330000Y-63754000D02*
X138695002Y-63754000D01*
X147190000Y-53594000D02*
X147190000Y-51054000D01*
X141492999Y-59291001D02*
X147190000Y-53594000D01*
X117218000Y-68326000D02*
X122298000Y-63246000D01*
X138952999Y-60956003D02*
X138952999Y-59291001D01*
X136663002Y-63246000D02*
X138952999Y-60956003D01*
X122298000Y-63246000D02*
X136663002Y-63246000D01*
X138952999Y-59291001D02*
X144650000Y-53594000D01*
X144650000Y-53594000D02*
X144650000Y-51054000D01*
X142110000Y-53594000D02*
X142110000Y-51054000D01*
X136412999Y-59291001D02*
X142110000Y-53594000D01*
X136412999Y-60956003D02*
X136412999Y-59291001D01*
X120266000Y-62738000D02*
X134631002Y-62738000D01*
X134631002Y-62738000D02*
X136412999Y-60956003D01*
X114678000Y-68326000D02*
X120266000Y-62738000D01*
X112138000Y-68326000D02*
X118182989Y-62281011D01*
X133872999Y-60956003D02*
X133872999Y-59291001D01*
X132547991Y-62281011D02*
X133872999Y-60956003D01*
X118182989Y-62281011D02*
X132547991Y-62281011D01*
X139570000Y-53594000D02*
X139570000Y-51054000D01*
X133872999Y-59291001D02*
X139570000Y-53594000D01*
X131332999Y-60956003D02*
X131332999Y-59291001D01*
X130458001Y-61831001D02*
X131332999Y-60956003D01*
X115042999Y-61831001D02*
X130458001Y-61831001D01*
X109598000Y-67276000D02*
X115042999Y-61831001D01*
X109598000Y-68326000D02*
X109598000Y-67276000D01*
X137030000Y-53594000D02*
X137030000Y-51054000D01*
X131332999Y-59291001D02*
X137030000Y-53594000D01*
X134490000Y-53594000D02*
X134490000Y-51054000D01*
X127378000Y-60706000D02*
X134490000Y-53594000D01*
X131950000Y-53594000D02*
X131950000Y-51054000D01*
X124838000Y-60706000D02*
X131950000Y-53594000D01*
X129410000Y-53594000D02*
X129410000Y-51054000D01*
X122298000Y-60706000D02*
X129410000Y-53594000D01*
X126870000Y-53594000D02*
X126870000Y-51054000D01*
X119758000Y-60706000D02*
X126870000Y-53594000D01*
X124330000Y-53594000D02*
X124330000Y-51054000D01*
X117218000Y-60706000D02*
X124330000Y-53594000D01*
X121790000Y-53594000D02*
X121790000Y-51054000D01*
X114678000Y-60706000D02*
X121790000Y-53594000D01*
X119250000Y-53594000D02*
X112138000Y-60706000D01*
X119250000Y-51054000D02*
X119250000Y-53594000D01*
X116710000Y-53594000D02*
X109598000Y-60706000D01*
X116710000Y-51054000D02*
X116710000Y-53594000D01*
X208770000Y-59622081D02*
X208770000Y-58420000D01*
X208770000Y-61243002D02*
X208770000Y-59622081D01*
X194829002Y-75184000D02*
X208770000Y-61243002D01*
X190878000Y-75184000D02*
X194829002Y-75184000D01*
X192163412Y-78486000D02*
X210690000Y-59959412D01*
X190878000Y-78486000D02*
X192163412Y-78486000D01*
X210690000Y-55260000D02*
X208770000Y-53340000D01*
X210690000Y-59959412D02*
X210690000Y-55260000D01*
X190878000Y-81788000D02*
X190878000Y-80518000D01*
X211140010Y-60255990D02*
X211140010Y-52070010D01*
X209870000Y-50800000D02*
X208770000Y-50800000D01*
X211140010Y-52070010D02*
X209870000Y-50800000D01*
X190878000Y-80518000D02*
X211140010Y-60255990D01*
X134524000Y-71340000D02*
X134617000Y-71247000D01*
X96390000Y-71340000D02*
X134524000Y-71340000D01*
X134617000Y-71247000D02*
X137538000Y-68326000D01*
X191894000Y-71374000D02*
X194942000Y-68326000D01*
X139113011Y-66750989D02*
X144344989Y-66750989D01*
X148968000Y-71374000D02*
X191894000Y-71374000D01*
X144344989Y-66750989D02*
X148968000Y-71374000D01*
X137538000Y-68326000D02*
X139113011Y-66750989D01*
X96390000Y-73880000D02*
X98456000Y-73880000D01*
X98456000Y-73880000D02*
X99438000Y-72898000D01*
X138046000Y-72898000D02*
X142618000Y-68326000D01*
X99438000Y-72898000D02*
X138046000Y-72898000D01*
X138046000Y-72898000D02*
X138046000Y-72898000D01*
X195450000Y-72898000D02*
X200022000Y-68326000D01*
X138046000Y-72898000D02*
X195450000Y-72898000D01*
X95590001Y-75620001D02*
X95556001Y-75620001D01*
X96390000Y-76420000D02*
X95590001Y-75620001D01*
X95556001Y-75620001D02*
X94866000Y-74930000D01*
X94866000Y-74930000D02*
X94866000Y-73406000D01*
X95517001Y-72754999D02*
X97803001Y-72754999D01*
X94866000Y-73406000D02*
X95517001Y-72754999D01*
X97803001Y-72754999D02*
X98422000Y-72136000D01*
X136268000Y-72136000D02*
X140078000Y-68326000D01*
X98422000Y-72136000D02*
X136268000Y-72136000D01*
X136268000Y-72136000D02*
X136268000Y-72136000D01*
X193672000Y-72136000D02*
X197482000Y-68326000D01*
X148206000Y-72136000D02*
X193672000Y-72136000D01*
X143270999Y-67200999D02*
X148206000Y-72136000D01*
X141203001Y-67200999D02*
X143270999Y-67200999D01*
X140078000Y-68326000D02*
X141203001Y-67200999D01*
X184782000Y-60706000D02*
X191894000Y-53594000D01*
X191894000Y-53594000D02*
X191894000Y-51054000D01*
X182242000Y-60706000D02*
X189354000Y-53594000D01*
X189354000Y-53594000D02*
X189354000Y-51054000D01*
X179702000Y-60706000D02*
X186814000Y-53594000D01*
X186814000Y-53594000D02*
X186814000Y-51054000D01*
X177162000Y-60706000D02*
X184274000Y-53594000D01*
X184274000Y-53594000D02*
X184274000Y-51054000D01*
X174622000Y-60706000D02*
X181734000Y-53594000D01*
X181734000Y-53594000D02*
X181734000Y-51054000D01*
X172082000Y-60706000D02*
X179194000Y-53594000D01*
X179194000Y-53594000D02*
X179194000Y-51054000D01*
X169542000Y-60706000D02*
X176654000Y-53594000D01*
X176654000Y-53594000D02*
X176654000Y-51054000D01*
X174114000Y-51054000D02*
X174114000Y-53594000D01*
X167002000Y-60706000D02*
X174114000Y-53594000D01*
X132712000Y-70612000D02*
X134998000Y-68326000D01*
X105822000Y-70612000D02*
X132712000Y-70612000D01*
X96390000Y-61180000D02*
X105822000Y-70612000D01*
X134998000Y-68326000D02*
X137030000Y-66294000D01*
X140846979Y-66300979D02*
X145926979Y-66300979D01*
X140840000Y-66294000D02*
X140846979Y-66300979D01*
X137030000Y-66294000D02*
X140840000Y-66294000D01*
X145926979Y-66300979D02*
X150238000Y-70612000D01*
X190116000Y-70612000D02*
X192402000Y-68326000D01*
X150238000Y-70612000D02*
X190116000Y-70612000D01*
D16*
G36*
X214119000Y-83947000D02*
G01*
X66037000Y-83947000D01*
X66037000Y-81647453D01*
X179291000Y-81647453D01*
X179291000Y-81928547D01*
X179345838Y-82204241D01*
X179453409Y-82463938D01*
X179609576Y-82697660D01*
X179808340Y-82896424D01*
X180042062Y-83052591D01*
X180301759Y-83160162D01*
X180577453Y-83215000D01*
X180858547Y-83215000D01*
X181134241Y-83160162D01*
X181393938Y-83052591D01*
X181627660Y-82896424D01*
X181826424Y-82697660D01*
X181982591Y-82463938D01*
X182090162Y-82204241D01*
X182145000Y-81928547D01*
X182145000Y-81647453D01*
X182090162Y-81371759D01*
X181982591Y-81112062D01*
X181826424Y-80878340D01*
X181627660Y-80679576D01*
X181393938Y-80523409D01*
X181134241Y-80415838D01*
X180858547Y-80361000D01*
X180577453Y-80361000D01*
X180301759Y-80415838D01*
X180042062Y-80523409D01*
X179808340Y-80679576D01*
X179609576Y-80878340D01*
X179453409Y-81112062D01*
X179345838Y-81371759D01*
X179291000Y-81647453D01*
X66037000Y-81647453D01*
X66037000Y-71731263D01*
X67143000Y-71731263D01*
X67143000Y-72248737D01*
X67243954Y-72756268D01*
X67441983Y-73234351D01*
X67729476Y-73664615D01*
X68095385Y-74030524D01*
X68525649Y-74318017D01*
X69003732Y-74516046D01*
X69511263Y-74617000D01*
X70028737Y-74617000D01*
X70536268Y-74516046D01*
X71014351Y-74318017D01*
X71444615Y-74030524D01*
X71810524Y-73664615D01*
X72098017Y-73234351D01*
X72296046Y-72756268D01*
X72397000Y-72248737D01*
X72397000Y-71731263D01*
X72296046Y-71223732D01*
X72098017Y-70745649D01*
X71810524Y-70315385D01*
X71444615Y-69949476D01*
X71014351Y-69661983D01*
X70536268Y-69463954D01*
X70028737Y-69363000D01*
X69511263Y-69363000D01*
X69003732Y-69463954D01*
X68525649Y-69661983D01*
X68095385Y-69949476D01*
X67729476Y-70315385D01*
X67441983Y-70745649D01*
X67243954Y-71223732D01*
X67143000Y-71731263D01*
X66037000Y-71731263D01*
X66037000Y-61039453D01*
X79723000Y-61039453D01*
X79723000Y-61320547D01*
X79777838Y-61596241D01*
X79885409Y-61855938D01*
X80041576Y-62089660D01*
X80240340Y-62288424D01*
X80474062Y-62444591D01*
X80487120Y-62450000D01*
X80474062Y-62455409D01*
X80240340Y-62611576D01*
X80041576Y-62810340D01*
X79885409Y-63044062D01*
X79777838Y-63303759D01*
X79723000Y-63579453D01*
X79723000Y-63860547D01*
X79777838Y-64136241D01*
X79885409Y-64395938D01*
X80041576Y-64629660D01*
X80240340Y-64828424D01*
X80474062Y-64984591D01*
X80487120Y-64990000D01*
X80474062Y-64995409D01*
X80240340Y-65151576D01*
X80041576Y-65350340D01*
X79885409Y-65584062D01*
X79777838Y-65843759D01*
X79723000Y-66119453D01*
X79723000Y-66400547D01*
X79777838Y-66676241D01*
X79885409Y-66935938D01*
X80041576Y-67169660D01*
X80240340Y-67368424D01*
X80474062Y-67524591D01*
X80487120Y-67530000D01*
X80474062Y-67535409D01*
X80240340Y-67691576D01*
X80041576Y-67890340D01*
X79885409Y-68124062D01*
X79777838Y-68383759D01*
X79723000Y-68659453D01*
X79723000Y-68940547D01*
X79777838Y-69216241D01*
X79885409Y-69475938D01*
X80041576Y-69709660D01*
X80240340Y-69908424D01*
X80474062Y-70064591D01*
X80487120Y-70070000D01*
X80474062Y-70075409D01*
X80240340Y-70231576D01*
X80041576Y-70430340D01*
X79885409Y-70664062D01*
X79777838Y-70923759D01*
X79723000Y-71199453D01*
X79723000Y-71480547D01*
X79777838Y-71756241D01*
X79885409Y-72015938D01*
X80041576Y-72249660D01*
X80240340Y-72448424D01*
X80474062Y-72604591D01*
X80487120Y-72610000D01*
X80474062Y-72615409D01*
X80240340Y-72771576D01*
X80041576Y-72970340D01*
X79885409Y-73204062D01*
X79777838Y-73463759D01*
X79723000Y-73739453D01*
X79723000Y-74020547D01*
X79777838Y-74296241D01*
X79885409Y-74555938D01*
X80041576Y-74789660D01*
X80240340Y-74988424D01*
X80474062Y-75144591D01*
X80487120Y-75150000D01*
X80474062Y-75155409D01*
X80240340Y-75311576D01*
X80041576Y-75510340D01*
X79885409Y-75744062D01*
X79777838Y-76003759D01*
X79723000Y-76279453D01*
X79723000Y-76560547D01*
X79777838Y-76836241D01*
X79885409Y-77095938D01*
X80041576Y-77329660D01*
X80240340Y-77528424D01*
X80474062Y-77684591D01*
X80487120Y-77690000D01*
X80474062Y-77695409D01*
X80240340Y-77851576D01*
X80041576Y-78050340D01*
X79885409Y-78284062D01*
X79777838Y-78543759D01*
X79723000Y-78819453D01*
X79723000Y-79100547D01*
X79777838Y-79376241D01*
X79885409Y-79635938D01*
X80041576Y-79869660D01*
X80240340Y-80068424D01*
X80474062Y-80224591D01*
X80733759Y-80332162D01*
X81009453Y-80387000D01*
X81290547Y-80387000D01*
X81566241Y-80332162D01*
X81825938Y-80224591D01*
X82059660Y-80068424D01*
X82258424Y-79869660D01*
X82414591Y-79635938D01*
X82522162Y-79376241D01*
X82577000Y-79100547D01*
X82577000Y-78819453D01*
X82522162Y-78543759D01*
X82414591Y-78284062D01*
X82258424Y-78050340D01*
X82059660Y-77851576D01*
X81825938Y-77695409D01*
X81812880Y-77690000D01*
X81825938Y-77684591D01*
X82059660Y-77528424D01*
X82258424Y-77329660D01*
X82414591Y-77095938D01*
X82522162Y-76836241D01*
X82577000Y-76560547D01*
X82577000Y-76279453D01*
X82522162Y-76003759D01*
X82414591Y-75744062D01*
X82258424Y-75510340D01*
X82059660Y-75311576D01*
X81825938Y-75155409D01*
X81812880Y-75150000D01*
X81825938Y-75144591D01*
X82059660Y-74988424D01*
X82258424Y-74789660D01*
X82414591Y-74555938D01*
X82522162Y-74296241D01*
X82577000Y-74020547D01*
X82577000Y-73739453D01*
X82522162Y-73463759D01*
X82498238Y-73406000D01*
X94110362Y-73406000D01*
X94114001Y-73442945D01*
X94114000Y-74893064D01*
X94110362Y-74930000D01*
X94114000Y-74966935D01*
X94114000Y-74966937D01*
X94124881Y-75077417D01*
X94162125Y-75200191D01*
X94167882Y-75219169D01*
X94237710Y-75349810D01*
X94278583Y-75399614D01*
X94331683Y-75464317D01*
X94360379Y-75487867D01*
X94994351Y-76121840D01*
X94963000Y-76279453D01*
X94963000Y-76560547D01*
X95017838Y-76836241D01*
X95125409Y-77095938D01*
X95281576Y-77329660D01*
X95480340Y-77528424D01*
X95714062Y-77684591D01*
X95727120Y-77690000D01*
X95714062Y-77695409D01*
X95480340Y-77851576D01*
X95281576Y-78050340D01*
X95125409Y-78284062D01*
X95017838Y-78543759D01*
X94963000Y-78819453D01*
X94963000Y-79100547D01*
X95017838Y-79376241D01*
X95125409Y-79635938D01*
X95281576Y-79869660D01*
X95480340Y-80068424D01*
X95714062Y-80224591D01*
X95973759Y-80332162D01*
X96249453Y-80387000D01*
X96530547Y-80387000D01*
X96806241Y-80332162D01*
X97065938Y-80224591D01*
X97299660Y-80068424D01*
X97498424Y-79869660D01*
X97654591Y-79635938D01*
X97762162Y-79376241D01*
X97817000Y-79100547D01*
X97817000Y-78819453D01*
X97762162Y-78543759D01*
X97680021Y-78345453D01*
X179291000Y-78345453D01*
X179291000Y-78626547D01*
X179345838Y-78902241D01*
X179453409Y-79161938D01*
X179609576Y-79395660D01*
X179808340Y-79594424D01*
X180042062Y-79750591D01*
X180301759Y-79858162D01*
X180577453Y-79913000D01*
X180858547Y-79913000D01*
X181134241Y-79858162D01*
X181393938Y-79750591D01*
X181627660Y-79594424D01*
X181826424Y-79395660D01*
X181982591Y-79161938D01*
X182090162Y-78902241D01*
X182145000Y-78626547D01*
X182145000Y-78345453D01*
X182090162Y-78069759D01*
X181982591Y-77810062D01*
X181826424Y-77576340D01*
X181627660Y-77377576D01*
X181393938Y-77221409D01*
X181134241Y-77113838D01*
X180858547Y-77059000D01*
X180577453Y-77059000D01*
X180301759Y-77113838D01*
X180042062Y-77221409D01*
X179808340Y-77377576D01*
X179609576Y-77576340D01*
X179453409Y-77810062D01*
X179345838Y-78069759D01*
X179291000Y-78345453D01*
X97680021Y-78345453D01*
X97654591Y-78284062D01*
X97498424Y-78050340D01*
X97299660Y-77851576D01*
X97065938Y-77695409D01*
X97052880Y-77690000D01*
X97065938Y-77684591D01*
X97299660Y-77528424D01*
X97498424Y-77329660D01*
X97654591Y-77095938D01*
X97762162Y-76836241D01*
X97817000Y-76560547D01*
X97817000Y-76279453D01*
X97762162Y-76003759D01*
X97654591Y-75744062D01*
X97498424Y-75510340D01*
X97299660Y-75311576D01*
X97065938Y-75155409D01*
X97052880Y-75150000D01*
X97065938Y-75144591D01*
X97217302Y-75043453D01*
X179291000Y-75043453D01*
X179291000Y-75324547D01*
X179345838Y-75600241D01*
X179453409Y-75859938D01*
X179609576Y-76093660D01*
X179808340Y-76292424D01*
X180042062Y-76448591D01*
X180301759Y-76556162D01*
X180577453Y-76611000D01*
X180858547Y-76611000D01*
X181134241Y-76556162D01*
X181393938Y-76448591D01*
X181627660Y-76292424D01*
X181826424Y-76093660D01*
X181982591Y-75859938D01*
X182090162Y-75600241D01*
X182145000Y-75324547D01*
X182145000Y-75043453D01*
X182090162Y-74767759D01*
X181982591Y-74508062D01*
X181826424Y-74274340D01*
X181627660Y-74075576D01*
X181393938Y-73919409D01*
X181134241Y-73811838D01*
X180858547Y-73757000D01*
X180577453Y-73757000D01*
X180301759Y-73811838D01*
X180042062Y-73919409D01*
X179808340Y-74075576D01*
X179609576Y-74274340D01*
X179453409Y-74508062D01*
X179345838Y-74767759D01*
X179291000Y-75043453D01*
X97217302Y-75043453D01*
X97299660Y-74988424D01*
X97498424Y-74789660D01*
X97603768Y-74632000D01*
X98419065Y-74632000D01*
X98456000Y-74635638D01*
X98492935Y-74632000D01*
X98492938Y-74632000D01*
X98603418Y-74621119D01*
X98745170Y-74578118D01*
X98875810Y-74508290D01*
X98990317Y-74414317D01*
X99013867Y-74385621D01*
X99749488Y-73650000D01*
X138009065Y-73650000D01*
X138046000Y-73653638D01*
X138082935Y-73650000D01*
X195299514Y-73650000D01*
X194517514Y-74432000D01*
X192091768Y-74432000D01*
X191986424Y-74274340D01*
X191787660Y-74075576D01*
X191553938Y-73919409D01*
X191294241Y-73811838D01*
X191018547Y-73757000D01*
X190737453Y-73757000D01*
X190461759Y-73811838D01*
X190202062Y-73919409D01*
X189968340Y-74075576D01*
X189769576Y-74274340D01*
X189613409Y-74508062D01*
X189505838Y-74767759D01*
X189451000Y-75043453D01*
X189451000Y-75324547D01*
X189505838Y-75600241D01*
X189613409Y-75859938D01*
X189769576Y-76093660D01*
X189968340Y-76292424D01*
X190202062Y-76448591D01*
X190461759Y-76556162D01*
X190737453Y-76611000D01*
X191018547Y-76611000D01*
X191294241Y-76556162D01*
X191553938Y-76448591D01*
X191787660Y-76292424D01*
X191986424Y-76093660D01*
X192091768Y-75936000D01*
X193649924Y-75936000D01*
X191995701Y-77590223D01*
X191986424Y-77576340D01*
X191787660Y-77377576D01*
X191553938Y-77221409D01*
X191294241Y-77113838D01*
X191018547Y-77059000D01*
X190737453Y-77059000D01*
X190461759Y-77113838D01*
X190202062Y-77221409D01*
X189968340Y-77377576D01*
X189769576Y-77576340D01*
X189613409Y-77810062D01*
X189505838Y-78069759D01*
X189451000Y-78345453D01*
X189451000Y-78626547D01*
X189505838Y-78902241D01*
X189613409Y-79161938D01*
X189769576Y-79395660D01*
X189968340Y-79594424D01*
X190202062Y-79750591D01*
X190461759Y-79858162D01*
X190472261Y-79860251D01*
X190372375Y-79960137D01*
X190343684Y-79983683D01*
X190320138Y-80012374D01*
X190320137Y-80012375D01*
X190249710Y-80098190D01*
X190179882Y-80228831D01*
X190136882Y-80370583D01*
X190122362Y-80518000D01*
X190126001Y-80554945D01*
X190126001Y-80574231D01*
X189968340Y-80679576D01*
X189769576Y-80878340D01*
X189613409Y-81112062D01*
X189505838Y-81371759D01*
X189451000Y-81647453D01*
X189451000Y-81928547D01*
X189505838Y-82204241D01*
X189613409Y-82463938D01*
X189769576Y-82697660D01*
X189968340Y-82896424D01*
X190202062Y-83052591D01*
X190461759Y-83160162D01*
X190737453Y-83215000D01*
X191018547Y-83215000D01*
X191294241Y-83160162D01*
X191553938Y-83052591D01*
X191787660Y-82896424D01*
X191986424Y-82697660D01*
X192142591Y-82463938D01*
X192250162Y-82204241D01*
X192305000Y-81928547D01*
X192305000Y-81647453D01*
X192250162Y-81371759D01*
X192142591Y-81112062D01*
X191986424Y-80878340D01*
X191787660Y-80679576D01*
X191783015Y-80676473D01*
X192728225Y-79731263D01*
X207143000Y-79731263D01*
X207143000Y-80248737D01*
X207243954Y-80756268D01*
X207441983Y-81234351D01*
X207729476Y-81664615D01*
X208095385Y-82030524D01*
X208525649Y-82318017D01*
X209003732Y-82516046D01*
X209511263Y-82617000D01*
X210028737Y-82617000D01*
X210536268Y-82516046D01*
X211014351Y-82318017D01*
X211444615Y-82030524D01*
X211810524Y-81664615D01*
X212098017Y-81234351D01*
X212296046Y-80756268D01*
X212397000Y-80248737D01*
X212397000Y-79731263D01*
X212296046Y-79223732D01*
X212098017Y-78745649D01*
X211810524Y-78315385D01*
X211444615Y-77949476D01*
X211014351Y-77661983D01*
X210536268Y-77463954D01*
X210028737Y-77363000D01*
X209511263Y-77363000D01*
X209003732Y-77463954D01*
X208525649Y-77661983D01*
X208095385Y-77949476D01*
X207729476Y-78315385D01*
X207441983Y-78745649D01*
X207243954Y-79223732D01*
X207143000Y-79731263D01*
X192728225Y-79731263D01*
X211645637Y-60813852D01*
X211674327Y-60790307D01*
X211736089Y-60715050D01*
X211768300Y-60675801D01*
X211830953Y-60558583D01*
X211838128Y-60545160D01*
X211881129Y-60403408D01*
X211892010Y-60292928D01*
X211892010Y-60292926D01*
X211895648Y-60255991D01*
X211892010Y-60219055D01*
X211892010Y-52106945D01*
X211895648Y-52070009D01*
X211891403Y-52026913D01*
X211881129Y-51922592D01*
X211838128Y-51780840D01*
X211792747Y-51695938D01*
X211768300Y-51650199D01*
X211697873Y-51564384D01*
X211674327Y-51535693D01*
X211645636Y-51512147D01*
X210427867Y-50294379D01*
X210404317Y-50265683D01*
X210289810Y-50171710D01*
X210250033Y-50150449D01*
X210250033Y-49950000D01*
X210237927Y-49827087D01*
X210202075Y-49708897D01*
X210143853Y-49599972D01*
X210065501Y-49504499D01*
X209970028Y-49426147D01*
X209861103Y-49367925D01*
X209742913Y-49332073D01*
X209620000Y-49319967D01*
X207920000Y-49319967D01*
X207797087Y-49332073D01*
X207678897Y-49367925D01*
X207569972Y-49426147D01*
X207474499Y-49504499D01*
X207396147Y-49599972D01*
X207337925Y-49708897D01*
X207302073Y-49827087D01*
X207289967Y-49950000D01*
X207289967Y-51650000D01*
X207302073Y-51772913D01*
X207337925Y-51891103D01*
X207396147Y-52000028D01*
X207474499Y-52095501D01*
X207569972Y-52173853D01*
X207678897Y-52232075D01*
X207763475Y-52257731D01*
X207622739Y-52398467D01*
X207461099Y-52640378D01*
X207349760Y-52909175D01*
X207293000Y-53194528D01*
X207293000Y-53485472D01*
X207349760Y-53770825D01*
X207461099Y-54039622D01*
X207622739Y-54281533D01*
X207828467Y-54487261D01*
X208012159Y-54610000D01*
X207828467Y-54732739D01*
X207622739Y-54938467D01*
X207461099Y-55180378D01*
X207349760Y-55449175D01*
X207293000Y-55734528D01*
X207293000Y-56025472D01*
X207337471Y-56249041D01*
X203632512Y-59954000D01*
X201235768Y-59954000D01*
X201130424Y-59796340D01*
X200931660Y-59597576D01*
X200697938Y-59441409D01*
X200438241Y-59333838D01*
X200162547Y-59279000D01*
X199881453Y-59279000D01*
X199605759Y-59333838D01*
X199346062Y-59441409D01*
X199112340Y-59597576D01*
X198913576Y-59796340D01*
X198757409Y-60030062D01*
X198751054Y-60045404D01*
X198634385Y-59850869D01*
X198445414Y-59642481D01*
X198219420Y-59474963D01*
X197965087Y-59354754D01*
X197831039Y-59314096D01*
X197609000Y-59436085D01*
X197609000Y-60579000D01*
X197629000Y-60579000D01*
X197629000Y-60833000D01*
X197609000Y-60833000D01*
X197609000Y-61975915D01*
X197831039Y-62097904D01*
X197965087Y-62057246D01*
X198219420Y-61937037D01*
X198445414Y-61769519D01*
X198634385Y-61561131D01*
X198751054Y-61366596D01*
X198757409Y-61381938D01*
X198913576Y-61615660D01*
X199112340Y-61814424D01*
X199346062Y-61970591D01*
X199605759Y-62078162D01*
X199881453Y-62133000D01*
X200162547Y-62133000D01*
X200438241Y-62078162D01*
X200697938Y-61970591D01*
X200931660Y-61814424D01*
X201130424Y-61615660D01*
X201235768Y-61458000D01*
X203907065Y-61458000D01*
X203944000Y-61461638D01*
X203980935Y-61458000D01*
X203980938Y-61458000D01*
X204091418Y-61447119D01*
X204233170Y-61404118D01*
X204363810Y-61334290D01*
X204478317Y-61240317D01*
X204501867Y-61211621D01*
X207293000Y-58420488D01*
X207293000Y-58565472D01*
X207349760Y-58850825D01*
X207461099Y-59119622D01*
X207622739Y-59361533D01*
X207828467Y-59567261D01*
X208018001Y-59693904D01*
X208018000Y-60931513D01*
X201290358Y-67659156D01*
X201286591Y-67650062D01*
X201130424Y-67416340D01*
X200931660Y-67217576D01*
X200697938Y-67061409D01*
X200438241Y-66953838D01*
X200162547Y-66899000D01*
X199881453Y-66899000D01*
X199605759Y-66953838D01*
X199346062Y-67061409D01*
X199112340Y-67217576D01*
X198913576Y-67416340D01*
X198757409Y-67650062D01*
X198752000Y-67663120D01*
X198746591Y-67650062D01*
X198590424Y-67416340D01*
X198391660Y-67217576D01*
X198157938Y-67061409D01*
X197898241Y-66953838D01*
X197622547Y-66899000D01*
X197341453Y-66899000D01*
X197065759Y-66953838D01*
X196806062Y-67061409D01*
X196572340Y-67217576D01*
X196373576Y-67416340D01*
X196217409Y-67650062D01*
X196212000Y-67663120D01*
X196206591Y-67650062D01*
X196050424Y-67416340D01*
X195851660Y-67217576D01*
X195617938Y-67061409D01*
X195358241Y-66953838D01*
X195082547Y-66899000D01*
X194801453Y-66899000D01*
X194525759Y-66953838D01*
X194266062Y-67061409D01*
X194032340Y-67217576D01*
X193833576Y-67416340D01*
X193677409Y-67650062D01*
X193672000Y-67663120D01*
X193666591Y-67650062D01*
X193510424Y-67416340D01*
X193311660Y-67217576D01*
X193077938Y-67061409D01*
X192818241Y-66953838D01*
X192542547Y-66899000D01*
X192261453Y-66899000D01*
X191985759Y-66953838D01*
X191726062Y-67061409D01*
X191492340Y-67217576D01*
X191293576Y-67416340D01*
X191137409Y-67650062D01*
X191131054Y-67665404D01*
X191014385Y-67470869D01*
X190825414Y-67262481D01*
X190599420Y-67094963D01*
X190345087Y-66974754D01*
X190211039Y-66934096D01*
X189989000Y-67056085D01*
X189989000Y-68199000D01*
X190009000Y-68199000D01*
X190009000Y-68453000D01*
X189989000Y-68453000D01*
X189989000Y-69595915D01*
X190040373Y-69624139D01*
X189804512Y-69860000D01*
X150549489Y-69860000D01*
X148992191Y-68302702D01*
X152218903Y-68302702D01*
X152290486Y-68546671D01*
X152545996Y-68667571D01*
X152820184Y-68736300D01*
X153102512Y-68750217D01*
X153382130Y-68708787D01*
X153648292Y-68613603D01*
X153773514Y-68546671D01*
X153845097Y-68302702D01*
X157552903Y-68302702D01*
X157624486Y-68546671D01*
X157879996Y-68667571D01*
X158154184Y-68736300D01*
X158436512Y-68750217D01*
X158716130Y-68708787D01*
X158982292Y-68613603D01*
X159107514Y-68546671D01*
X159179097Y-68302702D01*
X158366000Y-67489605D01*
X157552903Y-68302702D01*
X153845097Y-68302702D01*
X153032000Y-67489605D01*
X152218903Y-68302702D01*
X148992191Y-68302702D01*
X148070001Y-67380512D01*
X151591783Y-67380512D01*
X151633213Y-67660130D01*
X151728397Y-67926292D01*
X151795329Y-68051514D01*
X152039298Y-68123097D01*
X152852395Y-67310000D01*
X153211605Y-67310000D01*
X154024702Y-68123097D01*
X154268671Y-68051514D01*
X154389571Y-67796004D01*
X154458300Y-67521816D01*
X154465265Y-67380512D01*
X156925783Y-67380512D01*
X156967213Y-67660130D01*
X157062397Y-67926292D01*
X157129329Y-68051514D01*
X157373298Y-68123097D01*
X158186395Y-67310000D01*
X158545605Y-67310000D01*
X159358702Y-68123097D01*
X159602671Y-68051514D01*
X159723571Y-67796004D01*
X159791251Y-67526000D01*
X165571967Y-67526000D01*
X165571967Y-69126000D01*
X165584073Y-69248913D01*
X165619925Y-69367103D01*
X165678147Y-69476028D01*
X165756499Y-69571501D01*
X165851972Y-69649853D01*
X165960897Y-69708075D01*
X166079087Y-69743927D01*
X166202000Y-69756033D01*
X167802000Y-69756033D01*
X167924913Y-69743927D01*
X168043103Y-69708075D01*
X168152028Y-69649853D01*
X168247501Y-69571501D01*
X168325853Y-69476028D01*
X168384075Y-69367103D01*
X168419927Y-69248913D01*
X168422818Y-69219560D01*
X168433576Y-69235660D01*
X168632340Y-69434424D01*
X168866062Y-69590591D01*
X169125759Y-69698162D01*
X169401453Y-69753000D01*
X169682547Y-69753000D01*
X169958241Y-69698162D01*
X170217938Y-69590591D01*
X170451660Y-69434424D01*
X170650424Y-69235660D01*
X170806591Y-69001938D01*
X170812000Y-68988880D01*
X170817409Y-69001938D01*
X170973576Y-69235660D01*
X171172340Y-69434424D01*
X171406062Y-69590591D01*
X171665759Y-69698162D01*
X171941453Y-69753000D01*
X172222547Y-69753000D01*
X172498241Y-69698162D01*
X172757938Y-69590591D01*
X172991660Y-69434424D01*
X173190424Y-69235660D01*
X173346591Y-69001938D01*
X173352000Y-68988880D01*
X173357409Y-69001938D01*
X173513576Y-69235660D01*
X173712340Y-69434424D01*
X173946062Y-69590591D01*
X174205759Y-69698162D01*
X174481453Y-69753000D01*
X174762547Y-69753000D01*
X175038241Y-69698162D01*
X175297938Y-69590591D01*
X175531660Y-69434424D01*
X175730424Y-69235660D01*
X175886591Y-69001938D01*
X175892000Y-68988880D01*
X175897409Y-69001938D01*
X176053576Y-69235660D01*
X176252340Y-69434424D01*
X176486062Y-69590591D01*
X176745759Y-69698162D01*
X177021453Y-69753000D01*
X177302547Y-69753000D01*
X177578241Y-69698162D01*
X177837938Y-69590591D01*
X178071660Y-69434424D01*
X178270424Y-69235660D01*
X178426591Y-69001938D01*
X178432000Y-68988880D01*
X178437409Y-69001938D01*
X178593576Y-69235660D01*
X178792340Y-69434424D01*
X179026062Y-69590591D01*
X179285759Y-69698162D01*
X179561453Y-69753000D01*
X179842547Y-69753000D01*
X180118241Y-69698162D01*
X180377938Y-69590591D01*
X180611660Y-69434424D01*
X180810424Y-69235660D01*
X180966591Y-69001938D01*
X180972000Y-68988880D01*
X180977409Y-69001938D01*
X181133576Y-69235660D01*
X181332340Y-69434424D01*
X181566062Y-69590591D01*
X181825759Y-69698162D01*
X182101453Y-69753000D01*
X182382547Y-69753000D01*
X182658241Y-69698162D01*
X182917938Y-69590591D01*
X183151660Y-69434424D01*
X183350424Y-69235660D01*
X183506591Y-69001938D01*
X183512000Y-68988880D01*
X183517409Y-69001938D01*
X183673576Y-69235660D01*
X183872340Y-69434424D01*
X184106062Y-69590591D01*
X184365759Y-69698162D01*
X184641453Y-69753000D01*
X184922547Y-69753000D01*
X185198241Y-69698162D01*
X185457938Y-69590591D01*
X185691660Y-69434424D01*
X185890424Y-69235660D01*
X186046591Y-69001938D01*
X186052000Y-68988880D01*
X186057409Y-69001938D01*
X186213576Y-69235660D01*
X186412340Y-69434424D01*
X186646062Y-69590591D01*
X186905759Y-69698162D01*
X187181453Y-69753000D01*
X187462547Y-69753000D01*
X187738241Y-69698162D01*
X187997938Y-69590591D01*
X188231660Y-69434424D01*
X188430424Y-69235660D01*
X188586591Y-69001938D01*
X188592946Y-68986596D01*
X188709615Y-69181131D01*
X188898586Y-69389519D01*
X189124580Y-69557037D01*
X189378913Y-69677246D01*
X189512961Y-69717904D01*
X189735000Y-69595915D01*
X189735000Y-68453000D01*
X189715000Y-68453000D01*
X189715000Y-68199000D01*
X189735000Y-68199000D01*
X189735000Y-67056085D01*
X189512961Y-66934096D01*
X189378913Y-66974754D01*
X189124580Y-67094963D01*
X188898586Y-67262481D01*
X188709615Y-67470869D01*
X188592946Y-67665404D01*
X188586591Y-67650062D01*
X188430424Y-67416340D01*
X188231660Y-67217576D01*
X187997938Y-67061409D01*
X187738241Y-66953838D01*
X187462547Y-66899000D01*
X187181453Y-66899000D01*
X186905759Y-66953838D01*
X186646062Y-67061409D01*
X186412340Y-67217576D01*
X186213576Y-67416340D01*
X186057409Y-67650062D01*
X186052000Y-67663120D01*
X186046591Y-67650062D01*
X185890424Y-67416340D01*
X185691660Y-67217576D01*
X185457938Y-67061409D01*
X185198241Y-66953838D01*
X184922547Y-66899000D01*
X184641453Y-66899000D01*
X184365759Y-66953838D01*
X184106062Y-67061409D01*
X183872340Y-67217576D01*
X183673576Y-67416340D01*
X183517409Y-67650062D01*
X183512000Y-67663120D01*
X183506591Y-67650062D01*
X183350424Y-67416340D01*
X183151660Y-67217576D01*
X182917938Y-67061409D01*
X182658241Y-66953838D01*
X182382547Y-66899000D01*
X182101453Y-66899000D01*
X181825759Y-66953838D01*
X181566062Y-67061409D01*
X181332340Y-67217576D01*
X181133576Y-67416340D01*
X180977409Y-67650062D01*
X180972000Y-67663120D01*
X180966591Y-67650062D01*
X180810424Y-67416340D01*
X180611660Y-67217576D01*
X180377938Y-67061409D01*
X180118241Y-66953838D01*
X179842547Y-66899000D01*
X179561453Y-66899000D01*
X179285759Y-66953838D01*
X179026062Y-67061409D01*
X178792340Y-67217576D01*
X178593576Y-67416340D01*
X178437409Y-67650062D01*
X178432000Y-67663120D01*
X178426591Y-67650062D01*
X178270424Y-67416340D01*
X178071660Y-67217576D01*
X177837938Y-67061409D01*
X177578241Y-66953838D01*
X177302547Y-66899000D01*
X177021453Y-66899000D01*
X176745759Y-66953838D01*
X176486062Y-67061409D01*
X176252340Y-67217576D01*
X176053576Y-67416340D01*
X175897409Y-67650062D01*
X175892000Y-67663120D01*
X175886591Y-67650062D01*
X175730424Y-67416340D01*
X175531660Y-67217576D01*
X175297938Y-67061409D01*
X175038241Y-66953838D01*
X174762547Y-66899000D01*
X174481453Y-66899000D01*
X174205759Y-66953838D01*
X173946062Y-67061409D01*
X173712340Y-67217576D01*
X173513576Y-67416340D01*
X173357409Y-67650062D01*
X173352000Y-67663120D01*
X173346591Y-67650062D01*
X173190424Y-67416340D01*
X172991660Y-67217576D01*
X172757938Y-67061409D01*
X172498241Y-66953838D01*
X172222547Y-66899000D01*
X171941453Y-66899000D01*
X171665759Y-66953838D01*
X171406062Y-67061409D01*
X171172340Y-67217576D01*
X170973576Y-67416340D01*
X170817409Y-67650062D01*
X170812000Y-67663120D01*
X170806591Y-67650062D01*
X170650424Y-67416340D01*
X170451660Y-67217576D01*
X170217938Y-67061409D01*
X169958241Y-66953838D01*
X169682547Y-66899000D01*
X169401453Y-66899000D01*
X169125759Y-66953838D01*
X168866062Y-67061409D01*
X168632340Y-67217576D01*
X168433576Y-67416340D01*
X168422818Y-67432440D01*
X168419927Y-67403087D01*
X168384075Y-67284897D01*
X168325853Y-67175972D01*
X168247501Y-67080499D01*
X168152028Y-67002147D01*
X168043103Y-66943925D01*
X167924913Y-66908073D01*
X167802000Y-66895967D01*
X166202000Y-66895967D01*
X166079087Y-66908073D01*
X165960897Y-66943925D01*
X165851972Y-67002147D01*
X165756499Y-67080499D01*
X165678147Y-67175972D01*
X165619925Y-67284897D01*
X165584073Y-67403087D01*
X165571967Y-67526000D01*
X159791251Y-67526000D01*
X159792300Y-67521816D01*
X159806217Y-67239488D01*
X159764787Y-66959870D01*
X159669603Y-66693708D01*
X159602671Y-66568486D01*
X159358702Y-66496903D01*
X158545605Y-67310000D01*
X158186395Y-67310000D01*
X157373298Y-66496903D01*
X157129329Y-66568486D01*
X157008429Y-66823996D01*
X156939700Y-67098184D01*
X156925783Y-67380512D01*
X154465265Y-67380512D01*
X154472217Y-67239488D01*
X154430787Y-66959870D01*
X154335603Y-66693708D01*
X154268671Y-66568486D01*
X154024702Y-66496903D01*
X153211605Y-67310000D01*
X152852395Y-67310000D01*
X152039298Y-66496903D01*
X151795329Y-66568486D01*
X151674429Y-66823996D01*
X151605700Y-67098184D01*
X151591783Y-67380512D01*
X148070001Y-67380512D01*
X147006787Y-66317298D01*
X152218903Y-66317298D01*
X153032000Y-67130395D01*
X153845097Y-66317298D01*
X157552903Y-66317298D01*
X158366000Y-67130395D01*
X159179097Y-66317298D01*
X159107514Y-66073329D01*
X158852004Y-65952429D01*
X158577816Y-65883700D01*
X158295488Y-65869783D01*
X158015870Y-65911213D01*
X157749708Y-66006397D01*
X157624486Y-66073329D01*
X157552903Y-66317298D01*
X153845097Y-66317298D01*
X153773514Y-66073329D01*
X153518004Y-65952429D01*
X153243816Y-65883700D01*
X152961488Y-65869783D01*
X152681870Y-65911213D01*
X152415708Y-66006397D01*
X152290486Y-66073329D01*
X152218903Y-66317298D01*
X147006787Y-66317298D01*
X146484846Y-65795358D01*
X146461296Y-65766662D01*
X146346789Y-65672689D01*
X146216149Y-65602861D01*
X146074397Y-65559860D01*
X145963917Y-65548979D01*
X145963914Y-65548979D01*
X145926979Y-65545341D01*
X145890044Y-65548979D01*
X143918509Y-65548979D01*
X147298035Y-62169453D01*
X151605000Y-62169453D01*
X151605000Y-62450547D01*
X151659838Y-62726241D01*
X151767409Y-62985938D01*
X151923576Y-63219660D01*
X152122340Y-63418424D01*
X152356062Y-63574591D01*
X152615759Y-63682162D01*
X152891453Y-63737000D01*
X153172547Y-63737000D01*
X153448241Y-63682162D01*
X153707938Y-63574591D01*
X153941660Y-63418424D01*
X154140424Y-63219660D01*
X154296591Y-62985938D01*
X154404162Y-62726241D01*
X154459000Y-62450547D01*
X154459000Y-62169453D01*
X156939000Y-62169453D01*
X156939000Y-62450547D01*
X156993838Y-62726241D01*
X157101409Y-62985938D01*
X157257576Y-63219660D01*
X157456340Y-63418424D01*
X157690062Y-63574591D01*
X157949759Y-63682162D01*
X158225453Y-63737000D01*
X158506547Y-63737000D01*
X158782241Y-63682162D01*
X159041938Y-63574591D01*
X159275660Y-63418424D01*
X159474424Y-63219660D01*
X159630591Y-62985938D01*
X159738162Y-62726241D01*
X159793000Y-62450547D01*
X159793000Y-62169453D01*
X159738162Y-61893759D01*
X159630591Y-61634062D01*
X159474424Y-61400340D01*
X159275660Y-61201576D01*
X159041938Y-61045409D01*
X158782241Y-60937838D01*
X158506547Y-60883000D01*
X158225453Y-60883000D01*
X157949759Y-60937838D01*
X157690062Y-61045409D01*
X157456340Y-61201576D01*
X157257576Y-61400340D01*
X157101409Y-61634062D01*
X156993838Y-61893759D01*
X156939000Y-62169453D01*
X154459000Y-62169453D01*
X154404162Y-61893759D01*
X154296591Y-61634062D01*
X154140424Y-61400340D01*
X153941660Y-61201576D01*
X153707938Y-61045409D01*
X153448241Y-60937838D01*
X153172547Y-60883000D01*
X152891453Y-60883000D01*
X152615759Y-60937838D01*
X152356062Y-61045409D01*
X152122340Y-61201576D01*
X151923576Y-61400340D01*
X151767409Y-61634062D01*
X151659838Y-61893759D01*
X151605000Y-62169453D01*
X147298035Y-62169453D01*
X148902035Y-60565453D01*
X165575000Y-60565453D01*
X165575000Y-60846547D01*
X165629838Y-61122241D01*
X165737409Y-61381938D01*
X165893576Y-61615660D01*
X166092340Y-61814424D01*
X166326062Y-61970591D01*
X166585759Y-62078162D01*
X166861453Y-62133000D01*
X167142547Y-62133000D01*
X167418241Y-62078162D01*
X167677938Y-61970591D01*
X167911660Y-61814424D01*
X168110424Y-61615660D01*
X168266591Y-61381938D01*
X168272000Y-61368880D01*
X168277409Y-61381938D01*
X168433576Y-61615660D01*
X168632340Y-61814424D01*
X168866062Y-61970591D01*
X169125759Y-62078162D01*
X169401453Y-62133000D01*
X169682547Y-62133000D01*
X169958241Y-62078162D01*
X170217938Y-61970591D01*
X170451660Y-61814424D01*
X170650424Y-61615660D01*
X170806591Y-61381938D01*
X170812000Y-61368880D01*
X170817409Y-61381938D01*
X170973576Y-61615660D01*
X171172340Y-61814424D01*
X171406062Y-61970591D01*
X171665759Y-62078162D01*
X171941453Y-62133000D01*
X172222547Y-62133000D01*
X172498241Y-62078162D01*
X172757938Y-61970591D01*
X172991660Y-61814424D01*
X173190424Y-61615660D01*
X173346591Y-61381938D01*
X173352000Y-61368880D01*
X173357409Y-61381938D01*
X173513576Y-61615660D01*
X173712340Y-61814424D01*
X173946062Y-61970591D01*
X174205759Y-62078162D01*
X174481453Y-62133000D01*
X174762547Y-62133000D01*
X175038241Y-62078162D01*
X175297938Y-61970591D01*
X175531660Y-61814424D01*
X175730424Y-61615660D01*
X175886591Y-61381938D01*
X175892000Y-61368880D01*
X175897409Y-61381938D01*
X176053576Y-61615660D01*
X176252340Y-61814424D01*
X176486062Y-61970591D01*
X176745759Y-62078162D01*
X177021453Y-62133000D01*
X177302547Y-62133000D01*
X177578241Y-62078162D01*
X177837938Y-61970591D01*
X178071660Y-61814424D01*
X178270424Y-61615660D01*
X178426591Y-61381938D01*
X178432000Y-61368880D01*
X178437409Y-61381938D01*
X178593576Y-61615660D01*
X178792340Y-61814424D01*
X179026062Y-61970591D01*
X179285759Y-62078162D01*
X179561453Y-62133000D01*
X179842547Y-62133000D01*
X180118241Y-62078162D01*
X180377938Y-61970591D01*
X180611660Y-61814424D01*
X180810424Y-61615660D01*
X180966591Y-61381938D01*
X180972000Y-61368880D01*
X180977409Y-61381938D01*
X181133576Y-61615660D01*
X181332340Y-61814424D01*
X181566062Y-61970591D01*
X181825759Y-62078162D01*
X182101453Y-62133000D01*
X182382547Y-62133000D01*
X182658241Y-62078162D01*
X182917938Y-61970591D01*
X183151660Y-61814424D01*
X183350424Y-61615660D01*
X183506591Y-61381938D01*
X183512000Y-61368880D01*
X183517409Y-61381938D01*
X183673576Y-61615660D01*
X183872340Y-61814424D01*
X184106062Y-61970591D01*
X184365759Y-62078162D01*
X184641453Y-62133000D01*
X184922547Y-62133000D01*
X185198241Y-62078162D01*
X185457938Y-61970591D01*
X185691660Y-61814424D01*
X185890424Y-61615660D01*
X186046591Y-61381938D01*
X186052000Y-61368880D01*
X186057409Y-61381938D01*
X186213576Y-61615660D01*
X186412340Y-61814424D01*
X186646062Y-61970591D01*
X186905759Y-62078162D01*
X187181453Y-62133000D01*
X187462547Y-62133000D01*
X187738241Y-62078162D01*
X187997938Y-61970591D01*
X188231660Y-61814424D01*
X188430424Y-61615660D01*
X188586591Y-61381938D01*
X188592000Y-61368880D01*
X188597409Y-61381938D01*
X188753576Y-61615660D01*
X188952340Y-61814424D01*
X189186062Y-61970591D01*
X189445759Y-62078162D01*
X189721453Y-62133000D01*
X190002547Y-62133000D01*
X190278241Y-62078162D01*
X190537938Y-61970591D01*
X190771660Y-61814424D01*
X190970424Y-61615660D01*
X191126591Y-61381938D01*
X191132000Y-61368880D01*
X191137409Y-61381938D01*
X191293576Y-61615660D01*
X191492340Y-61814424D01*
X191726062Y-61970591D01*
X191985759Y-62078162D01*
X192261453Y-62133000D01*
X192542547Y-62133000D01*
X192818241Y-62078162D01*
X193077938Y-61970591D01*
X193311660Y-61814424D01*
X193510424Y-61615660D01*
X193666591Y-61381938D01*
X193672946Y-61366596D01*
X193789615Y-61561131D01*
X193978586Y-61769519D01*
X194204580Y-61937037D01*
X194458913Y-62057246D01*
X194592961Y-62097904D01*
X194815000Y-61975915D01*
X194815000Y-60833000D01*
X195069000Y-60833000D01*
X195069000Y-61975915D01*
X195291039Y-62097904D01*
X195425087Y-62057246D01*
X195679420Y-61937037D01*
X195905414Y-61769519D01*
X196094385Y-61561131D01*
X196212000Y-61365018D01*
X196329615Y-61561131D01*
X196518586Y-61769519D01*
X196744580Y-61937037D01*
X196998913Y-62057246D01*
X197132961Y-62097904D01*
X197355000Y-61975915D01*
X197355000Y-60833000D01*
X195069000Y-60833000D01*
X194815000Y-60833000D01*
X194795000Y-60833000D01*
X194795000Y-60579000D01*
X194815000Y-60579000D01*
X194815000Y-59436085D01*
X195069000Y-59436085D01*
X195069000Y-60579000D01*
X197355000Y-60579000D01*
X197355000Y-59436085D01*
X197132961Y-59314096D01*
X196998913Y-59354754D01*
X196744580Y-59474963D01*
X196518586Y-59642481D01*
X196329615Y-59850869D01*
X196212000Y-60046982D01*
X196094385Y-59850869D01*
X195905414Y-59642481D01*
X195679420Y-59474963D01*
X195425087Y-59354754D01*
X195291039Y-59314096D01*
X195069000Y-59436085D01*
X194815000Y-59436085D01*
X194592961Y-59314096D01*
X194458913Y-59354754D01*
X194204580Y-59474963D01*
X193978586Y-59642481D01*
X193789615Y-59850869D01*
X193672946Y-60045404D01*
X193666591Y-60030062D01*
X193510424Y-59796340D01*
X193311660Y-59597576D01*
X193077938Y-59441409D01*
X192818241Y-59333838D01*
X192542547Y-59279000D01*
X192261453Y-59279000D01*
X191985759Y-59333838D01*
X191726062Y-59441409D01*
X191492340Y-59597576D01*
X191293576Y-59796340D01*
X191137409Y-60030062D01*
X191132000Y-60043120D01*
X191126591Y-60030062D01*
X190970424Y-59796340D01*
X190771660Y-59597576D01*
X190537938Y-59441409D01*
X190278241Y-59333838D01*
X190002547Y-59279000D01*
X189721453Y-59279000D01*
X189445759Y-59333838D01*
X189186062Y-59441409D01*
X188952340Y-59597576D01*
X188753576Y-59796340D01*
X188597409Y-60030062D01*
X188592000Y-60043120D01*
X188586591Y-60030062D01*
X188430424Y-59796340D01*
X188231660Y-59597576D01*
X187997938Y-59441409D01*
X187738241Y-59333838D01*
X187462547Y-59279000D01*
X187272488Y-59279000D01*
X192399627Y-54151862D01*
X192428317Y-54128317D01*
X192522290Y-54013810D01*
X192592118Y-53883170D01*
X192635119Y-53741418D01*
X192646000Y-53630938D01*
X192646000Y-53630936D01*
X192649638Y-53594000D01*
X192646000Y-53557065D01*
X192646000Y-52327903D01*
X192835533Y-52201261D01*
X193041261Y-51995533D01*
X193202901Y-51753622D01*
X193314240Y-51484825D01*
X193371000Y-51199472D01*
X193371000Y-50908528D01*
X193314240Y-50623175D01*
X193202901Y-50354378D01*
X193041261Y-50112467D01*
X192835533Y-49906739D01*
X192593622Y-49745099D01*
X192324825Y-49633760D01*
X192039472Y-49577000D01*
X191748528Y-49577000D01*
X191463175Y-49633760D01*
X191194378Y-49745099D01*
X190952467Y-49906739D01*
X190746739Y-50112467D01*
X190624000Y-50296159D01*
X190501261Y-50112467D01*
X190295533Y-49906739D01*
X190053622Y-49745099D01*
X189784825Y-49633760D01*
X189499472Y-49577000D01*
X189208528Y-49577000D01*
X188923175Y-49633760D01*
X188654378Y-49745099D01*
X188412467Y-49906739D01*
X188206739Y-50112467D01*
X188084000Y-50296159D01*
X187961261Y-50112467D01*
X187755533Y-49906739D01*
X187513622Y-49745099D01*
X187244825Y-49633760D01*
X186959472Y-49577000D01*
X186668528Y-49577000D01*
X186383175Y-49633760D01*
X186114378Y-49745099D01*
X185872467Y-49906739D01*
X185666739Y-50112467D01*
X185544000Y-50296159D01*
X185421261Y-50112467D01*
X185215533Y-49906739D01*
X184973622Y-49745099D01*
X184704825Y-49633760D01*
X184419472Y-49577000D01*
X184128528Y-49577000D01*
X183843175Y-49633760D01*
X183574378Y-49745099D01*
X183332467Y-49906739D01*
X183126739Y-50112467D01*
X183004000Y-50296159D01*
X182881261Y-50112467D01*
X182675533Y-49906739D01*
X182433622Y-49745099D01*
X182164825Y-49633760D01*
X181879472Y-49577000D01*
X181588528Y-49577000D01*
X181303175Y-49633760D01*
X181034378Y-49745099D01*
X180792467Y-49906739D01*
X180586739Y-50112467D01*
X180464000Y-50296159D01*
X180341261Y-50112467D01*
X180135533Y-49906739D01*
X179893622Y-49745099D01*
X179624825Y-49633760D01*
X179339472Y-49577000D01*
X179048528Y-49577000D01*
X178763175Y-49633760D01*
X178494378Y-49745099D01*
X178252467Y-49906739D01*
X178046739Y-50112467D01*
X177924000Y-50296159D01*
X177801261Y-50112467D01*
X177595533Y-49906739D01*
X177353622Y-49745099D01*
X177084825Y-49633760D01*
X176799472Y-49577000D01*
X176508528Y-49577000D01*
X176223175Y-49633760D01*
X175954378Y-49745099D01*
X175712467Y-49906739D01*
X175571731Y-50047475D01*
X175546075Y-49962897D01*
X175487853Y-49853972D01*
X175409501Y-49758499D01*
X175314028Y-49680147D01*
X175205103Y-49621925D01*
X175086913Y-49586073D01*
X174964000Y-49573967D01*
X173264000Y-49573967D01*
X173141087Y-49586073D01*
X173022897Y-49621925D01*
X172913972Y-49680147D01*
X172818499Y-49758499D01*
X172740147Y-49853972D01*
X172681925Y-49962897D01*
X172646073Y-50081087D01*
X172633967Y-50204000D01*
X172633967Y-51904000D01*
X172646073Y-52026913D01*
X172681925Y-52145103D01*
X172740147Y-52254028D01*
X172818499Y-52349501D01*
X172913972Y-52427853D01*
X173022897Y-52486075D01*
X173141087Y-52521927D01*
X173264000Y-52534033D01*
X173362001Y-52534033D01*
X173362001Y-53282510D01*
X167328520Y-59315992D01*
X167142547Y-59279000D01*
X166861453Y-59279000D01*
X166585759Y-59333838D01*
X166326062Y-59441409D01*
X166092340Y-59597576D01*
X165893576Y-59796340D01*
X165737409Y-60030062D01*
X165629838Y-60289759D01*
X165575000Y-60565453D01*
X148902035Y-60565453D01*
X155315627Y-54151862D01*
X155344317Y-54128317D01*
X155438290Y-54013810D01*
X155508118Y-53883170D01*
X155551119Y-53741418D01*
X155562000Y-53630938D01*
X155562000Y-53630936D01*
X155565638Y-53594000D01*
X155562000Y-53557065D01*
X155562000Y-52327903D01*
X155751533Y-52201261D01*
X155957261Y-51995533D01*
X156118901Y-51753622D01*
X156230240Y-51484825D01*
X156287000Y-51199472D01*
X156287000Y-50908528D01*
X156230240Y-50623175D01*
X156118901Y-50354378D01*
X155957261Y-50112467D01*
X155751533Y-49906739D01*
X155509622Y-49745099D01*
X155240825Y-49633760D01*
X154955472Y-49577000D01*
X154664528Y-49577000D01*
X154379175Y-49633760D01*
X154110378Y-49745099D01*
X153868467Y-49906739D01*
X153662739Y-50112467D01*
X153540000Y-50296159D01*
X153417261Y-50112467D01*
X153211533Y-49906739D01*
X152969622Y-49745099D01*
X152700825Y-49633760D01*
X152415472Y-49577000D01*
X152124528Y-49577000D01*
X151839175Y-49633760D01*
X151570378Y-49745099D01*
X151328467Y-49906739D01*
X151122739Y-50112467D01*
X151000000Y-50296159D01*
X150877261Y-50112467D01*
X150671533Y-49906739D01*
X150429622Y-49745099D01*
X150160825Y-49633760D01*
X149875472Y-49577000D01*
X149584528Y-49577000D01*
X149299175Y-49633760D01*
X149030378Y-49745099D01*
X148788467Y-49906739D01*
X148582739Y-50112467D01*
X148460000Y-50296159D01*
X148337261Y-50112467D01*
X148131533Y-49906739D01*
X147889622Y-49745099D01*
X147620825Y-49633760D01*
X147335472Y-49577000D01*
X147044528Y-49577000D01*
X146759175Y-49633760D01*
X146490378Y-49745099D01*
X146248467Y-49906739D01*
X146042739Y-50112467D01*
X145920000Y-50296159D01*
X145797261Y-50112467D01*
X145591533Y-49906739D01*
X145349622Y-49745099D01*
X145080825Y-49633760D01*
X144795472Y-49577000D01*
X144504528Y-49577000D01*
X144219175Y-49633760D01*
X143950378Y-49745099D01*
X143708467Y-49906739D01*
X143502739Y-50112467D01*
X143380000Y-50296159D01*
X143257261Y-50112467D01*
X143051533Y-49906739D01*
X142809622Y-49745099D01*
X142540825Y-49633760D01*
X142255472Y-49577000D01*
X141964528Y-49577000D01*
X141679175Y-49633760D01*
X141410378Y-49745099D01*
X141168467Y-49906739D01*
X140962739Y-50112467D01*
X140840000Y-50296159D01*
X140717261Y-50112467D01*
X140511533Y-49906739D01*
X140269622Y-49745099D01*
X140000825Y-49633760D01*
X139715472Y-49577000D01*
X139424528Y-49577000D01*
X139139175Y-49633760D01*
X138870378Y-49745099D01*
X138628467Y-49906739D01*
X138422739Y-50112467D01*
X138300000Y-50296159D01*
X138177261Y-50112467D01*
X137971533Y-49906739D01*
X137729622Y-49745099D01*
X137460825Y-49633760D01*
X137175472Y-49577000D01*
X136884528Y-49577000D01*
X136599175Y-49633760D01*
X136330378Y-49745099D01*
X136088467Y-49906739D01*
X135882739Y-50112467D01*
X135760000Y-50296159D01*
X135637261Y-50112467D01*
X135431533Y-49906739D01*
X135189622Y-49745099D01*
X134920825Y-49633760D01*
X134635472Y-49577000D01*
X134344528Y-49577000D01*
X134059175Y-49633760D01*
X133790378Y-49745099D01*
X133548467Y-49906739D01*
X133342739Y-50112467D01*
X133220000Y-50296159D01*
X133097261Y-50112467D01*
X132891533Y-49906739D01*
X132649622Y-49745099D01*
X132380825Y-49633760D01*
X132095472Y-49577000D01*
X131804528Y-49577000D01*
X131519175Y-49633760D01*
X131250378Y-49745099D01*
X131008467Y-49906739D01*
X130802739Y-50112467D01*
X130680000Y-50296159D01*
X130557261Y-50112467D01*
X130351533Y-49906739D01*
X130109622Y-49745099D01*
X129840825Y-49633760D01*
X129555472Y-49577000D01*
X129264528Y-49577000D01*
X128979175Y-49633760D01*
X128710378Y-49745099D01*
X128468467Y-49906739D01*
X128262739Y-50112467D01*
X128140000Y-50296159D01*
X128017261Y-50112467D01*
X127811533Y-49906739D01*
X127569622Y-49745099D01*
X127300825Y-49633760D01*
X127015472Y-49577000D01*
X126724528Y-49577000D01*
X126439175Y-49633760D01*
X126170378Y-49745099D01*
X125928467Y-49906739D01*
X125722739Y-50112467D01*
X125600000Y-50296159D01*
X125477261Y-50112467D01*
X125271533Y-49906739D01*
X125029622Y-49745099D01*
X124760825Y-49633760D01*
X124475472Y-49577000D01*
X124184528Y-49577000D01*
X123899175Y-49633760D01*
X123630378Y-49745099D01*
X123388467Y-49906739D01*
X123182739Y-50112467D01*
X123060000Y-50296159D01*
X122937261Y-50112467D01*
X122731533Y-49906739D01*
X122489622Y-49745099D01*
X122220825Y-49633760D01*
X121935472Y-49577000D01*
X121644528Y-49577000D01*
X121359175Y-49633760D01*
X121090378Y-49745099D01*
X120848467Y-49906739D01*
X120642739Y-50112467D01*
X120520000Y-50296159D01*
X120397261Y-50112467D01*
X120191533Y-49906739D01*
X119949622Y-49745099D01*
X119680825Y-49633760D01*
X119395472Y-49577000D01*
X119104528Y-49577000D01*
X118819175Y-49633760D01*
X118550378Y-49745099D01*
X118308467Y-49906739D01*
X118167731Y-50047475D01*
X118142075Y-49962897D01*
X118083853Y-49853972D01*
X118005501Y-49758499D01*
X117910028Y-49680147D01*
X117801103Y-49621925D01*
X117682913Y-49586073D01*
X117560000Y-49573967D01*
X115860000Y-49573967D01*
X115737087Y-49586073D01*
X115618897Y-49621925D01*
X115509972Y-49680147D01*
X115414499Y-49758499D01*
X115336147Y-49853972D01*
X115277925Y-49962897D01*
X115242073Y-50081087D01*
X115229967Y-50204000D01*
X115229967Y-51904000D01*
X115242073Y-52026913D01*
X115277925Y-52145103D01*
X115336147Y-52254028D01*
X115414499Y-52349501D01*
X115509972Y-52427853D01*
X115618897Y-52486075D01*
X115737087Y-52521927D01*
X115860000Y-52534033D01*
X115958001Y-52534033D01*
X115958001Y-53282510D01*
X109924520Y-59315992D01*
X109738547Y-59279000D01*
X109457453Y-59279000D01*
X109181759Y-59333838D01*
X108922062Y-59441409D01*
X108688340Y-59597576D01*
X108489576Y-59796340D01*
X108333409Y-60030062D01*
X108225838Y-60289759D01*
X108171000Y-60565453D01*
X108171000Y-60846547D01*
X108225838Y-61122241D01*
X108333409Y-61381938D01*
X108489576Y-61615660D01*
X108688340Y-61814424D01*
X108922062Y-61970591D01*
X109181759Y-62078162D01*
X109457453Y-62133000D01*
X109738547Y-62133000D01*
X110014241Y-62078162D01*
X110273938Y-61970591D01*
X110507660Y-61814424D01*
X110706424Y-61615660D01*
X110862591Y-61381938D01*
X110868000Y-61368880D01*
X110873409Y-61381938D01*
X111029576Y-61615660D01*
X111228340Y-61814424D01*
X111462062Y-61970591D01*
X111721759Y-62078162D01*
X111997453Y-62133000D01*
X112278547Y-62133000D01*
X112554241Y-62078162D01*
X112813938Y-61970591D01*
X113047660Y-61814424D01*
X113246424Y-61615660D01*
X113402591Y-61381938D01*
X113408000Y-61368880D01*
X113413409Y-61381938D01*
X113569576Y-61615660D01*
X113768340Y-61814424D01*
X113904865Y-61905646D01*
X109092375Y-66718137D01*
X109063684Y-66741683D01*
X109040138Y-66770374D01*
X109040137Y-66770375D01*
X108969710Y-66856190D01*
X108948449Y-66895967D01*
X108798000Y-66895967D01*
X108675087Y-66908073D01*
X108556897Y-66943925D01*
X108447972Y-67002147D01*
X108352499Y-67080499D01*
X108274147Y-67175972D01*
X108215925Y-67284897D01*
X108180073Y-67403087D01*
X108167967Y-67526000D01*
X108167967Y-69126000D01*
X108180073Y-69248913D01*
X108215925Y-69367103D01*
X108274147Y-69476028D01*
X108352499Y-69571501D01*
X108447972Y-69649853D01*
X108556897Y-69708075D01*
X108675087Y-69743927D01*
X108798000Y-69756033D01*
X110398000Y-69756033D01*
X110520913Y-69743927D01*
X110639103Y-69708075D01*
X110748028Y-69649853D01*
X110843501Y-69571501D01*
X110921853Y-69476028D01*
X110980075Y-69367103D01*
X111015927Y-69248913D01*
X111018818Y-69219560D01*
X111029576Y-69235660D01*
X111228340Y-69434424D01*
X111462062Y-69590591D01*
X111721759Y-69698162D01*
X111997453Y-69753000D01*
X112278547Y-69753000D01*
X112554241Y-69698162D01*
X112813938Y-69590591D01*
X113047660Y-69434424D01*
X113246424Y-69235660D01*
X113402591Y-69001938D01*
X113408000Y-68988880D01*
X113413409Y-69001938D01*
X113569576Y-69235660D01*
X113768340Y-69434424D01*
X114002062Y-69590591D01*
X114261759Y-69698162D01*
X114537453Y-69753000D01*
X114818547Y-69753000D01*
X115094241Y-69698162D01*
X115353938Y-69590591D01*
X115587660Y-69434424D01*
X115786424Y-69235660D01*
X115942591Y-69001938D01*
X115948000Y-68988880D01*
X115953409Y-69001938D01*
X116109576Y-69235660D01*
X116308340Y-69434424D01*
X116542062Y-69590591D01*
X116801759Y-69698162D01*
X117077453Y-69753000D01*
X117358547Y-69753000D01*
X117634241Y-69698162D01*
X117893938Y-69590591D01*
X118127660Y-69434424D01*
X118326424Y-69235660D01*
X118482591Y-69001938D01*
X118488000Y-68988880D01*
X118493409Y-69001938D01*
X118649576Y-69235660D01*
X118848340Y-69434424D01*
X119082062Y-69590591D01*
X119341759Y-69698162D01*
X119617453Y-69753000D01*
X119898547Y-69753000D01*
X120174241Y-69698162D01*
X120433938Y-69590591D01*
X120667660Y-69434424D01*
X120866424Y-69235660D01*
X121022591Y-69001938D01*
X121028000Y-68988880D01*
X121033409Y-69001938D01*
X121189576Y-69235660D01*
X121388340Y-69434424D01*
X121622062Y-69590591D01*
X121881759Y-69698162D01*
X122157453Y-69753000D01*
X122438547Y-69753000D01*
X122714241Y-69698162D01*
X122973938Y-69590591D01*
X123207660Y-69434424D01*
X123406424Y-69235660D01*
X123562591Y-69001938D01*
X123568000Y-68988880D01*
X123573409Y-69001938D01*
X123729576Y-69235660D01*
X123928340Y-69434424D01*
X124162062Y-69590591D01*
X124421759Y-69698162D01*
X124697453Y-69753000D01*
X124978547Y-69753000D01*
X125254241Y-69698162D01*
X125513938Y-69590591D01*
X125747660Y-69434424D01*
X125946424Y-69235660D01*
X126102591Y-69001938D01*
X126108000Y-68988880D01*
X126113409Y-69001938D01*
X126269576Y-69235660D01*
X126468340Y-69434424D01*
X126702062Y-69590591D01*
X126961759Y-69698162D01*
X127237453Y-69753000D01*
X127518547Y-69753000D01*
X127794241Y-69698162D01*
X128053938Y-69590591D01*
X128287660Y-69434424D01*
X128486424Y-69235660D01*
X128642591Y-69001938D01*
X128648000Y-68988880D01*
X128653409Y-69001938D01*
X128809576Y-69235660D01*
X129008340Y-69434424D01*
X129242062Y-69590591D01*
X129501759Y-69698162D01*
X129777453Y-69753000D01*
X130058547Y-69753000D01*
X130334241Y-69698162D01*
X130593938Y-69590591D01*
X130827660Y-69434424D01*
X131026424Y-69235660D01*
X131182591Y-69001938D01*
X131188946Y-68986596D01*
X131305615Y-69181131D01*
X131494586Y-69389519D01*
X131720580Y-69557037D01*
X131974913Y-69677246D01*
X132108961Y-69717904D01*
X132331000Y-69595915D01*
X132331000Y-68453000D01*
X132311000Y-68453000D01*
X132311000Y-68199000D01*
X132331000Y-68199000D01*
X132331000Y-67056085D01*
X132108961Y-66934096D01*
X131974913Y-66974754D01*
X131720580Y-67094963D01*
X131494586Y-67262481D01*
X131305615Y-67470869D01*
X131188946Y-67665404D01*
X131182591Y-67650062D01*
X131026424Y-67416340D01*
X130827660Y-67217576D01*
X130593938Y-67061409D01*
X130334241Y-66953838D01*
X130058547Y-66899000D01*
X129868489Y-66899000D01*
X130853469Y-65914020D01*
X136346491Y-65914020D01*
X135324520Y-66935992D01*
X135138547Y-66899000D01*
X134857453Y-66899000D01*
X134581759Y-66953838D01*
X134322062Y-67061409D01*
X134088340Y-67217576D01*
X133889576Y-67416340D01*
X133733409Y-67650062D01*
X133727054Y-67665404D01*
X133610385Y-67470869D01*
X133421414Y-67262481D01*
X133195420Y-67094963D01*
X132941087Y-66974754D01*
X132807039Y-66934096D01*
X132585000Y-67056085D01*
X132585000Y-68199000D01*
X132605000Y-68199000D01*
X132605000Y-68453000D01*
X132585000Y-68453000D01*
X132585000Y-69595915D01*
X132636373Y-69624139D01*
X132400512Y-69860000D01*
X106133489Y-69860000D01*
X97780008Y-61506520D01*
X97817000Y-61320547D01*
X97817000Y-61039453D01*
X97762162Y-60763759D01*
X97654591Y-60504062D01*
X97498424Y-60270340D01*
X97299660Y-60071576D01*
X97065938Y-59915409D01*
X97052880Y-59910000D01*
X97065938Y-59904591D01*
X97299660Y-59748424D01*
X97498424Y-59549660D01*
X97654591Y-59315938D01*
X97762162Y-59056241D01*
X97817000Y-58780547D01*
X97817000Y-58499453D01*
X97762162Y-58223759D01*
X97654591Y-57964062D01*
X97498424Y-57730340D01*
X97299660Y-57531576D01*
X97065938Y-57375409D01*
X97052880Y-57370000D01*
X97065938Y-57364591D01*
X97299660Y-57208424D01*
X97498424Y-57009660D01*
X97654591Y-56775938D01*
X97762162Y-56516241D01*
X97817000Y-56240547D01*
X97817000Y-55959453D01*
X97762162Y-55683759D01*
X97654591Y-55424062D01*
X97498424Y-55190340D01*
X97299660Y-54991576D01*
X97065938Y-54835409D01*
X97062052Y-54833799D01*
X97131514Y-54796671D01*
X97203097Y-54552702D01*
X96390000Y-53739605D01*
X95576903Y-54552702D01*
X95648486Y-54796671D01*
X95722750Y-54831810D01*
X95714062Y-54835409D01*
X95480340Y-54991576D01*
X95281576Y-55190340D01*
X95125409Y-55424062D01*
X95017838Y-55683759D01*
X94963000Y-55959453D01*
X94963000Y-56240547D01*
X95017838Y-56516241D01*
X95125409Y-56775938D01*
X95281576Y-57009660D01*
X95480340Y-57208424D01*
X95714062Y-57364591D01*
X95727120Y-57370000D01*
X95714062Y-57375409D01*
X95480340Y-57531576D01*
X95281576Y-57730340D01*
X95125409Y-57964062D01*
X95017838Y-58223759D01*
X94963000Y-58499453D01*
X94963000Y-58780547D01*
X95017838Y-59056241D01*
X95125409Y-59315938D01*
X95281576Y-59549660D01*
X95480340Y-59748424D01*
X95714062Y-59904591D01*
X95727120Y-59910000D01*
X95714062Y-59915409D01*
X95480340Y-60071576D01*
X95281576Y-60270340D01*
X95125409Y-60504062D01*
X95017838Y-60763759D01*
X94963000Y-61039453D01*
X94963000Y-61320547D01*
X95017838Y-61596241D01*
X95125409Y-61855938D01*
X95281576Y-62089660D01*
X95480340Y-62288424D01*
X95714062Y-62444591D01*
X95727120Y-62450000D01*
X95714062Y-62455409D01*
X95480340Y-62611576D01*
X95281576Y-62810340D01*
X95125409Y-63044062D01*
X95017838Y-63303759D01*
X94963000Y-63579453D01*
X94963000Y-63860547D01*
X95017838Y-64136241D01*
X95125409Y-64395938D01*
X95281576Y-64629660D01*
X95480340Y-64828424D01*
X95714062Y-64984591D01*
X95727120Y-64990000D01*
X95714062Y-64995409D01*
X95480340Y-65151576D01*
X95281576Y-65350340D01*
X95125409Y-65584062D01*
X95017838Y-65843759D01*
X94963000Y-66119453D01*
X94963000Y-66400547D01*
X95017838Y-66676241D01*
X95125409Y-66935938D01*
X95281576Y-67169660D01*
X95480340Y-67368424D01*
X95714062Y-67524591D01*
X95727120Y-67530000D01*
X95714062Y-67535409D01*
X95480340Y-67691576D01*
X95281576Y-67890340D01*
X95125409Y-68124062D01*
X95017838Y-68383759D01*
X94963000Y-68659453D01*
X94963000Y-68940547D01*
X95017838Y-69216241D01*
X95125409Y-69475938D01*
X95281576Y-69709660D01*
X95480340Y-69908424D01*
X95714062Y-70064591D01*
X95727120Y-70070000D01*
X95714062Y-70075409D01*
X95480340Y-70231576D01*
X95281576Y-70430340D01*
X95125409Y-70664062D01*
X95017838Y-70923759D01*
X94963000Y-71199453D01*
X94963000Y-71480547D01*
X95017838Y-71756241D01*
X95125409Y-72015938D01*
X95172520Y-72086445D01*
X95097190Y-72126709D01*
X95011375Y-72197136D01*
X94982684Y-72220682D01*
X94959138Y-72249373D01*
X94360374Y-72848137D01*
X94331684Y-72871683D01*
X94308138Y-72900374D01*
X94308137Y-72900375D01*
X94237710Y-72986190D01*
X94167882Y-73116831D01*
X94124882Y-73258583D01*
X94110362Y-73406000D01*
X82498238Y-73406000D01*
X82414591Y-73204062D01*
X82258424Y-72970340D01*
X82059660Y-72771576D01*
X81825938Y-72615409D01*
X81812880Y-72610000D01*
X81825938Y-72604591D01*
X82059660Y-72448424D01*
X82258424Y-72249660D01*
X82414591Y-72015938D01*
X82522162Y-71756241D01*
X82577000Y-71480547D01*
X82577000Y-71199453D01*
X82522162Y-70923759D01*
X82414591Y-70664062D01*
X82258424Y-70430340D01*
X82059660Y-70231576D01*
X81825938Y-70075409D01*
X81812880Y-70070000D01*
X81825938Y-70064591D01*
X82059660Y-69908424D01*
X82258424Y-69709660D01*
X82414591Y-69475938D01*
X82522162Y-69216241D01*
X82577000Y-68940547D01*
X82577000Y-68659453D01*
X82522162Y-68383759D01*
X82414591Y-68124062D01*
X82258424Y-67890340D01*
X82059660Y-67691576D01*
X81825938Y-67535409D01*
X81812880Y-67530000D01*
X81825938Y-67524591D01*
X82059660Y-67368424D01*
X82258424Y-67169660D01*
X82414591Y-66935938D01*
X82522162Y-66676241D01*
X82577000Y-66400547D01*
X82577000Y-66119453D01*
X82522162Y-65843759D01*
X82414591Y-65584062D01*
X82258424Y-65350340D01*
X82059660Y-65151576D01*
X81825938Y-64995409D01*
X81812880Y-64990000D01*
X81825938Y-64984591D01*
X82059660Y-64828424D01*
X82258424Y-64629660D01*
X82414591Y-64395938D01*
X82522162Y-64136241D01*
X82577000Y-63860547D01*
X82577000Y-63579453D01*
X82522162Y-63303759D01*
X82414591Y-63044062D01*
X82258424Y-62810340D01*
X82059660Y-62611576D01*
X81825938Y-62455409D01*
X81812880Y-62450000D01*
X81825938Y-62444591D01*
X82059660Y-62288424D01*
X82258424Y-62089660D01*
X82414591Y-61855938D01*
X82522162Y-61596241D01*
X82577000Y-61320547D01*
X82577000Y-61039453D01*
X82522162Y-60763759D01*
X82414591Y-60504062D01*
X82258424Y-60270340D01*
X82059660Y-60071576D01*
X81825938Y-59915409D01*
X81822052Y-59913799D01*
X81891514Y-59876671D01*
X81963097Y-59632702D01*
X81150000Y-58819605D01*
X80336903Y-59632702D01*
X80408486Y-59876671D01*
X80482750Y-59911810D01*
X80474062Y-59915409D01*
X80240340Y-60071576D01*
X80041576Y-60270340D01*
X79885409Y-60504062D01*
X79777838Y-60763759D01*
X79723000Y-61039453D01*
X66037000Y-61039453D01*
X66037000Y-58710512D01*
X79709783Y-58710512D01*
X79751213Y-58990130D01*
X79846397Y-59256292D01*
X79913329Y-59381514D01*
X80157298Y-59453097D01*
X80970395Y-58640000D01*
X81329605Y-58640000D01*
X82142702Y-59453097D01*
X82386671Y-59381514D01*
X82507571Y-59126004D01*
X82576300Y-58851816D01*
X82590217Y-58569488D01*
X82548787Y-58289870D01*
X82453603Y-58023708D01*
X82386671Y-57898486D01*
X82142702Y-57826903D01*
X81329605Y-58640000D01*
X80970395Y-58640000D01*
X80157298Y-57826903D01*
X79913329Y-57898486D01*
X79792429Y-58153996D01*
X79723700Y-58428184D01*
X79709783Y-58710512D01*
X66037000Y-58710512D01*
X66037000Y-57092702D01*
X80336903Y-57092702D01*
X80408486Y-57336671D01*
X80474636Y-57367971D01*
X80408486Y-57403329D01*
X80336903Y-57647298D01*
X81150000Y-58460395D01*
X81963097Y-57647298D01*
X81891514Y-57403329D01*
X81825364Y-57372029D01*
X81891514Y-57336671D01*
X81963097Y-57092702D01*
X81150000Y-56279605D01*
X80336903Y-57092702D01*
X66037000Y-57092702D01*
X66037000Y-56170512D01*
X79709783Y-56170512D01*
X79751213Y-56450130D01*
X79846397Y-56716292D01*
X79913329Y-56841514D01*
X80157298Y-56913097D01*
X80970395Y-56100000D01*
X81329605Y-56100000D01*
X82142702Y-56913097D01*
X82386671Y-56841514D01*
X82507571Y-56586004D01*
X82576300Y-56311816D01*
X82590217Y-56029488D01*
X82548787Y-55749870D01*
X82453603Y-55483708D01*
X82386671Y-55358486D01*
X82142702Y-55286903D01*
X81329605Y-56100000D01*
X80970395Y-56100000D01*
X80157298Y-55286903D01*
X79913329Y-55358486D01*
X79792429Y-55613996D01*
X79723700Y-55888184D01*
X79709783Y-56170512D01*
X66037000Y-56170512D01*
X66037000Y-51755886D01*
X74393000Y-51755886D01*
X74393000Y-52224114D01*
X74484347Y-52683345D01*
X74663530Y-53115932D01*
X74923664Y-53505249D01*
X75254751Y-53836336D01*
X75644068Y-54096470D01*
X76076655Y-54275653D01*
X76535886Y-54367000D01*
X77004114Y-54367000D01*
X77463345Y-54275653D01*
X77895932Y-54096470D01*
X78285249Y-53836336D01*
X78616336Y-53505249D01*
X78876470Y-53115932D01*
X79055653Y-52683345D01*
X79147000Y-52224114D01*
X79147000Y-51755886D01*
X79055653Y-51296655D01*
X78876470Y-50864068D01*
X78616336Y-50474751D01*
X78361585Y-50220000D01*
X79719967Y-50220000D01*
X79719967Y-51820000D01*
X79732073Y-51942913D01*
X79767925Y-52061103D01*
X79826147Y-52170028D01*
X79904499Y-52265501D01*
X79999972Y-52343853D01*
X80108897Y-52402075D01*
X80227087Y-52437927D01*
X80256440Y-52440818D01*
X80240340Y-52451576D01*
X80041576Y-52650340D01*
X79885409Y-52884062D01*
X79777838Y-53143759D01*
X79723000Y-53419453D01*
X79723000Y-53700547D01*
X79777838Y-53976241D01*
X79885409Y-54235938D01*
X80041576Y-54469660D01*
X80240340Y-54668424D01*
X80474062Y-54824591D01*
X80477948Y-54826201D01*
X80408486Y-54863329D01*
X80336903Y-55107298D01*
X81150000Y-55920395D01*
X81963097Y-55107298D01*
X81891514Y-54863329D01*
X81817250Y-54828190D01*
X81825938Y-54824591D01*
X82059660Y-54668424D01*
X82258424Y-54469660D01*
X82414591Y-54235938D01*
X82522162Y-53976241D01*
X82577000Y-53700547D01*
X82577000Y-53630512D01*
X94949783Y-53630512D01*
X94991213Y-53910130D01*
X95086397Y-54176292D01*
X95153329Y-54301514D01*
X95397298Y-54373097D01*
X96210395Y-53560000D01*
X96569605Y-53560000D01*
X97382702Y-54373097D01*
X97626671Y-54301514D01*
X97747571Y-54046004D01*
X97816300Y-53771816D01*
X97830217Y-53489488D01*
X97788787Y-53209870D01*
X97693603Y-52943708D01*
X97626671Y-52818486D01*
X97382702Y-52746903D01*
X96569605Y-53560000D01*
X96210395Y-53560000D01*
X95397298Y-52746903D01*
X95153329Y-52818486D01*
X95032429Y-53073996D01*
X94963700Y-53348184D01*
X94949783Y-53630512D01*
X82577000Y-53630512D01*
X82577000Y-53419453D01*
X82522162Y-53143759D01*
X82414591Y-52884062D01*
X82258424Y-52650340D01*
X82059660Y-52451576D01*
X82043560Y-52440818D01*
X82072913Y-52437927D01*
X82191103Y-52402075D01*
X82300028Y-52343853D01*
X82395501Y-52265501D01*
X82473853Y-52170028D01*
X82532075Y-52061103D01*
X82567927Y-51942913D01*
X82580033Y-51820000D01*
X82580033Y-50879453D01*
X94963000Y-50879453D01*
X94963000Y-51160547D01*
X95017838Y-51436241D01*
X95125409Y-51695938D01*
X95281576Y-51929660D01*
X95480340Y-52128424D01*
X95714062Y-52284591D01*
X95717948Y-52286201D01*
X95648486Y-52323329D01*
X95576903Y-52567298D01*
X96390000Y-53380395D01*
X97203097Y-52567298D01*
X97131514Y-52323329D01*
X97057250Y-52288190D01*
X97065938Y-52284591D01*
X97299660Y-52128424D01*
X97498424Y-51929660D01*
X97614535Y-51755886D01*
X98393000Y-51755886D01*
X98393000Y-52224114D01*
X98484347Y-52683345D01*
X98663530Y-53115932D01*
X98923664Y-53505249D01*
X99254751Y-53836336D01*
X99644068Y-54096470D01*
X100076655Y-54275653D01*
X100535886Y-54367000D01*
X101004114Y-54367000D01*
X101463345Y-54275653D01*
X101895932Y-54096470D01*
X102285249Y-53836336D01*
X102616336Y-53505249D01*
X102876470Y-53115932D01*
X103055653Y-52683345D01*
X103147000Y-52224114D01*
X103147000Y-51755886D01*
X103055653Y-51296655D01*
X102876470Y-50864068D01*
X102616336Y-50474751D01*
X102285249Y-50143664D01*
X101895932Y-49883530D01*
X101463345Y-49704347D01*
X101004114Y-49613000D01*
X100535886Y-49613000D01*
X100076655Y-49704347D01*
X99644068Y-49883530D01*
X99254751Y-50143664D01*
X98923664Y-50474751D01*
X98663530Y-50864068D01*
X98484347Y-51296655D01*
X98393000Y-51755886D01*
X97614535Y-51755886D01*
X97654591Y-51695938D01*
X97762162Y-51436241D01*
X97817000Y-51160547D01*
X97817000Y-50879453D01*
X97762162Y-50603759D01*
X97654591Y-50344062D01*
X97498424Y-50110340D01*
X97299660Y-49911576D01*
X97065938Y-49755409D01*
X96806241Y-49647838D01*
X96530547Y-49593000D01*
X96249453Y-49593000D01*
X95973759Y-49647838D01*
X95714062Y-49755409D01*
X95480340Y-49911576D01*
X95281576Y-50110340D01*
X95125409Y-50344062D01*
X95017838Y-50603759D01*
X94963000Y-50879453D01*
X82580033Y-50879453D01*
X82580033Y-50220000D01*
X82567927Y-50097087D01*
X82532075Y-49978897D01*
X82473853Y-49869972D01*
X82395501Y-49774499D01*
X82300028Y-49696147D01*
X82191103Y-49637925D01*
X82072913Y-49602073D01*
X81950000Y-49589967D01*
X80350000Y-49589967D01*
X80227087Y-49602073D01*
X80108897Y-49637925D01*
X79999972Y-49696147D01*
X79904499Y-49774499D01*
X79826147Y-49869972D01*
X79767925Y-49978897D01*
X79732073Y-50097087D01*
X79719967Y-50220000D01*
X78361585Y-50220000D01*
X78285249Y-50143664D01*
X77895932Y-49883530D01*
X77463345Y-49704347D01*
X77004114Y-49613000D01*
X76535886Y-49613000D01*
X76076655Y-49704347D01*
X75644068Y-49883530D01*
X75254751Y-50143664D01*
X74923664Y-50474751D01*
X74663530Y-50864068D01*
X74484347Y-51296655D01*
X74393000Y-51755886D01*
X66037000Y-51755886D01*
X66037000Y-48133000D01*
X214119000Y-48133000D01*
X214119000Y-83947000D01*
G37*
X214119000Y-83947000D02*
X66037000Y-83947000D01*
X66037000Y-81647453D01*
X179291000Y-81647453D01*
X179291000Y-81928547D01*
X179345838Y-82204241D01*
X179453409Y-82463938D01*
X179609576Y-82697660D01*
X179808340Y-82896424D01*
X180042062Y-83052591D01*
X180301759Y-83160162D01*
X180577453Y-83215000D01*
X180858547Y-83215000D01*
X181134241Y-83160162D01*
X181393938Y-83052591D01*
X181627660Y-82896424D01*
X181826424Y-82697660D01*
X181982591Y-82463938D01*
X182090162Y-82204241D01*
X182145000Y-81928547D01*
X182145000Y-81647453D01*
X182090162Y-81371759D01*
X181982591Y-81112062D01*
X181826424Y-80878340D01*
X181627660Y-80679576D01*
X181393938Y-80523409D01*
X181134241Y-80415838D01*
X180858547Y-80361000D01*
X180577453Y-80361000D01*
X180301759Y-80415838D01*
X180042062Y-80523409D01*
X179808340Y-80679576D01*
X179609576Y-80878340D01*
X179453409Y-81112062D01*
X179345838Y-81371759D01*
X179291000Y-81647453D01*
X66037000Y-81647453D01*
X66037000Y-71731263D01*
X67143000Y-71731263D01*
X67143000Y-72248737D01*
X67243954Y-72756268D01*
X67441983Y-73234351D01*
X67729476Y-73664615D01*
X68095385Y-74030524D01*
X68525649Y-74318017D01*
X69003732Y-74516046D01*
X69511263Y-74617000D01*
X70028737Y-74617000D01*
X70536268Y-74516046D01*
X71014351Y-74318017D01*
X71444615Y-74030524D01*
X71810524Y-73664615D01*
X72098017Y-73234351D01*
X72296046Y-72756268D01*
X72397000Y-72248737D01*
X72397000Y-71731263D01*
X72296046Y-71223732D01*
X72098017Y-70745649D01*
X71810524Y-70315385D01*
X71444615Y-69949476D01*
X71014351Y-69661983D01*
X70536268Y-69463954D01*
X70028737Y-69363000D01*
X69511263Y-69363000D01*
X69003732Y-69463954D01*
X68525649Y-69661983D01*
X68095385Y-69949476D01*
X67729476Y-70315385D01*
X67441983Y-70745649D01*
X67243954Y-71223732D01*
X67143000Y-71731263D01*
X66037000Y-71731263D01*
X66037000Y-61039453D01*
X79723000Y-61039453D01*
X79723000Y-61320547D01*
X79777838Y-61596241D01*
X79885409Y-61855938D01*
X80041576Y-62089660D01*
X80240340Y-62288424D01*
X80474062Y-62444591D01*
X80487120Y-62450000D01*
X80474062Y-62455409D01*
X80240340Y-62611576D01*
X80041576Y-62810340D01*
X79885409Y-63044062D01*
X79777838Y-63303759D01*
X79723000Y-63579453D01*
X79723000Y-63860547D01*
X79777838Y-64136241D01*
X79885409Y-64395938D01*
X80041576Y-64629660D01*
X80240340Y-64828424D01*
X80474062Y-64984591D01*
X80487120Y-64990000D01*
X80474062Y-64995409D01*
X80240340Y-65151576D01*
X80041576Y-65350340D01*
X79885409Y-65584062D01*
X79777838Y-65843759D01*
X79723000Y-66119453D01*
X79723000Y-66400547D01*
X79777838Y-66676241D01*
X79885409Y-66935938D01*
X80041576Y-67169660D01*
X80240340Y-67368424D01*
X80474062Y-67524591D01*
X80487120Y-67530000D01*
X80474062Y-67535409D01*
X80240340Y-67691576D01*
X80041576Y-67890340D01*
X79885409Y-68124062D01*
X79777838Y-68383759D01*
X79723000Y-68659453D01*
X79723000Y-68940547D01*
X79777838Y-69216241D01*
X79885409Y-69475938D01*
X80041576Y-69709660D01*
X80240340Y-69908424D01*
X80474062Y-70064591D01*
X80487120Y-70070000D01*
X80474062Y-70075409D01*
X80240340Y-70231576D01*
X80041576Y-70430340D01*
X79885409Y-70664062D01*
X79777838Y-70923759D01*
X79723000Y-71199453D01*
X79723000Y-71480547D01*
X79777838Y-71756241D01*
X79885409Y-72015938D01*
X80041576Y-72249660D01*
X80240340Y-72448424D01*
X80474062Y-72604591D01*
X80487120Y-72610000D01*
X80474062Y-72615409D01*
X80240340Y-72771576D01*
X80041576Y-72970340D01*
X79885409Y-73204062D01*
X79777838Y-73463759D01*
X79723000Y-73739453D01*
X79723000Y-74020547D01*
X79777838Y-74296241D01*
X79885409Y-74555938D01*
X80041576Y-74789660D01*
X80240340Y-74988424D01*
X80474062Y-75144591D01*
X80487120Y-75150000D01*
X80474062Y-75155409D01*
X80240340Y-75311576D01*
X80041576Y-75510340D01*
X79885409Y-75744062D01*
X79777838Y-76003759D01*
X79723000Y-76279453D01*
X79723000Y-76560547D01*
X79777838Y-76836241D01*
X79885409Y-77095938D01*
X80041576Y-77329660D01*
X80240340Y-77528424D01*
X80474062Y-77684591D01*
X80487120Y-77690000D01*
X80474062Y-77695409D01*
X80240340Y-77851576D01*
X80041576Y-78050340D01*
X79885409Y-78284062D01*
X79777838Y-78543759D01*
X79723000Y-78819453D01*
X79723000Y-79100547D01*
X79777838Y-79376241D01*
X79885409Y-79635938D01*
X80041576Y-79869660D01*
X80240340Y-80068424D01*
X80474062Y-80224591D01*
X80733759Y-80332162D01*
X81009453Y-80387000D01*
X81290547Y-80387000D01*
X81566241Y-80332162D01*
X81825938Y-80224591D01*
X82059660Y-80068424D01*
X82258424Y-79869660D01*
X82414591Y-79635938D01*
X82522162Y-79376241D01*
X82577000Y-79100547D01*
X82577000Y-78819453D01*
X82522162Y-78543759D01*
X82414591Y-78284062D01*
X82258424Y-78050340D01*
X82059660Y-77851576D01*
X81825938Y-77695409D01*
X81812880Y-77690000D01*
X81825938Y-77684591D01*
X82059660Y-77528424D01*
X82258424Y-77329660D01*
X82414591Y-77095938D01*
X82522162Y-76836241D01*
X82577000Y-76560547D01*
X82577000Y-76279453D01*
X82522162Y-76003759D01*
X82414591Y-75744062D01*
X82258424Y-75510340D01*
X82059660Y-75311576D01*
X81825938Y-75155409D01*
X81812880Y-75150000D01*
X81825938Y-75144591D01*
X82059660Y-74988424D01*
X82258424Y-74789660D01*
X82414591Y-74555938D01*
X82522162Y-74296241D01*
X82577000Y-74020547D01*
X82577000Y-73739453D01*
X82522162Y-73463759D01*
X82498238Y-73406000D01*
X94110362Y-73406000D01*
X94114001Y-73442945D01*
X94114000Y-74893064D01*
X94110362Y-74930000D01*
X94114000Y-74966935D01*
X94114000Y-74966937D01*
X94124881Y-75077417D01*
X94162125Y-75200191D01*
X94167882Y-75219169D01*
X94237710Y-75349810D01*
X94278583Y-75399614D01*
X94331683Y-75464317D01*
X94360379Y-75487867D01*
X94994351Y-76121840D01*
X94963000Y-76279453D01*
X94963000Y-76560547D01*
X95017838Y-76836241D01*
X95125409Y-77095938D01*
X95281576Y-77329660D01*
X95480340Y-77528424D01*
X95714062Y-77684591D01*
X95727120Y-77690000D01*
X95714062Y-77695409D01*
X95480340Y-77851576D01*
X95281576Y-78050340D01*
X95125409Y-78284062D01*
X95017838Y-78543759D01*
X94963000Y-78819453D01*
X94963000Y-79100547D01*
X95017838Y-79376241D01*
X95125409Y-79635938D01*
X95281576Y-79869660D01*
X95480340Y-80068424D01*
X95714062Y-80224591D01*
X95973759Y-80332162D01*
X96249453Y-80387000D01*
X96530547Y-80387000D01*
X96806241Y-80332162D01*
X97065938Y-80224591D01*
X97299660Y-80068424D01*
X97498424Y-79869660D01*
X97654591Y-79635938D01*
X97762162Y-79376241D01*
X97817000Y-79100547D01*
X97817000Y-78819453D01*
X97762162Y-78543759D01*
X97680021Y-78345453D01*
X179291000Y-78345453D01*
X179291000Y-78626547D01*
X179345838Y-78902241D01*
X179453409Y-79161938D01*
X179609576Y-79395660D01*
X179808340Y-79594424D01*
X180042062Y-79750591D01*
X180301759Y-79858162D01*
X180577453Y-79913000D01*
X180858547Y-79913000D01*
X181134241Y-79858162D01*
X181393938Y-79750591D01*
X181627660Y-79594424D01*
X181826424Y-79395660D01*
X181982591Y-79161938D01*
X182090162Y-78902241D01*
X182145000Y-78626547D01*
X182145000Y-78345453D01*
X182090162Y-78069759D01*
X181982591Y-77810062D01*
X181826424Y-77576340D01*
X181627660Y-77377576D01*
X181393938Y-77221409D01*
X181134241Y-77113838D01*
X180858547Y-77059000D01*
X180577453Y-77059000D01*
X180301759Y-77113838D01*
X180042062Y-77221409D01*
X179808340Y-77377576D01*
X179609576Y-77576340D01*
X179453409Y-77810062D01*
X179345838Y-78069759D01*
X179291000Y-78345453D01*
X97680021Y-78345453D01*
X97654591Y-78284062D01*
X97498424Y-78050340D01*
X97299660Y-77851576D01*
X97065938Y-77695409D01*
X97052880Y-77690000D01*
X97065938Y-77684591D01*
X97299660Y-77528424D01*
X97498424Y-77329660D01*
X97654591Y-77095938D01*
X97762162Y-76836241D01*
X97817000Y-76560547D01*
X97817000Y-76279453D01*
X97762162Y-76003759D01*
X97654591Y-75744062D01*
X97498424Y-75510340D01*
X97299660Y-75311576D01*
X97065938Y-75155409D01*
X97052880Y-75150000D01*
X97065938Y-75144591D01*
X97217302Y-75043453D01*
X179291000Y-75043453D01*
X179291000Y-75324547D01*
X179345838Y-75600241D01*
X179453409Y-75859938D01*
X179609576Y-76093660D01*
X179808340Y-76292424D01*
X180042062Y-76448591D01*
X180301759Y-76556162D01*
X180577453Y-76611000D01*
X180858547Y-76611000D01*
X181134241Y-76556162D01*
X181393938Y-76448591D01*
X181627660Y-76292424D01*
X181826424Y-76093660D01*
X181982591Y-75859938D01*
X182090162Y-75600241D01*
X182145000Y-75324547D01*
X182145000Y-75043453D01*
X182090162Y-74767759D01*
X181982591Y-74508062D01*
X181826424Y-74274340D01*
X181627660Y-74075576D01*
X181393938Y-73919409D01*
X181134241Y-73811838D01*
X180858547Y-73757000D01*
X180577453Y-73757000D01*
X180301759Y-73811838D01*
X180042062Y-73919409D01*
X179808340Y-74075576D01*
X179609576Y-74274340D01*
X179453409Y-74508062D01*
X179345838Y-74767759D01*
X179291000Y-75043453D01*
X97217302Y-75043453D01*
X97299660Y-74988424D01*
X97498424Y-74789660D01*
X97603768Y-74632000D01*
X98419065Y-74632000D01*
X98456000Y-74635638D01*
X98492935Y-74632000D01*
X98492938Y-74632000D01*
X98603418Y-74621119D01*
X98745170Y-74578118D01*
X98875810Y-74508290D01*
X98990317Y-74414317D01*
X99013867Y-74385621D01*
X99749488Y-73650000D01*
X138009065Y-73650000D01*
X138046000Y-73653638D01*
X138082935Y-73650000D01*
X195299514Y-73650000D01*
X194517514Y-74432000D01*
X192091768Y-74432000D01*
X191986424Y-74274340D01*
X191787660Y-74075576D01*
X191553938Y-73919409D01*
X191294241Y-73811838D01*
X191018547Y-73757000D01*
X190737453Y-73757000D01*
X190461759Y-73811838D01*
X190202062Y-73919409D01*
X189968340Y-74075576D01*
X189769576Y-74274340D01*
X189613409Y-74508062D01*
X189505838Y-74767759D01*
X189451000Y-75043453D01*
X189451000Y-75324547D01*
X189505838Y-75600241D01*
X189613409Y-75859938D01*
X189769576Y-76093660D01*
X189968340Y-76292424D01*
X190202062Y-76448591D01*
X190461759Y-76556162D01*
X190737453Y-76611000D01*
X191018547Y-76611000D01*
X191294241Y-76556162D01*
X191553938Y-76448591D01*
X191787660Y-76292424D01*
X191986424Y-76093660D01*
X192091768Y-75936000D01*
X193649924Y-75936000D01*
X191995701Y-77590223D01*
X191986424Y-77576340D01*
X191787660Y-77377576D01*
X191553938Y-77221409D01*
X191294241Y-77113838D01*
X191018547Y-77059000D01*
X190737453Y-77059000D01*
X190461759Y-77113838D01*
X190202062Y-77221409D01*
X189968340Y-77377576D01*
X189769576Y-77576340D01*
X189613409Y-77810062D01*
X189505838Y-78069759D01*
X189451000Y-78345453D01*
X189451000Y-78626547D01*
X189505838Y-78902241D01*
X189613409Y-79161938D01*
X189769576Y-79395660D01*
X189968340Y-79594424D01*
X190202062Y-79750591D01*
X190461759Y-79858162D01*
X190472261Y-79860251D01*
X190372375Y-79960137D01*
X190343684Y-79983683D01*
X190320138Y-80012374D01*
X190320137Y-80012375D01*
X190249710Y-80098190D01*
X190179882Y-80228831D01*
X190136882Y-80370583D01*
X190122362Y-80518000D01*
X190126001Y-80554945D01*
X190126001Y-80574231D01*
X189968340Y-80679576D01*
X189769576Y-80878340D01*
X189613409Y-81112062D01*
X189505838Y-81371759D01*
X189451000Y-81647453D01*
X189451000Y-81928547D01*
X189505838Y-82204241D01*
X189613409Y-82463938D01*
X189769576Y-82697660D01*
X189968340Y-82896424D01*
X190202062Y-83052591D01*
X190461759Y-83160162D01*
X190737453Y-83215000D01*
X191018547Y-83215000D01*
X191294241Y-83160162D01*
X191553938Y-83052591D01*
X191787660Y-82896424D01*
X191986424Y-82697660D01*
X192142591Y-82463938D01*
X192250162Y-82204241D01*
X192305000Y-81928547D01*
X192305000Y-81647453D01*
X192250162Y-81371759D01*
X192142591Y-81112062D01*
X191986424Y-80878340D01*
X191787660Y-80679576D01*
X191783015Y-80676473D01*
X192728225Y-79731263D01*
X207143000Y-79731263D01*
X207143000Y-80248737D01*
X207243954Y-80756268D01*
X207441983Y-81234351D01*
X207729476Y-81664615D01*
X208095385Y-82030524D01*
X208525649Y-82318017D01*
X209003732Y-82516046D01*
X209511263Y-82617000D01*
X210028737Y-82617000D01*
X210536268Y-82516046D01*
X211014351Y-82318017D01*
X211444615Y-82030524D01*
X211810524Y-81664615D01*
X212098017Y-81234351D01*
X212296046Y-80756268D01*
X212397000Y-80248737D01*
X212397000Y-79731263D01*
X212296046Y-79223732D01*
X212098017Y-78745649D01*
X211810524Y-78315385D01*
X211444615Y-77949476D01*
X211014351Y-77661983D01*
X210536268Y-77463954D01*
X210028737Y-77363000D01*
X209511263Y-77363000D01*
X209003732Y-77463954D01*
X208525649Y-77661983D01*
X208095385Y-77949476D01*
X207729476Y-78315385D01*
X207441983Y-78745649D01*
X207243954Y-79223732D01*
X207143000Y-79731263D01*
X192728225Y-79731263D01*
X211645637Y-60813852D01*
X211674327Y-60790307D01*
X211736089Y-60715050D01*
X211768300Y-60675801D01*
X211830953Y-60558583D01*
X211838128Y-60545160D01*
X211881129Y-60403408D01*
X211892010Y-60292928D01*
X211892010Y-60292926D01*
X211895648Y-60255991D01*
X211892010Y-60219055D01*
X211892010Y-52106945D01*
X211895648Y-52070009D01*
X211891403Y-52026913D01*
X211881129Y-51922592D01*
X211838128Y-51780840D01*
X211792747Y-51695938D01*
X211768300Y-51650199D01*
X211697873Y-51564384D01*
X211674327Y-51535693D01*
X211645636Y-51512147D01*
X210427867Y-50294379D01*
X210404317Y-50265683D01*
X210289810Y-50171710D01*
X210250033Y-50150449D01*
X210250033Y-49950000D01*
X210237927Y-49827087D01*
X210202075Y-49708897D01*
X210143853Y-49599972D01*
X210065501Y-49504499D01*
X209970028Y-49426147D01*
X209861103Y-49367925D01*
X209742913Y-49332073D01*
X209620000Y-49319967D01*
X207920000Y-49319967D01*
X207797087Y-49332073D01*
X207678897Y-49367925D01*
X207569972Y-49426147D01*
X207474499Y-49504499D01*
X207396147Y-49599972D01*
X207337925Y-49708897D01*
X207302073Y-49827087D01*
X207289967Y-49950000D01*
X207289967Y-51650000D01*
X207302073Y-51772913D01*
X207337925Y-51891103D01*
X207396147Y-52000028D01*
X207474499Y-52095501D01*
X207569972Y-52173853D01*
X207678897Y-52232075D01*
X207763475Y-52257731D01*
X207622739Y-52398467D01*
X207461099Y-52640378D01*
X207349760Y-52909175D01*
X207293000Y-53194528D01*
X207293000Y-53485472D01*
X207349760Y-53770825D01*
X207461099Y-54039622D01*
X207622739Y-54281533D01*
X207828467Y-54487261D01*
X208012159Y-54610000D01*
X207828467Y-54732739D01*
X207622739Y-54938467D01*
X207461099Y-55180378D01*
X207349760Y-55449175D01*
X207293000Y-55734528D01*
X207293000Y-56025472D01*
X207337471Y-56249041D01*
X203632512Y-59954000D01*
X201235768Y-59954000D01*
X201130424Y-59796340D01*
X200931660Y-59597576D01*
X200697938Y-59441409D01*
X200438241Y-59333838D01*
X200162547Y-59279000D01*
X199881453Y-59279000D01*
X199605759Y-59333838D01*
X199346062Y-59441409D01*
X199112340Y-59597576D01*
X198913576Y-59796340D01*
X198757409Y-60030062D01*
X198751054Y-60045404D01*
X198634385Y-59850869D01*
X198445414Y-59642481D01*
X198219420Y-59474963D01*
X197965087Y-59354754D01*
X197831039Y-59314096D01*
X197609000Y-59436085D01*
X197609000Y-60579000D01*
X197629000Y-60579000D01*
X197629000Y-60833000D01*
X197609000Y-60833000D01*
X197609000Y-61975915D01*
X197831039Y-62097904D01*
X197965087Y-62057246D01*
X198219420Y-61937037D01*
X198445414Y-61769519D01*
X198634385Y-61561131D01*
X198751054Y-61366596D01*
X198757409Y-61381938D01*
X198913576Y-61615660D01*
X199112340Y-61814424D01*
X199346062Y-61970591D01*
X199605759Y-62078162D01*
X199881453Y-62133000D01*
X200162547Y-62133000D01*
X200438241Y-62078162D01*
X200697938Y-61970591D01*
X200931660Y-61814424D01*
X201130424Y-61615660D01*
X201235768Y-61458000D01*
X203907065Y-61458000D01*
X203944000Y-61461638D01*
X203980935Y-61458000D01*
X203980938Y-61458000D01*
X204091418Y-61447119D01*
X204233170Y-61404118D01*
X204363810Y-61334290D01*
X204478317Y-61240317D01*
X204501867Y-61211621D01*
X207293000Y-58420488D01*
X207293000Y-58565472D01*
X207349760Y-58850825D01*
X207461099Y-59119622D01*
X207622739Y-59361533D01*
X207828467Y-59567261D01*
X208018001Y-59693904D01*
X208018000Y-60931513D01*
X201290358Y-67659156D01*
X201286591Y-67650062D01*
X201130424Y-67416340D01*
X200931660Y-67217576D01*
X200697938Y-67061409D01*
X200438241Y-66953838D01*
X200162547Y-66899000D01*
X199881453Y-66899000D01*
X199605759Y-66953838D01*
X199346062Y-67061409D01*
X199112340Y-67217576D01*
X198913576Y-67416340D01*
X198757409Y-67650062D01*
X198752000Y-67663120D01*
X198746591Y-67650062D01*
X198590424Y-67416340D01*
X198391660Y-67217576D01*
X198157938Y-67061409D01*
X197898241Y-66953838D01*
X197622547Y-66899000D01*
X197341453Y-66899000D01*
X197065759Y-66953838D01*
X196806062Y-67061409D01*
X196572340Y-67217576D01*
X196373576Y-67416340D01*
X196217409Y-67650062D01*
X196212000Y-67663120D01*
X196206591Y-67650062D01*
X196050424Y-67416340D01*
X195851660Y-67217576D01*
X195617938Y-67061409D01*
X195358241Y-66953838D01*
X195082547Y-66899000D01*
X194801453Y-66899000D01*
X194525759Y-66953838D01*
X194266062Y-67061409D01*
X194032340Y-67217576D01*
X193833576Y-67416340D01*
X193677409Y-67650062D01*
X193672000Y-67663120D01*
X193666591Y-67650062D01*
X193510424Y-67416340D01*
X193311660Y-67217576D01*
X193077938Y-67061409D01*
X192818241Y-66953838D01*
X192542547Y-66899000D01*
X192261453Y-66899000D01*
X191985759Y-66953838D01*
X191726062Y-67061409D01*
X191492340Y-67217576D01*
X191293576Y-67416340D01*
X191137409Y-67650062D01*
X191131054Y-67665404D01*
X191014385Y-67470869D01*
X190825414Y-67262481D01*
X190599420Y-67094963D01*
X190345087Y-66974754D01*
X190211039Y-66934096D01*
X189989000Y-67056085D01*
X189989000Y-68199000D01*
X190009000Y-68199000D01*
X190009000Y-68453000D01*
X189989000Y-68453000D01*
X189989000Y-69595915D01*
X190040373Y-69624139D01*
X189804512Y-69860000D01*
X150549489Y-69860000D01*
X148992191Y-68302702D01*
X152218903Y-68302702D01*
X152290486Y-68546671D01*
X152545996Y-68667571D01*
X152820184Y-68736300D01*
X153102512Y-68750217D01*
X153382130Y-68708787D01*
X153648292Y-68613603D01*
X153773514Y-68546671D01*
X153845097Y-68302702D01*
X157552903Y-68302702D01*
X157624486Y-68546671D01*
X157879996Y-68667571D01*
X158154184Y-68736300D01*
X158436512Y-68750217D01*
X158716130Y-68708787D01*
X158982292Y-68613603D01*
X159107514Y-68546671D01*
X159179097Y-68302702D01*
X158366000Y-67489605D01*
X157552903Y-68302702D01*
X153845097Y-68302702D01*
X153032000Y-67489605D01*
X152218903Y-68302702D01*
X148992191Y-68302702D01*
X148070001Y-67380512D01*
X151591783Y-67380512D01*
X151633213Y-67660130D01*
X151728397Y-67926292D01*
X151795329Y-68051514D01*
X152039298Y-68123097D01*
X152852395Y-67310000D01*
X153211605Y-67310000D01*
X154024702Y-68123097D01*
X154268671Y-68051514D01*
X154389571Y-67796004D01*
X154458300Y-67521816D01*
X154465265Y-67380512D01*
X156925783Y-67380512D01*
X156967213Y-67660130D01*
X157062397Y-67926292D01*
X157129329Y-68051514D01*
X157373298Y-68123097D01*
X158186395Y-67310000D01*
X158545605Y-67310000D01*
X159358702Y-68123097D01*
X159602671Y-68051514D01*
X159723571Y-67796004D01*
X159791251Y-67526000D01*
X165571967Y-67526000D01*
X165571967Y-69126000D01*
X165584073Y-69248913D01*
X165619925Y-69367103D01*
X165678147Y-69476028D01*
X165756499Y-69571501D01*
X165851972Y-69649853D01*
X165960897Y-69708075D01*
X166079087Y-69743927D01*
X166202000Y-69756033D01*
X167802000Y-69756033D01*
X167924913Y-69743927D01*
X168043103Y-69708075D01*
X168152028Y-69649853D01*
X168247501Y-69571501D01*
X168325853Y-69476028D01*
X168384075Y-69367103D01*
X168419927Y-69248913D01*
X168422818Y-69219560D01*
X168433576Y-69235660D01*
X168632340Y-69434424D01*
X168866062Y-69590591D01*
X169125759Y-69698162D01*
X169401453Y-69753000D01*
X169682547Y-69753000D01*
X169958241Y-69698162D01*
X170217938Y-69590591D01*
X170451660Y-69434424D01*
X170650424Y-69235660D01*
X170806591Y-69001938D01*
X170812000Y-68988880D01*
X170817409Y-69001938D01*
X170973576Y-69235660D01*
X171172340Y-69434424D01*
X171406062Y-69590591D01*
X171665759Y-69698162D01*
X171941453Y-69753000D01*
X172222547Y-69753000D01*
X172498241Y-69698162D01*
X172757938Y-69590591D01*
X172991660Y-69434424D01*
X173190424Y-69235660D01*
X173346591Y-69001938D01*
X173352000Y-68988880D01*
X173357409Y-69001938D01*
X173513576Y-69235660D01*
X173712340Y-69434424D01*
X173946062Y-69590591D01*
X174205759Y-69698162D01*
X174481453Y-69753000D01*
X174762547Y-69753000D01*
X175038241Y-69698162D01*
X175297938Y-69590591D01*
X175531660Y-69434424D01*
X175730424Y-69235660D01*
X175886591Y-69001938D01*
X175892000Y-68988880D01*
X175897409Y-69001938D01*
X176053576Y-69235660D01*
X176252340Y-69434424D01*
X176486062Y-69590591D01*
X176745759Y-69698162D01*
X177021453Y-69753000D01*
X177302547Y-69753000D01*
X177578241Y-69698162D01*
X177837938Y-69590591D01*
X178071660Y-69434424D01*
X178270424Y-69235660D01*
X178426591Y-69001938D01*
X178432000Y-68988880D01*
X178437409Y-69001938D01*
X178593576Y-69235660D01*
X178792340Y-69434424D01*
X179026062Y-69590591D01*
X179285759Y-69698162D01*
X179561453Y-69753000D01*
X179842547Y-69753000D01*
X180118241Y-69698162D01*
X180377938Y-69590591D01*
X180611660Y-69434424D01*
X180810424Y-69235660D01*
X180966591Y-69001938D01*
X180972000Y-68988880D01*
X180977409Y-69001938D01*
X181133576Y-69235660D01*
X181332340Y-69434424D01*
X181566062Y-69590591D01*
X181825759Y-69698162D01*
X182101453Y-69753000D01*
X182382547Y-69753000D01*
X182658241Y-69698162D01*
X182917938Y-69590591D01*
X183151660Y-69434424D01*
X183350424Y-69235660D01*
X183506591Y-69001938D01*
X183512000Y-68988880D01*
X183517409Y-69001938D01*
X183673576Y-69235660D01*
X183872340Y-69434424D01*
X184106062Y-69590591D01*
X184365759Y-69698162D01*
X184641453Y-69753000D01*
X184922547Y-69753000D01*
X185198241Y-69698162D01*
X185457938Y-69590591D01*
X185691660Y-69434424D01*
X185890424Y-69235660D01*
X186046591Y-69001938D01*
X186052000Y-68988880D01*
X186057409Y-69001938D01*
X186213576Y-69235660D01*
X186412340Y-69434424D01*
X186646062Y-69590591D01*
X186905759Y-69698162D01*
X187181453Y-69753000D01*
X187462547Y-69753000D01*
X187738241Y-69698162D01*
X187997938Y-69590591D01*
X188231660Y-69434424D01*
X188430424Y-69235660D01*
X188586591Y-69001938D01*
X188592946Y-68986596D01*
X188709615Y-69181131D01*
X188898586Y-69389519D01*
X189124580Y-69557037D01*
X189378913Y-69677246D01*
X189512961Y-69717904D01*
X189735000Y-69595915D01*
X189735000Y-68453000D01*
X189715000Y-68453000D01*
X189715000Y-68199000D01*
X189735000Y-68199000D01*
X189735000Y-67056085D01*
X189512961Y-66934096D01*
X189378913Y-66974754D01*
X189124580Y-67094963D01*
X188898586Y-67262481D01*
X188709615Y-67470869D01*
X188592946Y-67665404D01*
X188586591Y-67650062D01*
X188430424Y-67416340D01*
X188231660Y-67217576D01*
X187997938Y-67061409D01*
X187738241Y-66953838D01*
X187462547Y-66899000D01*
X187181453Y-66899000D01*
X186905759Y-66953838D01*
X186646062Y-67061409D01*
X186412340Y-67217576D01*
X186213576Y-67416340D01*
X186057409Y-67650062D01*
X186052000Y-67663120D01*
X186046591Y-67650062D01*
X185890424Y-67416340D01*
X185691660Y-67217576D01*
X185457938Y-67061409D01*
X185198241Y-66953838D01*
X184922547Y-66899000D01*
X184641453Y-66899000D01*
X184365759Y-66953838D01*
X184106062Y-67061409D01*
X183872340Y-67217576D01*
X183673576Y-67416340D01*
X183517409Y-67650062D01*
X183512000Y-67663120D01*
X183506591Y-67650062D01*
X183350424Y-67416340D01*
X183151660Y-67217576D01*
X182917938Y-67061409D01*
X182658241Y-66953838D01*
X182382547Y-66899000D01*
X182101453Y-66899000D01*
X181825759Y-66953838D01*
X181566062Y-67061409D01*
X181332340Y-67217576D01*
X181133576Y-67416340D01*
X180977409Y-67650062D01*
X180972000Y-67663120D01*
X180966591Y-67650062D01*
X180810424Y-67416340D01*
X180611660Y-67217576D01*
X180377938Y-67061409D01*
X180118241Y-66953838D01*
X179842547Y-66899000D01*
X179561453Y-66899000D01*
X179285759Y-66953838D01*
X179026062Y-67061409D01*
X178792340Y-67217576D01*
X178593576Y-67416340D01*
X178437409Y-67650062D01*
X178432000Y-67663120D01*
X178426591Y-67650062D01*
X178270424Y-67416340D01*
X178071660Y-67217576D01*
X177837938Y-67061409D01*
X177578241Y-66953838D01*
X177302547Y-66899000D01*
X177021453Y-66899000D01*
X176745759Y-66953838D01*
X176486062Y-67061409D01*
X176252340Y-67217576D01*
X176053576Y-67416340D01*
X175897409Y-67650062D01*
X175892000Y-67663120D01*
X175886591Y-67650062D01*
X175730424Y-67416340D01*
X175531660Y-67217576D01*
X175297938Y-67061409D01*
X175038241Y-66953838D01*
X174762547Y-66899000D01*
X174481453Y-66899000D01*
X174205759Y-66953838D01*
X173946062Y-67061409D01*
X173712340Y-67217576D01*
X173513576Y-67416340D01*
X173357409Y-67650062D01*
X173352000Y-67663120D01*
X173346591Y-67650062D01*
X173190424Y-67416340D01*
X172991660Y-67217576D01*
X172757938Y-67061409D01*
X172498241Y-66953838D01*
X172222547Y-66899000D01*
X171941453Y-66899000D01*
X171665759Y-66953838D01*
X171406062Y-67061409D01*
X171172340Y-67217576D01*
X170973576Y-67416340D01*
X170817409Y-67650062D01*
X170812000Y-67663120D01*
X170806591Y-67650062D01*
X170650424Y-67416340D01*
X170451660Y-67217576D01*
X170217938Y-67061409D01*
X169958241Y-66953838D01*
X169682547Y-66899000D01*
X169401453Y-66899000D01*
X169125759Y-66953838D01*
X168866062Y-67061409D01*
X168632340Y-67217576D01*
X168433576Y-67416340D01*
X168422818Y-67432440D01*
X168419927Y-67403087D01*
X168384075Y-67284897D01*
X168325853Y-67175972D01*
X168247501Y-67080499D01*
X168152028Y-67002147D01*
X168043103Y-66943925D01*
X167924913Y-66908073D01*
X167802000Y-66895967D01*
X166202000Y-66895967D01*
X166079087Y-66908073D01*
X165960897Y-66943925D01*
X165851972Y-67002147D01*
X165756499Y-67080499D01*
X165678147Y-67175972D01*
X165619925Y-67284897D01*
X165584073Y-67403087D01*
X165571967Y-67526000D01*
X159791251Y-67526000D01*
X159792300Y-67521816D01*
X159806217Y-67239488D01*
X159764787Y-66959870D01*
X159669603Y-66693708D01*
X159602671Y-66568486D01*
X159358702Y-66496903D01*
X158545605Y-67310000D01*
X158186395Y-67310000D01*
X157373298Y-66496903D01*
X157129329Y-66568486D01*
X157008429Y-66823996D01*
X156939700Y-67098184D01*
X156925783Y-67380512D01*
X154465265Y-67380512D01*
X154472217Y-67239488D01*
X154430787Y-66959870D01*
X154335603Y-66693708D01*
X154268671Y-66568486D01*
X154024702Y-66496903D01*
X153211605Y-67310000D01*
X152852395Y-67310000D01*
X152039298Y-66496903D01*
X151795329Y-66568486D01*
X151674429Y-66823996D01*
X151605700Y-67098184D01*
X151591783Y-67380512D01*
X148070001Y-67380512D01*
X147006787Y-66317298D01*
X152218903Y-66317298D01*
X153032000Y-67130395D01*
X153845097Y-66317298D01*
X157552903Y-66317298D01*
X158366000Y-67130395D01*
X159179097Y-66317298D01*
X159107514Y-66073329D01*
X158852004Y-65952429D01*
X158577816Y-65883700D01*
X158295488Y-65869783D01*
X158015870Y-65911213D01*
X157749708Y-66006397D01*
X157624486Y-66073329D01*
X157552903Y-66317298D01*
X153845097Y-66317298D01*
X153773514Y-66073329D01*
X153518004Y-65952429D01*
X153243816Y-65883700D01*
X152961488Y-65869783D01*
X152681870Y-65911213D01*
X152415708Y-66006397D01*
X152290486Y-66073329D01*
X152218903Y-66317298D01*
X147006787Y-66317298D01*
X146484846Y-65795358D01*
X146461296Y-65766662D01*
X146346789Y-65672689D01*
X146216149Y-65602861D01*
X146074397Y-65559860D01*
X145963917Y-65548979D01*
X145963914Y-65548979D01*
X145926979Y-65545341D01*
X145890044Y-65548979D01*
X143918509Y-65548979D01*
X147298035Y-62169453D01*
X151605000Y-62169453D01*
X151605000Y-62450547D01*
X151659838Y-62726241D01*
X151767409Y-62985938D01*
X151923576Y-63219660D01*
X152122340Y-63418424D01*
X152356062Y-63574591D01*
X152615759Y-63682162D01*
X152891453Y-63737000D01*
X153172547Y-63737000D01*
X153448241Y-63682162D01*
X153707938Y-63574591D01*
X153941660Y-63418424D01*
X154140424Y-63219660D01*
X154296591Y-62985938D01*
X154404162Y-62726241D01*
X154459000Y-62450547D01*
X154459000Y-62169453D01*
X156939000Y-62169453D01*
X156939000Y-62450547D01*
X156993838Y-62726241D01*
X157101409Y-62985938D01*
X157257576Y-63219660D01*
X157456340Y-63418424D01*
X157690062Y-63574591D01*
X157949759Y-63682162D01*
X158225453Y-63737000D01*
X158506547Y-63737000D01*
X158782241Y-63682162D01*
X159041938Y-63574591D01*
X159275660Y-63418424D01*
X159474424Y-63219660D01*
X159630591Y-62985938D01*
X159738162Y-62726241D01*
X159793000Y-62450547D01*
X159793000Y-62169453D01*
X159738162Y-61893759D01*
X159630591Y-61634062D01*
X159474424Y-61400340D01*
X159275660Y-61201576D01*
X159041938Y-61045409D01*
X158782241Y-60937838D01*
X158506547Y-60883000D01*
X158225453Y-60883000D01*
X157949759Y-60937838D01*
X157690062Y-61045409D01*
X157456340Y-61201576D01*
X157257576Y-61400340D01*
X157101409Y-61634062D01*
X156993838Y-61893759D01*
X156939000Y-62169453D01*
X154459000Y-62169453D01*
X154404162Y-61893759D01*
X154296591Y-61634062D01*
X154140424Y-61400340D01*
X153941660Y-61201576D01*
X153707938Y-61045409D01*
X153448241Y-60937838D01*
X153172547Y-60883000D01*
X152891453Y-60883000D01*
X152615759Y-60937838D01*
X152356062Y-61045409D01*
X152122340Y-61201576D01*
X151923576Y-61400340D01*
X151767409Y-61634062D01*
X151659838Y-61893759D01*
X151605000Y-62169453D01*
X147298035Y-62169453D01*
X148902035Y-60565453D01*
X165575000Y-60565453D01*
X165575000Y-60846547D01*
X165629838Y-61122241D01*
X165737409Y-61381938D01*
X165893576Y-61615660D01*
X166092340Y-61814424D01*
X166326062Y-61970591D01*
X166585759Y-62078162D01*
X166861453Y-62133000D01*
X167142547Y-62133000D01*
X167418241Y-62078162D01*
X167677938Y-61970591D01*
X167911660Y-61814424D01*
X168110424Y-61615660D01*
X168266591Y-61381938D01*
X168272000Y-61368880D01*
X168277409Y-61381938D01*
X168433576Y-61615660D01*
X168632340Y-61814424D01*
X168866062Y-61970591D01*
X169125759Y-62078162D01*
X169401453Y-62133000D01*
X169682547Y-62133000D01*
X169958241Y-62078162D01*
X170217938Y-61970591D01*
X170451660Y-61814424D01*
X170650424Y-61615660D01*
X170806591Y-61381938D01*
X170812000Y-61368880D01*
X170817409Y-61381938D01*
X170973576Y-61615660D01*
X171172340Y-61814424D01*
X171406062Y-61970591D01*
X171665759Y-62078162D01*
X171941453Y-62133000D01*
X172222547Y-62133000D01*
X172498241Y-62078162D01*
X172757938Y-61970591D01*
X172991660Y-61814424D01*
X173190424Y-61615660D01*
X173346591Y-61381938D01*
X173352000Y-61368880D01*
X173357409Y-61381938D01*
X173513576Y-61615660D01*
X173712340Y-61814424D01*
X173946062Y-61970591D01*
X174205759Y-62078162D01*
X174481453Y-62133000D01*
X174762547Y-62133000D01*
X175038241Y-62078162D01*
X175297938Y-61970591D01*
X175531660Y-61814424D01*
X175730424Y-61615660D01*
X175886591Y-61381938D01*
X175892000Y-61368880D01*
X175897409Y-61381938D01*
X176053576Y-61615660D01*
X176252340Y-61814424D01*
X176486062Y-61970591D01*
X176745759Y-62078162D01*
X177021453Y-62133000D01*
X177302547Y-62133000D01*
X177578241Y-62078162D01*
X177837938Y-61970591D01*
X178071660Y-61814424D01*
X178270424Y-61615660D01*
X178426591Y-61381938D01*
X178432000Y-61368880D01*
X178437409Y-61381938D01*
X178593576Y-61615660D01*
X178792340Y-61814424D01*
X179026062Y-61970591D01*
X179285759Y-62078162D01*
X179561453Y-62133000D01*
X179842547Y-62133000D01*
X180118241Y-62078162D01*
X180377938Y-61970591D01*
X180611660Y-61814424D01*
X180810424Y-61615660D01*
X180966591Y-61381938D01*
X180972000Y-61368880D01*
X180977409Y-61381938D01*
X181133576Y-61615660D01*
X181332340Y-61814424D01*
X181566062Y-61970591D01*
X181825759Y-62078162D01*
X182101453Y-62133000D01*
X182382547Y-62133000D01*
X182658241Y-62078162D01*
X182917938Y-61970591D01*
X183151660Y-61814424D01*
X183350424Y-61615660D01*
X183506591Y-61381938D01*
X183512000Y-61368880D01*
X183517409Y-61381938D01*
X183673576Y-61615660D01*
X183872340Y-61814424D01*
X184106062Y-61970591D01*
X184365759Y-62078162D01*
X184641453Y-62133000D01*
X184922547Y-62133000D01*
X185198241Y-62078162D01*
X185457938Y-61970591D01*
X185691660Y-61814424D01*
X185890424Y-61615660D01*
X186046591Y-61381938D01*
X186052000Y-61368880D01*
X186057409Y-61381938D01*
X186213576Y-61615660D01*
X186412340Y-61814424D01*
X186646062Y-61970591D01*
X186905759Y-62078162D01*
X187181453Y-62133000D01*
X187462547Y-62133000D01*
X187738241Y-62078162D01*
X187997938Y-61970591D01*
X188231660Y-61814424D01*
X188430424Y-61615660D01*
X188586591Y-61381938D01*
X188592000Y-61368880D01*
X188597409Y-61381938D01*
X188753576Y-61615660D01*
X188952340Y-61814424D01*
X189186062Y-61970591D01*
X189445759Y-62078162D01*
X189721453Y-62133000D01*
X190002547Y-62133000D01*
X190278241Y-62078162D01*
X190537938Y-61970591D01*
X190771660Y-61814424D01*
X190970424Y-61615660D01*
X191126591Y-61381938D01*
X191132000Y-61368880D01*
X191137409Y-61381938D01*
X191293576Y-61615660D01*
X191492340Y-61814424D01*
X191726062Y-61970591D01*
X191985759Y-62078162D01*
X192261453Y-62133000D01*
X192542547Y-62133000D01*
X192818241Y-62078162D01*
X193077938Y-61970591D01*
X193311660Y-61814424D01*
X193510424Y-61615660D01*
X193666591Y-61381938D01*
X193672946Y-61366596D01*
X193789615Y-61561131D01*
X193978586Y-61769519D01*
X194204580Y-61937037D01*
X194458913Y-62057246D01*
X194592961Y-62097904D01*
X194815000Y-61975915D01*
X194815000Y-60833000D01*
X195069000Y-60833000D01*
X195069000Y-61975915D01*
X195291039Y-62097904D01*
X195425087Y-62057246D01*
X195679420Y-61937037D01*
X195905414Y-61769519D01*
X196094385Y-61561131D01*
X196212000Y-61365018D01*
X196329615Y-61561131D01*
X196518586Y-61769519D01*
X196744580Y-61937037D01*
X196998913Y-62057246D01*
X197132961Y-62097904D01*
X197355000Y-61975915D01*
X197355000Y-60833000D01*
X195069000Y-60833000D01*
X194815000Y-60833000D01*
X194795000Y-60833000D01*
X194795000Y-60579000D01*
X194815000Y-60579000D01*
X194815000Y-59436085D01*
X195069000Y-59436085D01*
X195069000Y-60579000D01*
X197355000Y-60579000D01*
X197355000Y-59436085D01*
X197132961Y-59314096D01*
X196998913Y-59354754D01*
X196744580Y-59474963D01*
X196518586Y-59642481D01*
X196329615Y-59850869D01*
X196212000Y-60046982D01*
X196094385Y-59850869D01*
X195905414Y-59642481D01*
X195679420Y-59474963D01*
X195425087Y-59354754D01*
X195291039Y-59314096D01*
X195069000Y-59436085D01*
X194815000Y-59436085D01*
X194592961Y-59314096D01*
X194458913Y-59354754D01*
X194204580Y-59474963D01*
X193978586Y-59642481D01*
X193789615Y-59850869D01*
X193672946Y-60045404D01*
X193666591Y-60030062D01*
X193510424Y-59796340D01*
X193311660Y-59597576D01*
X193077938Y-59441409D01*
X192818241Y-59333838D01*
X192542547Y-59279000D01*
X192261453Y-59279000D01*
X191985759Y-59333838D01*
X191726062Y-59441409D01*
X191492340Y-59597576D01*
X191293576Y-59796340D01*
X191137409Y-60030062D01*
X191132000Y-60043120D01*
X191126591Y-60030062D01*
X190970424Y-59796340D01*
X190771660Y-59597576D01*
X190537938Y-59441409D01*
X190278241Y-59333838D01*
X190002547Y-59279000D01*
X189721453Y-59279000D01*
X189445759Y-59333838D01*
X189186062Y-59441409D01*
X188952340Y-59597576D01*
X188753576Y-59796340D01*
X188597409Y-60030062D01*
X188592000Y-60043120D01*
X188586591Y-60030062D01*
X188430424Y-59796340D01*
X188231660Y-59597576D01*
X187997938Y-59441409D01*
X187738241Y-59333838D01*
X187462547Y-59279000D01*
X187272488Y-59279000D01*
X192399627Y-54151862D01*
X192428317Y-54128317D01*
X192522290Y-54013810D01*
X192592118Y-53883170D01*
X192635119Y-53741418D01*
X192646000Y-53630938D01*
X192646000Y-53630936D01*
X192649638Y-53594000D01*
X192646000Y-53557065D01*
X192646000Y-52327903D01*
X192835533Y-52201261D01*
X193041261Y-51995533D01*
X193202901Y-51753622D01*
X193314240Y-51484825D01*
X193371000Y-51199472D01*
X193371000Y-50908528D01*
X193314240Y-50623175D01*
X193202901Y-50354378D01*
X193041261Y-50112467D01*
X192835533Y-49906739D01*
X192593622Y-49745099D01*
X192324825Y-49633760D01*
X192039472Y-49577000D01*
X191748528Y-49577000D01*
X191463175Y-49633760D01*
X191194378Y-49745099D01*
X190952467Y-49906739D01*
X190746739Y-50112467D01*
X190624000Y-50296159D01*
X190501261Y-50112467D01*
X190295533Y-49906739D01*
X190053622Y-49745099D01*
X189784825Y-49633760D01*
X189499472Y-49577000D01*
X189208528Y-49577000D01*
X188923175Y-49633760D01*
X188654378Y-49745099D01*
X188412467Y-49906739D01*
X188206739Y-50112467D01*
X188084000Y-50296159D01*
X187961261Y-50112467D01*
X187755533Y-49906739D01*
X187513622Y-49745099D01*
X187244825Y-49633760D01*
X186959472Y-49577000D01*
X186668528Y-49577000D01*
X186383175Y-49633760D01*
X186114378Y-49745099D01*
X185872467Y-49906739D01*
X185666739Y-50112467D01*
X185544000Y-50296159D01*
X185421261Y-50112467D01*
X185215533Y-49906739D01*
X184973622Y-49745099D01*
X184704825Y-49633760D01*
X184419472Y-49577000D01*
X184128528Y-49577000D01*
X183843175Y-49633760D01*
X183574378Y-49745099D01*
X183332467Y-49906739D01*
X183126739Y-50112467D01*
X183004000Y-50296159D01*
X182881261Y-50112467D01*
X182675533Y-49906739D01*
X182433622Y-49745099D01*
X182164825Y-49633760D01*
X181879472Y-49577000D01*
X181588528Y-49577000D01*
X181303175Y-49633760D01*
X181034378Y-49745099D01*
X180792467Y-49906739D01*
X180586739Y-50112467D01*
X180464000Y-50296159D01*
X180341261Y-50112467D01*
X180135533Y-49906739D01*
X179893622Y-49745099D01*
X179624825Y-49633760D01*
X179339472Y-49577000D01*
X179048528Y-49577000D01*
X178763175Y-49633760D01*
X178494378Y-49745099D01*
X178252467Y-49906739D01*
X178046739Y-50112467D01*
X177924000Y-50296159D01*
X177801261Y-50112467D01*
X177595533Y-49906739D01*
X177353622Y-49745099D01*
X177084825Y-49633760D01*
X176799472Y-49577000D01*
X176508528Y-49577000D01*
X176223175Y-49633760D01*
X175954378Y-49745099D01*
X175712467Y-49906739D01*
X175571731Y-50047475D01*
X175546075Y-49962897D01*
X175487853Y-49853972D01*
X175409501Y-49758499D01*
X175314028Y-49680147D01*
X175205103Y-49621925D01*
X175086913Y-49586073D01*
X174964000Y-49573967D01*
X173264000Y-49573967D01*
X173141087Y-49586073D01*
X173022897Y-49621925D01*
X172913972Y-49680147D01*
X172818499Y-49758499D01*
X172740147Y-49853972D01*
X172681925Y-49962897D01*
X172646073Y-50081087D01*
X172633967Y-50204000D01*
X172633967Y-51904000D01*
X172646073Y-52026913D01*
X172681925Y-52145103D01*
X172740147Y-52254028D01*
X172818499Y-52349501D01*
X172913972Y-52427853D01*
X173022897Y-52486075D01*
X173141087Y-52521927D01*
X173264000Y-52534033D01*
X173362001Y-52534033D01*
X173362001Y-53282510D01*
X167328520Y-59315992D01*
X167142547Y-59279000D01*
X166861453Y-59279000D01*
X166585759Y-59333838D01*
X166326062Y-59441409D01*
X166092340Y-59597576D01*
X165893576Y-59796340D01*
X165737409Y-60030062D01*
X165629838Y-60289759D01*
X165575000Y-60565453D01*
X148902035Y-60565453D01*
X155315627Y-54151862D01*
X155344317Y-54128317D01*
X155438290Y-54013810D01*
X155508118Y-53883170D01*
X155551119Y-53741418D01*
X155562000Y-53630938D01*
X155562000Y-53630936D01*
X155565638Y-53594000D01*
X155562000Y-53557065D01*
X155562000Y-52327903D01*
X155751533Y-52201261D01*
X155957261Y-51995533D01*
X156118901Y-51753622D01*
X156230240Y-51484825D01*
X156287000Y-51199472D01*
X156287000Y-50908528D01*
X156230240Y-50623175D01*
X156118901Y-50354378D01*
X155957261Y-50112467D01*
X155751533Y-49906739D01*
X155509622Y-49745099D01*
X155240825Y-49633760D01*
X154955472Y-49577000D01*
X154664528Y-49577000D01*
X154379175Y-49633760D01*
X154110378Y-49745099D01*
X153868467Y-49906739D01*
X153662739Y-50112467D01*
X153540000Y-50296159D01*
X153417261Y-50112467D01*
X153211533Y-49906739D01*
X152969622Y-49745099D01*
X152700825Y-49633760D01*
X152415472Y-49577000D01*
X152124528Y-49577000D01*
X151839175Y-49633760D01*
X151570378Y-49745099D01*
X151328467Y-49906739D01*
X151122739Y-50112467D01*
X151000000Y-50296159D01*
X150877261Y-50112467D01*
X150671533Y-49906739D01*
X150429622Y-49745099D01*
X150160825Y-49633760D01*
X149875472Y-49577000D01*
X149584528Y-49577000D01*
X149299175Y-49633760D01*
X149030378Y-49745099D01*
X148788467Y-49906739D01*
X148582739Y-50112467D01*
X148460000Y-50296159D01*
X148337261Y-50112467D01*
X148131533Y-49906739D01*
X147889622Y-49745099D01*
X147620825Y-49633760D01*
X147335472Y-49577000D01*
X147044528Y-49577000D01*
X146759175Y-49633760D01*
X146490378Y-49745099D01*
X146248467Y-49906739D01*
X146042739Y-50112467D01*
X145920000Y-50296159D01*
X145797261Y-50112467D01*
X145591533Y-49906739D01*
X145349622Y-49745099D01*
X145080825Y-49633760D01*
X144795472Y-49577000D01*
X144504528Y-49577000D01*
X144219175Y-49633760D01*
X143950378Y-49745099D01*
X143708467Y-49906739D01*
X143502739Y-50112467D01*
X143380000Y-50296159D01*
X143257261Y-50112467D01*
X143051533Y-49906739D01*
X142809622Y-49745099D01*
X142540825Y-49633760D01*
X142255472Y-49577000D01*
X141964528Y-49577000D01*
X141679175Y-49633760D01*
X141410378Y-49745099D01*
X141168467Y-49906739D01*
X140962739Y-50112467D01*
X140840000Y-50296159D01*
X140717261Y-50112467D01*
X140511533Y-49906739D01*
X140269622Y-49745099D01*
X140000825Y-49633760D01*
X139715472Y-49577000D01*
X139424528Y-49577000D01*
X139139175Y-49633760D01*
X138870378Y-49745099D01*
X138628467Y-49906739D01*
X138422739Y-50112467D01*
X138300000Y-50296159D01*
X138177261Y-50112467D01*
X137971533Y-49906739D01*
X137729622Y-49745099D01*
X137460825Y-49633760D01*
X137175472Y-49577000D01*
X136884528Y-49577000D01*
X136599175Y-49633760D01*
X136330378Y-49745099D01*
X136088467Y-49906739D01*
X135882739Y-50112467D01*
X135760000Y-50296159D01*
X135637261Y-50112467D01*
X135431533Y-49906739D01*
X135189622Y-49745099D01*
X134920825Y-49633760D01*
X134635472Y-49577000D01*
X134344528Y-49577000D01*
X134059175Y-49633760D01*
X133790378Y-49745099D01*
X133548467Y-49906739D01*
X133342739Y-50112467D01*
X133220000Y-50296159D01*
X133097261Y-50112467D01*
X132891533Y-49906739D01*
X132649622Y-49745099D01*
X132380825Y-49633760D01*
X132095472Y-49577000D01*
X131804528Y-49577000D01*
X131519175Y-49633760D01*
X131250378Y-49745099D01*
X131008467Y-49906739D01*
X130802739Y-50112467D01*
X130680000Y-50296159D01*
X130557261Y-50112467D01*
X130351533Y-49906739D01*
X130109622Y-49745099D01*
X129840825Y-49633760D01*
X129555472Y-49577000D01*
X129264528Y-49577000D01*
X128979175Y-49633760D01*
X128710378Y-49745099D01*
X128468467Y-49906739D01*
X128262739Y-50112467D01*
X128140000Y-50296159D01*
X128017261Y-50112467D01*
X127811533Y-49906739D01*
X127569622Y-49745099D01*
X127300825Y-49633760D01*
X127015472Y-49577000D01*
X126724528Y-49577000D01*
X126439175Y-49633760D01*
X126170378Y-49745099D01*
X125928467Y-49906739D01*
X125722739Y-50112467D01*
X125600000Y-50296159D01*
X125477261Y-50112467D01*
X125271533Y-49906739D01*
X125029622Y-49745099D01*
X124760825Y-49633760D01*
X124475472Y-49577000D01*
X124184528Y-49577000D01*
X123899175Y-49633760D01*
X123630378Y-49745099D01*
X123388467Y-49906739D01*
X123182739Y-50112467D01*
X123060000Y-50296159D01*
X122937261Y-50112467D01*
X122731533Y-49906739D01*
X122489622Y-49745099D01*
X122220825Y-49633760D01*
X121935472Y-49577000D01*
X121644528Y-49577000D01*
X121359175Y-49633760D01*
X121090378Y-49745099D01*
X120848467Y-49906739D01*
X120642739Y-50112467D01*
X120520000Y-50296159D01*
X120397261Y-50112467D01*
X120191533Y-49906739D01*
X119949622Y-49745099D01*
X119680825Y-49633760D01*
X119395472Y-49577000D01*
X119104528Y-49577000D01*
X118819175Y-49633760D01*
X118550378Y-49745099D01*
X118308467Y-49906739D01*
X118167731Y-50047475D01*
X118142075Y-49962897D01*
X118083853Y-49853972D01*
X118005501Y-49758499D01*
X117910028Y-49680147D01*
X117801103Y-49621925D01*
X117682913Y-49586073D01*
X117560000Y-49573967D01*
X115860000Y-49573967D01*
X115737087Y-49586073D01*
X115618897Y-49621925D01*
X115509972Y-49680147D01*
X115414499Y-49758499D01*
X115336147Y-49853972D01*
X115277925Y-49962897D01*
X115242073Y-50081087D01*
X115229967Y-50204000D01*
X115229967Y-51904000D01*
X115242073Y-52026913D01*
X115277925Y-52145103D01*
X115336147Y-52254028D01*
X115414499Y-52349501D01*
X115509972Y-52427853D01*
X115618897Y-52486075D01*
X115737087Y-52521927D01*
X115860000Y-52534033D01*
X115958001Y-52534033D01*
X115958001Y-53282510D01*
X109924520Y-59315992D01*
X109738547Y-59279000D01*
X109457453Y-59279000D01*
X109181759Y-59333838D01*
X108922062Y-59441409D01*
X108688340Y-59597576D01*
X108489576Y-59796340D01*
X108333409Y-60030062D01*
X108225838Y-60289759D01*
X108171000Y-60565453D01*
X108171000Y-60846547D01*
X108225838Y-61122241D01*
X108333409Y-61381938D01*
X108489576Y-61615660D01*
X108688340Y-61814424D01*
X108922062Y-61970591D01*
X109181759Y-62078162D01*
X109457453Y-62133000D01*
X109738547Y-62133000D01*
X110014241Y-62078162D01*
X110273938Y-61970591D01*
X110507660Y-61814424D01*
X110706424Y-61615660D01*
X110862591Y-61381938D01*
X110868000Y-61368880D01*
X110873409Y-61381938D01*
X111029576Y-61615660D01*
X111228340Y-61814424D01*
X111462062Y-61970591D01*
X111721759Y-62078162D01*
X111997453Y-62133000D01*
X112278547Y-62133000D01*
X112554241Y-62078162D01*
X112813938Y-61970591D01*
X113047660Y-61814424D01*
X113246424Y-61615660D01*
X113402591Y-61381938D01*
X113408000Y-61368880D01*
X113413409Y-61381938D01*
X113569576Y-61615660D01*
X113768340Y-61814424D01*
X113904865Y-61905646D01*
X109092375Y-66718137D01*
X109063684Y-66741683D01*
X109040138Y-66770374D01*
X109040137Y-66770375D01*
X108969710Y-66856190D01*
X108948449Y-66895967D01*
X108798000Y-66895967D01*
X108675087Y-66908073D01*
X108556897Y-66943925D01*
X108447972Y-67002147D01*
X108352499Y-67080499D01*
X108274147Y-67175972D01*
X108215925Y-67284897D01*
X108180073Y-67403087D01*
X108167967Y-67526000D01*
X108167967Y-69126000D01*
X108180073Y-69248913D01*
X108215925Y-69367103D01*
X108274147Y-69476028D01*
X108352499Y-69571501D01*
X108447972Y-69649853D01*
X108556897Y-69708075D01*
X108675087Y-69743927D01*
X108798000Y-69756033D01*
X110398000Y-69756033D01*
X110520913Y-69743927D01*
X110639103Y-69708075D01*
X110748028Y-69649853D01*
X110843501Y-69571501D01*
X110921853Y-69476028D01*
X110980075Y-69367103D01*
X111015927Y-69248913D01*
X111018818Y-69219560D01*
X111029576Y-69235660D01*
X111228340Y-69434424D01*
X111462062Y-69590591D01*
X111721759Y-69698162D01*
X111997453Y-69753000D01*
X112278547Y-69753000D01*
X112554241Y-69698162D01*
X112813938Y-69590591D01*
X113047660Y-69434424D01*
X113246424Y-69235660D01*
X113402591Y-69001938D01*
X113408000Y-68988880D01*
X113413409Y-69001938D01*
X113569576Y-69235660D01*
X113768340Y-69434424D01*
X114002062Y-69590591D01*
X114261759Y-69698162D01*
X114537453Y-69753000D01*
X114818547Y-69753000D01*
X115094241Y-69698162D01*
X115353938Y-69590591D01*
X115587660Y-69434424D01*
X115786424Y-69235660D01*
X115942591Y-69001938D01*
X115948000Y-68988880D01*
X115953409Y-69001938D01*
X116109576Y-69235660D01*
X116308340Y-69434424D01*
X116542062Y-69590591D01*
X116801759Y-69698162D01*
X117077453Y-69753000D01*
X117358547Y-69753000D01*
X117634241Y-69698162D01*
X117893938Y-69590591D01*
X118127660Y-69434424D01*
X118326424Y-69235660D01*
X118482591Y-69001938D01*
X118488000Y-68988880D01*
X118493409Y-69001938D01*
X118649576Y-69235660D01*
X118848340Y-69434424D01*
X119082062Y-69590591D01*
X119341759Y-69698162D01*
X119617453Y-69753000D01*
X119898547Y-69753000D01*
X120174241Y-69698162D01*
X120433938Y-69590591D01*
X120667660Y-69434424D01*
X120866424Y-69235660D01*
X121022591Y-69001938D01*
X121028000Y-68988880D01*
X121033409Y-69001938D01*
X121189576Y-69235660D01*
X121388340Y-69434424D01*
X121622062Y-69590591D01*
X121881759Y-69698162D01*
X122157453Y-69753000D01*
X122438547Y-69753000D01*
X122714241Y-69698162D01*
X122973938Y-69590591D01*
X123207660Y-69434424D01*
X123406424Y-69235660D01*
X123562591Y-69001938D01*
X123568000Y-68988880D01*
X123573409Y-69001938D01*
X123729576Y-69235660D01*
X123928340Y-69434424D01*
X124162062Y-69590591D01*
X124421759Y-69698162D01*
X124697453Y-69753000D01*
X124978547Y-69753000D01*
X125254241Y-69698162D01*
X125513938Y-69590591D01*
X125747660Y-69434424D01*
X125946424Y-69235660D01*
X126102591Y-69001938D01*
X126108000Y-68988880D01*
X126113409Y-69001938D01*
X126269576Y-69235660D01*
X126468340Y-69434424D01*
X126702062Y-69590591D01*
X126961759Y-69698162D01*
X127237453Y-69753000D01*
X127518547Y-69753000D01*
X127794241Y-69698162D01*
X128053938Y-69590591D01*
X128287660Y-69434424D01*
X128486424Y-69235660D01*
X128642591Y-69001938D01*
X128648000Y-68988880D01*
X128653409Y-69001938D01*
X128809576Y-69235660D01*
X129008340Y-69434424D01*
X129242062Y-69590591D01*
X129501759Y-69698162D01*
X129777453Y-69753000D01*
X130058547Y-69753000D01*
X130334241Y-69698162D01*
X130593938Y-69590591D01*
X130827660Y-69434424D01*
X131026424Y-69235660D01*
X131182591Y-69001938D01*
X131188946Y-68986596D01*
X131305615Y-69181131D01*
X131494586Y-69389519D01*
X131720580Y-69557037D01*
X131974913Y-69677246D01*
X132108961Y-69717904D01*
X132331000Y-69595915D01*
X132331000Y-68453000D01*
X132311000Y-68453000D01*
X132311000Y-68199000D01*
X132331000Y-68199000D01*
X132331000Y-67056085D01*
X132108961Y-66934096D01*
X131974913Y-66974754D01*
X131720580Y-67094963D01*
X131494586Y-67262481D01*
X131305615Y-67470869D01*
X131188946Y-67665404D01*
X131182591Y-67650062D01*
X131026424Y-67416340D01*
X130827660Y-67217576D01*
X130593938Y-67061409D01*
X130334241Y-66953838D01*
X130058547Y-66899000D01*
X129868489Y-66899000D01*
X130853469Y-65914020D01*
X136346491Y-65914020D01*
X135324520Y-66935992D01*
X135138547Y-66899000D01*
X134857453Y-66899000D01*
X134581759Y-66953838D01*
X134322062Y-67061409D01*
X134088340Y-67217576D01*
X133889576Y-67416340D01*
X133733409Y-67650062D01*
X133727054Y-67665404D01*
X133610385Y-67470869D01*
X133421414Y-67262481D01*
X133195420Y-67094963D01*
X132941087Y-66974754D01*
X132807039Y-66934096D01*
X132585000Y-67056085D01*
X132585000Y-68199000D01*
X132605000Y-68199000D01*
X132605000Y-68453000D01*
X132585000Y-68453000D01*
X132585000Y-69595915D01*
X132636373Y-69624139D01*
X132400512Y-69860000D01*
X106133489Y-69860000D01*
X97780008Y-61506520D01*
X97817000Y-61320547D01*
X97817000Y-61039453D01*
X97762162Y-60763759D01*
X97654591Y-60504062D01*
X97498424Y-60270340D01*
X97299660Y-60071576D01*
X97065938Y-59915409D01*
X97052880Y-59910000D01*
X97065938Y-59904591D01*
X97299660Y-59748424D01*
X97498424Y-59549660D01*
X97654591Y-59315938D01*
X97762162Y-59056241D01*
X97817000Y-58780547D01*
X97817000Y-58499453D01*
X97762162Y-58223759D01*
X97654591Y-57964062D01*
X97498424Y-57730340D01*
X97299660Y-57531576D01*
X97065938Y-57375409D01*
X97052880Y-57370000D01*
X97065938Y-57364591D01*
X97299660Y-57208424D01*
X97498424Y-57009660D01*
X97654591Y-56775938D01*
X97762162Y-56516241D01*
X97817000Y-56240547D01*
X97817000Y-55959453D01*
X97762162Y-55683759D01*
X97654591Y-55424062D01*
X97498424Y-55190340D01*
X97299660Y-54991576D01*
X97065938Y-54835409D01*
X97062052Y-54833799D01*
X97131514Y-54796671D01*
X97203097Y-54552702D01*
X96390000Y-53739605D01*
X95576903Y-54552702D01*
X95648486Y-54796671D01*
X95722750Y-54831810D01*
X95714062Y-54835409D01*
X95480340Y-54991576D01*
X95281576Y-55190340D01*
X95125409Y-55424062D01*
X95017838Y-55683759D01*
X94963000Y-55959453D01*
X94963000Y-56240547D01*
X95017838Y-56516241D01*
X95125409Y-56775938D01*
X95281576Y-57009660D01*
X95480340Y-57208424D01*
X95714062Y-57364591D01*
X95727120Y-57370000D01*
X95714062Y-57375409D01*
X95480340Y-57531576D01*
X95281576Y-57730340D01*
X95125409Y-57964062D01*
X95017838Y-58223759D01*
X94963000Y-58499453D01*
X94963000Y-58780547D01*
X95017838Y-59056241D01*
X95125409Y-59315938D01*
X95281576Y-59549660D01*
X95480340Y-59748424D01*
X95714062Y-59904591D01*
X95727120Y-59910000D01*
X95714062Y-59915409D01*
X95480340Y-60071576D01*
X95281576Y-60270340D01*
X95125409Y-60504062D01*
X95017838Y-60763759D01*
X94963000Y-61039453D01*
X94963000Y-61320547D01*
X95017838Y-61596241D01*
X95125409Y-61855938D01*
X95281576Y-62089660D01*
X95480340Y-62288424D01*
X95714062Y-62444591D01*
X95727120Y-62450000D01*
X95714062Y-62455409D01*
X95480340Y-62611576D01*
X95281576Y-62810340D01*
X95125409Y-63044062D01*
X95017838Y-63303759D01*
X94963000Y-63579453D01*
X94963000Y-63860547D01*
X95017838Y-64136241D01*
X95125409Y-64395938D01*
X95281576Y-64629660D01*
X95480340Y-64828424D01*
X95714062Y-64984591D01*
X95727120Y-64990000D01*
X95714062Y-64995409D01*
X95480340Y-65151576D01*
X95281576Y-65350340D01*
X95125409Y-65584062D01*
X95017838Y-65843759D01*
X94963000Y-66119453D01*
X94963000Y-66400547D01*
X95017838Y-66676241D01*
X95125409Y-66935938D01*
X95281576Y-67169660D01*
X95480340Y-67368424D01*
X95714062Y-67524591D01*
X95727120Y-67530000D01*
X95714062Y-67535409D01*
X95480340Y-67691576D01*
X95281576Y-67890340D01*
X95125409Y-68124062D01*
X95017838Y-68383759D01*
X94963000Y-68659453D01*
X94963000Y-68940547D01*
X95017838Y-69216241D01*
X95125409Y-69475938D01*
X95281576Y-69709660D01*
X95480340Y-69908424D01*
X95714062Y-70064591D01*
X95727120Y-70070000D01*
X95714062Y-70075409D01*
X95480340Y-70231576D01*
X95281576Y-70430340D01*
X95125409Y-70664062D01*
X95017838Y-70923759D01*
X94963000Y-71199453D01*
X94963000Y-71480547D01*
X95017838Y-71756241D01*
X95125409Y-72015938D01*
X95172520Y-72086445D01*
X95097190Y-72126709D01*
X95011375Y-72197136D01*
X94982684Y-72220682D01*
X94959138Y-72249373D01*
X94360374Y-72848137D01*
X94331684Y-72871683D01*
X94308138Y-72900374D01*
X94308137Y-72900375D01*
X94237710Y-72986190D01*
X94167882Y-73116831D01*
X94124882Y-73258583D01*
X94110362Y-73406000D01*
X82498238Y-73406000D01*
X82414591Y-73204062D01*
X82258424Y-72970340D01*
X82059660Y-72771576D01*
X81825938Y-72615409D01*
X81812880Y-72610000D01*
X81825938Y-72604591D01*
X82059660Y-72448424D01*
X82258424Y-72249660D01*
X82414591Y-72015938D01*
X82522162Y-71756241D01*
X82577000Y-71480547D01*
X82577000Y-71199453D01*
X82522162Y-70923759D01*
X82414591Y-70664062D01*
X82258424Y-70430340D01*
X82059660Y-70231576D01*
X81825938Y-70075409D01*
X81812880Y-70070000D01*
X81825938Y-70064591D01*
X82059660Y-69908424D01*
X82258424Y-69709660D01*
X82414591Y-69475938D01*
X82522162Y-69216241D01*
X82577000Y-68940547D01*
X82577000Y-68659453D01*
X82522162Y-68383759D01*
X82414591Y-68124062D01*
X82258424Y-67890340D01*
X82059660Y-67691576D01*
X81825938Y-67535409D01*
X81812880Y-67530000D01*
X81825938Y-67524591D01*
X82059660Y-67368424D01*
X82258424Y-67169660D01*
X82414591Y-66935938D01*
X82522162Y-66676241D01*
X82577000Y-66400547D01*
X82577000Y-66119453D01*
X82522162Y-65843759D01*
X82414591Y-65584062D01*
X82258424Y-65350340D01*
X82059660Y-65151576D01*
X81825938Y-64995409D01*
X81812880Y-64990000D01*
X81825938Y-64984591D01*
X82059660Y-64828424D01*
X82258424Y-64629660D01*
X82414591Y-64395938D01*
X82522162Y-64136241D01*
X82577000Y-63860547D01*
X82577000Y-63579453D01*
X82522162Y-63303759D01*
X82414591Y-63044062D01*
X82258424Y-62810340D01*
X82059660Y-62611576D01*
X81825938Y-62455409D01*
X81812880Y-62450000D01*
X81825938Y-62444591D01*
X82059660Y-62288424D01*
X82258424Y-62089660D01*
X82414591Y-61855938D01*
X82522162Y-61596241D01*
X82577000Y-61320547D01*
X82577000Y-61039453D01*
X82522162Y-60763759D01*
X82414591Y-60504062D01*
X82258424Y-60270340D01*
X82059660Y-60071576D01*
X81825938Y-59915409D01*
X81822052Y-59913799D01*
X81891514Y-59876671D01*
X81963097Y-59632702D01*
X81150000Y-58819605D01*
X80336903Y-59632702D01*
X80408486Y-59876671D01*
X80482750Y-59911810D01*
X80474062Y-59915409D01*
X80240340Y-60071576D01*
X80041576Y-60270340D01*
X79885409Y-60504062D01*
X79777838Y-60763759D01*
X79723000Y-61039453D01*
X66037000Y-61039453D01*
X66037000Y-58710512D01*
X79709783Y-58710512D01*
X79751213Y-58990130D01*
X79846397Y-59256292D01*
X79913329Y-59381514D01*
X80157298Y-59453097D01*
X80970395Y-58640000D01*
X81329605Y-58640000D01*
X82142702Y-59453097D01*
X82386671Y-59381514D01*
X82507571Y-59126004D01*
X82576300Y-58851816D01*
X82590217Y-58569488D01*
X82548787Y-58289870D01*
X82453603Y-58023708D01*
X82386671Y-57898486D01*
X82142702Y-57826903D01*
X81329605Y-58640000D01*
X80970395Y-58640000D01*
X80157298Y-57826903D01*
X79913329Y-57898486D01*
X79792429Y-58153996D01*
X79723700Y-58428184D01*
X79709783Y-58710512D01*
X66037000Y-58710512D01*
X66037000Y-57092702D01*
X80336903Y-57092702D01*
X80408486Y-57336671D01*
X80474636Y-57367971D01*
X80408486Y-57403329D01*
X80336903Y-57647298D01*
X81150000Y-58460395D01*
X81963097Y-57647298D01*
X81891514Y-57403329D01*
X81825364Y-57372029D01*
X81891514Y-57336671D01*
X81963097Y-57092702D01*
X81150000Y-56279605D01*
X80336903Y-57092702D01*
X66037000Y-57092702D01*
X66037000Y-56170512D01*
X79709783Y-56170512D01*
X79751213Y-56450130D01*
X79846397Y-56716292D01*
X79913329Y-56841514D01*
X80157298Y-56913097D01*
X80970395Y-56100000D01*
X81329605Y-56100000D01*
X82142702Y-56913097D01*
X82386671Y-56841514D01*
X82507571Y-56586004D01*
X82576300Y-56311816D01*
X82590217Y-56029488D01*
X82548787Y-55749870D01*
X82453603Y-55483708D01*
X82386671Y-55358486D01*
X82142702Y-55286903D01*
X81329605Y-56100000D01*
X80970395Y-56100000D01*
X80157298Y-55286903D01*
X79913329Y-55358486D01*
X79792429Y-55613996D01*
X79723700Y-55888184D01*
X79709783Y-56170512D01*
X66037000Y-56170512D01*
X66037000Y-51755886D01*
X74393000Y-51755886D01*
X74393000Y-52224114D01*
X74484347Y-52683345D01*
X74663530Y-53115932D01*
X74923664Y-53505249D01*
X75254751Y-53836336D01*
X75644068Y-54096470D01*
X76076655Y-54275653D01*
X76535886Y-54367000D01*
X77004114Y-54367000D01*
X77463345Y-54275653D01*
X77895932Y-54096470D01*
X78285249Y-53836336D01*
X78616336Y-53505249D01*
X78876470Y-53115932D01*
X79055653Y-52683345D01*
X79147000Y-52224114D01*
X79147000Y-51755886D01*
X79055653Y-51296655D01*
X78876470Y-50864068D01*
X78616336Y-50474751D01*
X78361585Y-50220000D01*
X79719967Y-50220000D01*
X79719967Y-51820000D01*
X79732073Y-51942913D01*
X79767925Y-52061103D01*
X79826147Y-52170028D01*
X79904499Y-52265501D01*
X79999972Y-52343853D01*
X80108897Y-52402075D01*
X80227087Y-52437927D01*
X80256440Y-52440818D01*
X80240340Y-52451576D01*
X80041576Y-52650340D01*
X79885409Y-52884062D01*
X79777838Y-53143759D01*
X79723000Y-53419453D01*
X79723000Y-53700547D01*
X79777838Y-53976241D01*
X79885409Y-54235938D01*
X80041576Y-54469660D01*
X80240340Y-54668424D01*
X80474062Y-54824591D01*
X80477948Y-54826201D01*
X80408486Y-54863329D01*
X80336903Y-55107298D01*
X81150000Y-55920395D01*
X81963097Y-55107298D01*
X81891514Y-54863329D01*
X81817250Y-54828190D01*
X81825938Y-54824591D01*
X82059660Y-54668424D01*
X82258424Y-54469660D01*
X82414591Y-54235938D01*
X82522162Y-53976241D01*
X82577000Y-53700547D01*
X82577000Y-53630512D01*
X94949783Y-53630512D01*
X94991213Y-53910130D01*
X95086397Y-54176292D01*
X95153329Y-54301514D01*
X95397298Y-54373097D01*
X96210395Y-53560000D01*
X96569605Y-53560000D01*
X97382702Y-54373097D01*
X97626671Y-54301514D01*
X97747571Y-54046004D01*
X97816300Y-53771816D01*
X97830217Y-53489488D01*
X97788787Y-53209870D01*
X97693603Y-52943708D01*
X97626671Y-52818486D01*
X97382702Y-52746903D01*
X96569605Y-53560000D01*
X96210395Y-53560000D01*
X95397298Y-52746903D01*
X95153329Y-52818486D01*
X95032429Y-53073996D01*
X94963700Y-53348184D01*
X94949783Y-53630512D01*
X82577000Y-53630512D01*
X82577000Y-53419453D01*
X82522162Y-53143759D01*
X82414591Y-52884062D01*
X82258424Y-52650340D01*
X82059660Y-52451576D01*
X82043560Y-52440818D01*
X82072913Y-52437927D01*
X82191103Y-52402075D01*
X82300028Y-52343853D01*
X82395501Y-52265501D01*
X82473853Y-52170028D01*
X82532075Y-52061103D01*
X82567927Y-51942913D01*
X82580033Y-51820000D01*
X82580033Y-50879453D01*
X94963000Y-50879453D01*
X94963000Y-51160547D01*
X95017838Y-51436241D01*
X95125409Y-51695938D01*
X95281576Y-51929660D01*
X95480340Y-52128424D01*
X95714062Y-52284591D01*
X95717948Y-52286201D01*
X95648486Y-52323329D01*
X95576903Y-52567298D01*
X96390000Y-53380395D01*
X97203097Y-52567298D01*
X97131514Y-52323329D01*
X97057250Y-52288190D01*
X97065938Y-52284591D01*
X97299660Y-52128424D01*
X97498424Y-51929660D01*
X97614535Y-51755886D01*
X98393000Y-51755886D01*
X98393000Y-52224114D01*
X98484347Y-52683345D01*
X98663530Y-53115932D01*
X98923664Y-53505249D01*
X99254751Y-53836336D01*
X99644068Y-54096470D01*
X100076655Y-54275653D01*
X100535886Y-54367000D01*
X101004114Y-54367000D01*
X101463345Y-54275653D01*
X101895932Y-54096470D01*
X102285249Y-53836336D01*
X102616336Y-53505249D01*
X102876470Y-53115932D01*
X103055653Y-52683345D01*
X103147000Y-52224114D01*
X103147000Y-51755886D01*
X103055653Y-51296655D01*
X102876470Y-50864068D01*
X102616336Y-50474751D01*
X102285249Y-50143664D01*
X101895932Y-49883530D01*
X101463345Y-49704347D01*
X101004114Y-49613000D01*
X100535886Y-49613000D01*
X100076655Y-49704347D01*
X99644068Y-49883530D01*
X99254751Y-50143664D01*
X98923664Y-50474751D01*
X98663530Y-50864068D01*
X98484347Y-51296655D01*
X98393000Y-51755886D01*
X97614535Y-51755886D01*
X97654591Y-51695938D01*
X97762162Y-51436241D01*
X97817000Y-51160547D01*
X97817000Y-50879453D01*
X97762162Y-50603759D01*
X97654591Y-50344062D01*
X97498424Y-50110340D01*
X97299660Y-49911576D01*
X97065938Y-49755409D01*
X96806241Y-49647838D01*
X96530547Y-49593000D01*
X96249453Y-49593000D01*
X95973759Y-49647838D01*
X95714062Y-49755409D01*
X95480340Y-49911576D01*
X95281576Y-50110340D01*
X95125409Y-50344062D01*
X95017838Y-50603759D01*
X94963000Y-50879453D01*
X82580033Y-50879453D01*
X82580033Y-50220000D01*
X82567927Y-50097087D01*
X82532075Y-49978897D01*
X82473853Y-49869972D01*
X82395501Y-49774499D01*
X82300028Y-49696147D01*
X82191103Y-49637925D01*
X82072913Y-49602073D01*
X81950000Y-49589967D01*
X80350000Y-49589967D01*
X80227087Y-49602073D01*
X80108897Y-49637925D01*
X79999972Y-49696147D01*
X79904499Y-49774499D01*
X79826147Y-49869972D01*
X79767925Y-49978897D01*
X79732073Y-50097087D01*
X79719967Y-50220000D01*
X78361585Y-50220000D01*
X78285249Y-50143664D01*
X77895932Y-49883530D01*
X77463345Y-49704347D01*
X77004114Y-49613000D01*
X76535886Y-49613000D01*
X76076655Y-49704347D01*
X75644068Y-49883530D01*
X75254751Y-50143664D01*
X74923664Y-50474751D01*
X74663530Y-50864068D01*
X74484347Y-51296655D01*
X74393000Y-51755886D01*
X66037000Y-51755886D01*
X66037000Y-48133000D01*
X214119000Y-48133000D01*
X214119000Y-83947000D01*
G36*
X140205000Y-60579000D02*
G01*
X140225000Y-60579000D01*
X140225000Y-60833000D01*
X140205000Y-60833000D01*
X140205000Y-60853000D01*
X139951000Y-60853000D01*
X139951000Y-60833000D01*
X139931000Y-60833000D01*
X139931000Y-60579000D01*
X139951000Y-60579000D01*
X139951000Y-60559000D01*
X140205000Y-60559000D01*
X140205000Y-60579000D01*
G37*
X140205000Y-60579000D02*
X140225000Y-60579000D01*
X140225000Y-60833000D01*
X140205000Y-60833000D01*
X140205000Y-60853000D01*
X139951000Y-60853000D01*
X139951000Y-60833000D01*
X139931000Y-60833000D01*
X139931000Y-60579000D01*
X139951000Y-60579000D01*
X139951000Y-60559000D01*
X140205000Y-60559000D01*
X140205000Y-60579000D01*
G36*
X142745000Y-60579000D02*
G01*
X142765000Y-60579000D01*
X142765000Y-60833000D01*
X142745000Y-60833000D01*
X142745000Y-60853000D01*
X142491000Y-60853000D01*
X142491000Y-60833000D01*
X142471000Y-60833000D01*
X142471000Y-60579000D01*
X142491000Y-60579000D01*
X142491000Y-60559000D01*
X142745000Y-60559000D01*
X142745000Y-60579000D01*
G37*
X142745000Y-60579000D02*
X142765000Y-60579000D01*
X142765000Y-60833000D01*
X142745000Y-60833000D01*
X142745000Y-60853000D01*
X142491000Y-60853000D01*
X142491000Y-60833000D01*
X142471000Y-60833000D01*
X142471000Y-60579000D01*
X142491000Y-60579000D01*
X142491000Y-60559000D01*
X142745000Y-60559000D01*
X142745000Y-60579000D01*
G36*
X137665000Y-60579000D02*
G01*
X137685000Y-60579000D01*
X137685000Y-60833000D01*
X137665000Y-60833000D01*
X137665000Y-60853000D01*
X137411000Y-60853000D01*
X137411000Y-60833000D01*
X137391000Y-60833000D01*
X137391000Y-60579000D01*
X137411000Y-60579000D01*
X137411000Y-60559000D01*
X137665000Y-60559000D01*
X137665000Y-60579000D01*
G37*
X137665000Y-60579000D02*
X137685000Y-60579000D01*
X137685000Y-60833000D01*
X137665000Y-60833000D01*
X137665000Y-60853000D01*
X137411000Y-60853000D01*
X137411000Y-60833000D01*
X137391000Y-60833000D01*
X137391000Y-60579000D01*
X137411000Y-60579000D01*
X137411000Y-60559000D01*
X137665000Y-60559000D01*
X137665000Y-60579000D01*
M02*
