G04 #@! TF.GenerationSoftware,KiCad,Pcbnew,(5.1.5-0-10_14)*
G04 #@! TF.CreationDate,2020-04-26T22:29:08-07:00*
G04 #@! TF.ProjectId,modelm,6d6f6465-6c6d-42e6-9b69-6361645f7063,v0.1*
G04 #@! TF.SameCoordinates,Original*
G04 #@! TF.FileFunction,Legend,Top*
G04 #@! TF.FilePolarity,Positive*
%FSLAX46Y46*%
G04 Gerber Fmt 4.6, Leading zero omitted, Abs format (unit mm)*
G04 Created by KiCad (PCBNEW (5.1.5-0-10_14)) date 2020-04-26 22:29:08*
%MOMM*%
%LPD*%
G04 APERTURE LIST*
%ADD10C,0.300000*%
%ADD11C,0.150000*%
%ADD12C,0.500000*%
%ADD13C,0.120000*%
G04 APERTURE END LIST*
D10*
X141322142Y-75668571D02*
X141322142Y-76954285D01*
X141250714Y-77097142D01*
X141107857Y-77168571D01*
X141036428Y-77168571D01*
X141322142Y-75168571D02*
X141250714Y-75240000D01*
X141322142Y-75311428D01*
X141393571Y-75240000D01*
X141322142Y-75168571D01*
X141322142Y-75311428D01*
X142036428Y-76668571D02*
X142036428Y-75168571D01*
X142679285Y-76668571D02*
X142679285Y-75882857D01*
X142607857Y-75740000D01*
X142465000Y-75668571D01*
X142250714Y-75668571D01*
X142107857Y-75740000D01*
X142036428Y-75811428D01*
X144036428Y-76668571D02*
X144036428Y-75882857D01*
X143965000Y-75740000D01*
X143822142Y-75668571D01*
X143536428Y-75668571D01*
X143393571Y-75740000D01*
X144036428Y-76597142D02*
X143893571Y-76668571D01*
X143536428Y-76668571D01*
X143393571Y-76597142D01*
X143322142Y-76454285D01*
X143322142Y-76311428D01*
X143393571Y-76168571D01*
X143536428Y-76097142D01*
X143893571Y-76097142D01*
X144036428Y-76025714D01*
X144607857Y-75668571D02*
X144893571Y-76668571D01*
X145179285Y-75954285D01*
X145465000Y-76668571D01*
X145750714Y-75668571D01*
X146107857Y-75668571D02*
X146679285Y-75668571D01*
X146322142Y-75168571D02*
X146322142Y-76454285D01*
X146393571Y-76597142D01*
X146536428Y-76668571D01*
X146679285Y-76668571D01*
X147179285Y-76668571D02*
X147179285Y-75168571D01*
X147822142Y-76668571D02*
X147822142Y-75882857D01*
X147750714Y-75740000D01*
X147607857Y-75668571D01*
X147393571Y-75668571D01*
X147250714Y-75740000D01*
X147179285Y-75811428D01*
X148750714Y-76668571D02*
X148607857Y-76597142D01*
X148536428Y-76525714D01*
X148465000Y-76382857D01*
X148465000Y-75954285D01*
X148536428Y-75811428D01*
X148607857Y-75740000D01*
X148750714Y-75668571D01*
X148965000Y-75668571D01*
X149107857Y-75740000D01*
X149179285Y-75811428D01*
X149250714Y-75954285D01*
X149250714Y-76382857D01*
X149179285Y-76525714D01*
X149107857Y-76597142D01*
X148965000Y-76668571D01*
X148750714Y-76668571D01*
X149893571Y-76668571D02*
X149893571Y-75668571D01*
X149893571Y-75954285D02*
X149965000Y-75811428D01*
X150036428Y-75740000D01*
X150179285Y-75668571D01*
X150322142Y-75668571D01*
X150822142Y-75668571D02*
X150822142Y-76668571D01*
X150822142Y-75811428D02*
X150893571Y-75740000D01*
X151036428Y-75668571D01*
X151250714Y-75668571D01*
X151393571Y-75740000D01*
X151465000Y-75882857D01*
X151465000Y-76668571D01*
X152179285Y-76525714D02*
X152250714Y-76597142D01*
X152179285Y-76668571D01*
X152107857Y-76597142D01*
X152179285Y-76525714D01*
X152179285Y-76668571D01*
X153536428Y-76597142D02*
X153393571Y-76668571D01*
X153107857Y-76668571D01*
X152965000Y-76597142D01*
X152893571Y-76525714D01*
X152822142Y-76382857D01*
X152822142Y-75954285D01*
X152893571Y-75811428D01*
X152965000Y-75740000D01*
X153107857Y-75668571D01*
X153393571Y-75668571D01*
X153536428Y-75740000D01*
X154393571Y-76668571D02*
X154250714Y-76597142D01*
X154179285Y-76525714D01*
X154107857Y-76382857D01*
X154107857Y-75954285D01*
X154179285Y-75811428D01*
X154250714Y-75740000D01*
X154393571Y-75668571D01*
X154607857Y-75668571D01*
X154750714Y-75740000D01*
X154822142Y-75811428D01*
X154893571Y-75954285D01*
X154893571Y-76382857D01*
X154822142Y-76525714D01*
X154750714Y-76597142D01*
X154607857Y-76668571D01*
X154393571Y-76668571D01*
X155536428Y-76668571D02*
X155536428Y-75668571D01*
X155536428Y-75811428D02*
X155607857Y-75740000D01*
X155750714Y-75668571D01*
X155965000Y-75668571D01*
X156107857Y-75740000D01*
X156179285Y-75882857D01*
X156179285Y-76668571D01*
X156179285Y-75882857D02*
X156250714Y-75740000D01*
X156393571Y-75668571D01*
X156607857Y-75668571D01*
X156750714Y-75740000D01*
X156822142Y-75882857D01*
X156822142Y-76668571D01*
X141107857Y-78668571D02*
X141679285Y-78668571D01*
X141322142Y-78168571D02*
X141322142Y-79454285D01*
X141393571Y-79597142D01*
X141536428Y-79668571D01*
X141679285Y-79668571D01*
X142036428Y-78668571D02*
X142322142Y-79668571D01*
X142607857Y-78954285D01*
X142893571Y-79668571D01*
X143179285Y-78668571D01*
X143750714Y-79668571D02*
X143750714Y-78668571D01*
X143750714Y-78168571D02*
X143679285Y-78240000D01*
X143750714Y-78311428D01*
X143822142Y-78240000D01*
X143750714Y-78168571D01*
X143750714Y-78311428D01*
X144250714Y-78668571D02*
X144822142Y-78668571D01*
X144465000Y-78168571D02*
X144465000Y-79454285D01*
X144536428Y-79597142D01*
X144679285Y-79668571D01*
X144822142Y-79668571D01*
X145107857Y-78668571D02*
X145679285Y-78668571D01*
X145322142Y-78168571D02*
X145322142Y-79454285D01*
X145393571Y-79597142D01*
X145536428Y-79668571D01*
X145679285Y-79668571D01*
X146750714Y-79597142D02*
X146607857Y-79668571D01*
X146322142Y-79668571D01*
X146179285Y-79597142D01*
X146107857Y-79454285D01*
X146107857Y-78882857D01*
X146179285Y-78740000D01*
X146322142Y-78668571D01*
X146607857Y-78668571D01*
X146750714Y-78740000D01*
X146822142Y-78882857D01*
X146822142Y-79025714D01*
X146107857Y-79168571D01*
X147465000Y-79668571D02*
X147465000Y-78668571D01*
X147465000Y-78954285D02*
X147536428Y-78811428D01*
X147607857Y-78740000D01*
X147750714Y-78668571D01*
X147893571Y-78668571D01*
X148393571Y-79525714D02*
X148465000Y-79597142D01*
X148393571Y-79668571D01*
X148322142Y-79597142D01*
X148393571Y-79525714D01*
X148393571Y-79668571D01*
X149750714Y-79597142D02*
X149607857Y-79668571D01*
X149322142Y-79668571D01*
X149179285Y-79597142D01*
X149107857Y-79525714D01*
X149036428Y-79382857D01*
X149036428Y-78954285D01*
X149107857Y-78811428D01*
X149179285Y-78740000D01*
X149322142Y-78668571D01*
X149607857Y-78668571D01*
X149750714Y-78740000D01*
X150607857Y-79668571D02*
X150465000Y-79597142D01*
X150393571Y-79525714D01*
X150322142Y-79382857D01*
X150322142Y-78954285D01*
X150393571Y-78811428D01*
X150465000Y-78740000D01*
X150607857Y-78668571D01*
X150822142Y-78668571D01*
X150965000Y-78740000D01*
X151036428Y-78811428D01*
X151107857Y-78954285D01*
X151107857Y-79382857D01*
X151036428Y-79525714D01*
X150965000Y-79597142D01*
X150822142Y-79668571D01*
X150607857Y-79668571D01*
X151750714Y-79668571D02*
X151750714Y-78668571D01*
X151750714Y-78811428D02*
X151822142Y-78740000D01*
X151965000Y-78668571D01*
X152179285Y-78668571D01*
X152322142Y-78740000D01*
X152393571Y-78882857D01*
X152393571Y-79668571D01*
X152393571Y-78882857D02*
X152465000Y-78740000D01*
X152607857Y-78668571D01*
X152822142Y-78668571D01*
X152965000Y-78740000D01*
X153036428Y-78882857D01*
X153036428Y-79668571D01*
X154822142Y-78097142D02*
X153536428Y-80025714D01*
X155322142Y-78668571D02*
X155322142Y-79954285D01*
X155250714Y-80097142D01*
X155107857Y-80168571D01*
X155036428Y-80168571D01*
X155322142Y-78168571D02*
X155250714Y-78240000D01*
X155322142Y-78311428D01*
X155393571Y-78240000D01*
X155322142Y-78168571D01*
X155322142Y-78311428D01*
X156036428Y-79668571D02*
X156036428Y-78168571D01*
X156679285Y-79668571D02*
X156679285Y-78882857D01*
X156607857Y-78740000D01*
X156465000Y-78668571D01*
X156250714Y-78668571D01*
X156107857Y-78740000D01*
X156036428Y-78811428D01*
X158036428Y-79668571D02*
X158036428Y-78882857D01*
X157965000Y-78740000D01*
X157822142Y-78668571D01*
X157536428Y-78668571D01*
X157393571Y-78740000D01*
X158036428Y-79597142D02*
X157893571Y-79668571D01*
X157536428Y-79668571D01*
X157393571Y-79597142D01*
X157322142Y-79454285D01*
X157322142Y-79311428D01*
X157393571Y-79168571D01*
X157536428Y-79097142D01*
X157893571Y-79097142D01*
X158036428Y-79025714D01*
X158607857Y-78668571D02*
X158893571Y-79668571D01*
X159179285Y-78954285D01*
X159465000Y-79668571D01*
X159750714Y-78668571D01*
X160107857Y-78668571D02*
X160679285Y-78668571D01*
X160322142Y-78168571D02*
X160322142Y-79454285D01*
X160393571Y-79597142D01*
X160536428Y-79668571D01*
X160679285Y-79668571D01*
X161179285Y-79668571D02*
X161179285Y-78168571D01*
X161822142Y-79668571D02*
X161822142Y-78882857D01*
X161750714Y-78740000D01*
X161607857Y-78668571D01*
X161393571Y-78668571D01*
X161250714Y-78740000D01*
X161179285Y-78811428D01*
X162750714Y-79668571D02*
X162607857Y-79597142D01*
X162536428Y-79525714D01*
X162465000Y-79382857D01*
X162465000Y-78954285D01*
X162536428Y-78811428D01*
X162607857Y-78740000D01*
X162750714Y-78668571D01*
X162965000Y-78668571D01*
X163107857Y-78740000D01*
X163179285Y-78811428D01*
X163250714Y-78954285D01*
X163250714Y-79382857D01*
X163179285Y-79525714D01*
X163107857Y-79597142D01*
X162965000Y-79668571D01*
X162750714Y-79668571D01*
X163893571Y-79668571D02*
X163893571Y-78668571D01*
X163893571Y-78954285D02*
X163965000Y-78811428D01*
X164036428Y-78740000D01*
X164179285Y-78668571D01*
X164322142Y-78668571D01*
X164822142Y-78668571D02*
X164822142Y-79668571D01*
X164822142Y-78811428D02*
X164893571Y-78740000D01*
X165036428Y-78668571D01*
X165250714Y-78668571D01*
X165393571Y-78740000D01*
X165465000Y-78882857D01*
X165465000Y-79668571D01*
X141965000Y-81668571D02*
X141965000Y-82882857D01*
X141893571Y-83025714D01*
X141822142Y-83097142D01*
X141679285Y-83168571D01*
X141465000Y-83168571D01*
X141322142Y-83097142D01*
X141965000Y-82597142D02*
X141822142Y-82668571D01*
X141536428Y-82668571D01*
X141393571Y-82597142D01*
X141322142Y-82525714D01*
X141250714Y-82382857D01*
X141250714Y-81954285D01*
X141322142Y-81811428D01*
X141393571Y-81740000D01*
X141536428Y-81668571D01*
X141822142Y-81668571D01*
X141965000Y-81740000D01*
X142679285Y-82668571D02*
X142679285Y-81668571D01*
X142679285Y-81168571D02*
X142607857Y-81240000D01*
X142679285Y-81311428D01*
X142750714Y-81240000D01*
X142679285Y-81168571D01*
X142679285Y-81311428D01*
X143179285Y-81668571D02*
X143750714Y-81668571D01*
X143393571Y-81168571D02*
X143393571Y-82454285D01*
X143465000Y-82597142D01*
X143607857Y-82668571D01*
X143750714Y-82668571D01*
X144250714Y-82668571D02*
X144250714Y-81168571D01*
X144893571Y-82668571D02*
X144893571Y-81882857D01*
X144822142Y-81740000D01*
X144679285Y-81668571D01*
X144465000Y-81668571D01*
X144322142Y-81740000D01*
X144250714Y-81811428D01*
X146250714Y-81668571D02*
X146250714Y-82668571D01*
X145607857Y-81668571D02*
X145607857Y-82454285D01*
X145679285Y-82597142D01*
X145822142Y-82668571D01*
X146036428Y-82668571D01*
X146179285Y-82597142D01*
X146250714Y-82525714D01*
X146965000Y-82668571D02*
X146965000Y-81168571D01*
X146965000Y-81740000D02*
X147107857Y-81668571D01*
X147393571Y-81668571D01*
X147536428Y-81740000D01*
X147607857Y-81811428D01*
X147679285Y-81954285D01*
X147679285Y-82382857D01*
X147607857Y-82525714D01*
X147536428Y-82597142D01*
X147393571Y-82668571D01*
X147107857Y-82668571D01*
X146965000Y-82597142D01*
X148322142Y-82525714D02*
X148393571Y-82597142D01*
X148322142Y-82668571D01*
X148250714Y-82597142D01*
X148322142Y-82525714D01*
X148322142Y-82668571D01*
X149679285Y-82597142D02*
X149536428Y-82668571D01*
X149250714Y-82668571D01*
X149107857Y-82597142D01*
X149036428Y-82525714D01*
X148965000Y-82382857D01*
X148965000Y-81954285D01*
X149036428Y-81811428D01*
X149107857Y-81740000D01*
X149250714Y-81668571D01*
X149536428Y-81668571D01*
X149679285Y-81740000D01*
X150536428Y-82668571D02*
X150393571Y-82597142D01*
X150322142Y-82525714D01*
X150250714Y-82382857D01*
X150250714Y-81954285D01*
X150322142Y-81811428D01*
X150393571Y-81740000D01*
X150536428Y-81668571D01*
X150750714Y-81668571D01*
X150893571Y-81740000D01*
X150965000Y-81811428D01*
X151036428Y-81954285D01*
X151036428Y-82382857D01*
X150965000Y-82525714D01*
X150893571Y-82597142D01*
X150750714Y-82668571D01*
X150536428Y-82668571D01*
X151679285Y-82668571D02*
X151679285Y-81668571D01*
X151679285Y-81811428D02*
X151750714Y-81740000D01*
X151893571Y-81668571D01*
X152107857Y-81668571D01*
X152250714Y-81740000D01*
X152322142Y-81882857D01*
X152322142Y-82668571D01*
X152322142Y-81882857D02*
X152393571Y-81740000D01*
X152536428Y-81668571D01*
X152750714Y-81668571D01*
X152893571Y-81740000D01*
X152965000Y-81882857D01*
X152965000Y-82668571D01*
X154750714Y-81097142D02*
X153465000Y-83025714D01*
X155250714Y-81668571D02*
X155250714Y-82954285D01*
X155179285Y-83097142D01*
X155036428Y-83168571D01*
X154965000Y-83168571D01*
X155250714Y-81168571D02*
X155179285Y-81240000D01*
X155250714Y-81311428D01*
X155322142Y-81240000D01*
X155250714Y-81168571D01*
X155250714Y-81311428D01*
X155965000Y-82668571D02*
X155965000Y-81168571D01*
X156607857Y-82668571D02*
X156607857Y-81882857D01*
X156536428Y-81740000D01*
X156393571Y-81668571D01*
X156179285Y-81668571D01*
X156036428Y-81740000D01*
X155965000Y-81811428D01*
X157965000Y-82668571D02*
X157965000Y-81882857D01*
X157893571Y-81740000D01*
X157750714Y-81668571D01*
X157465000Y-81668571D01*
X157322142Y-81740000D01*
X157965000Y-82597142D02*
X157822142Y-82668571D01*
X157465000Y-82668571D01*
X157322142Y-82597142D01*
X157250714Y-82454285D01*
X157250714Y-82311428D01*
X157322142Y-82168571D01*
X157465000Y-82097142D01*
X157822142Y-82097142D01*
X157965000Y-82025714D01*
X158536428Y-81668571D02*
X158822142Y-82668571D01*
X159107857Y-81954285D01*
X159393571Y-82668571D01*
X159679285Y-81668571D01*
X160036428Y-81668571D02*
X160607857Y-81668571D01*
X160250714Y-81168571D02*
X160250714Y-82454285D01*
X160322142Y-82597142D01*
X160465000Y-82668571D01*
X160607857Y-82668571D01*
X161107857Y-82668571D02*
X161107857Y-81168571D01*
X161750714Y-82668571D02*
X161750714Y-81882857D01*
X161679285Y-81740000D01*
X161536428Y-81668571D01*
X161322142Y-81668571D01*
X161179285Y-81740000D01*
X161107857Y-81811428D01*
X162679285Y-82668571D02*
X162536428Y-82597142D01*
X162465000Y-82525714D01*
X162393571Y-82382857D01*
X162393571Y-81954285D01*
X162465000Y-81811428D01*
X162536428Y-81740000D01*
X162679285Y-81668571D01*
X162893571Y-81668571D01*
X163036428Y-81740000D01*
X163107857Y-81811428D01*
X163179285Y-81954285D01*
X163179285Y-82382857D01*
X163107857Y-82525714D01*
X163036428Y-82597142D01*
X162893571Y-82668571D01*
X162679285Y-82668571D01*
X163822142Y-82668571D02*
X163822142Y-81668571D01*
X163822142Y-81954285D02*
X163893571Y-81811428D01*
X163965000Y-81740000D01*
X164107857Y-81668571D01*
X164250714Y-81668571D01*
X164750714Y-81668571D02*
X164750714Y-82668571D01*
X164750714Y-81811428D02*
X164822142Y-81740000D01*
X164965000Y-81668571D01*
X165179285Y-81668571D01*
X165322142Y-81740000D01*
X165393571Y-81882857D01*
X165393571Y-82668571D01*
X167179285Y-81097142D02*
X165893571Y-83025714D01*
X167679285Y-82668571D02*
X167679285Y-81668571D01*
X167679285Y-81811428D02*
X167750714Y-81740000D01*
X167893571Y-81668571D01*
X168107857Y-81668571D01*
X168250714Y-81740000D01*
X168322142Y-81882857D01*
X168322142Y-82668571D01*
X168322142Y-81882857D02*
X168393571Y-81740000D01*
X168536428Y-81668571D01*
X168750714Y-81668571D01*
X168893571Y-81740000D01*
X168965000Y-81882857D01*
X168965000Y-82668571D01*
X169893571Y-82668571D02*
X169750714Y-82597142D01*
X169679285Y-82525714D01*
X169607857Y-82382857D01*
X169607857Y-81954285D01*
X169679285Y-81811428D01*
X169750714Y-81740000D01*
X169893571Y-81668571D01*
X170107857Y-81668571D01*
X170250714Y-81740000D01*
X170322142Y-81811428D01*
X170393571Y-81954285D01*
X170393571Y-82382857D01*
X170322142Y-82525714D01*
X170250714Y-82597142D01*
X170107857Y-82668571D01*
X169893571Y-82668571D01*
X171679285Y-82668571D02*
X171679285Y-81168571D01*
X171679285Y-82597142D02*
X171536428Y-82668571D01*
X171250714Y-82668571D01*
X171107857Y-82597142D01*
X171036428Y-82525714D01*
X170965000Y-82382857D01*
X170965000Y-81954285D01*
X171036428Y-81811428D01*
X171107857Y-81740000D01*
X171250714Y-81668571D01*
X171536428Y-81668571D01*
X171679285Y-81740000D01*
X172965000Y-82597142D02*
X172822142Y-82668571D01*
X172536428Y-82668571D01*
X172393571Y-82597142D01*
X172322142Y-82454285D01*
X172322142Y-81882857D01*
X172393571Y-81740000D01*
X172536428Y-81668571D01*
X172822142Y-81668571D01*
X172965000Y-81740000D01*
X173036428Y-81882857D01*
X173036428Y-82025714D01*
X172322142Y-82168571D01*
X173893571Y-82668571D02*
X173750714Y-82597142D01*
X173679285Y-82454285D01*
X173679285Y-81168571D01*
X174465000Y-82668571D02*
X174465000Y-81168571D01*
X175107857Y-82668571D02*
X175107857Y-81882857D01*
X175036428Y-81740000D01*
X174893571Y-81668571D01*
X174679285Y-81668571D01*
X174536428Y-81740000D01*
X174465000Y-81811428D01*
D11*
X134171428Y-80295714D02*
X134409523Y-80962380D01*
X134647619Y-80295714D01*
X135219047Y-79962380D02*
X135314285Y-79962380D01*
X135409523Y-80010000D01*
X135457142Y-80057619D01*
X135504761Y-80152857D01*
X135552380Y-80343333D01*
X135552380Y-80581428D01*
X135504761Y-80771904D01*
X135457142Y-80867142D01*
X135409523Y-80914761D01*
X135314285Y-80962380D01*
X135219047Y-80962380D01*
X135123809Y-80914761D01*
X135076190Y-80867142D01*
X135028571Y-80771904D01*
X134980952Y-80581428D01*
X134980952Y-80343333D01*
X135028571Y-80152857D01*
X135076190Y-80057619D01*
X135123809Y-80010000D01*
X135219047Y-79962380D01*
X135980952Y-80867142D02*
X136028571Y-80914761D01*
X135980952Y-80962380D01*
X135933333Y-80914761D01*
X135980952Y-80867142D01*
X135980952Y-80962380D01*
X136980952Y-80962380D02*
X136409523Y-80962380D01*
X136695238Y-80962380D02*
X136695238Y-79962380D01*
X136600000Y-80105238D01*
X136504761Y-80200476D01*
X136409523Y-80248095D01*
D10*
X185841428Y-63668571D02*
X185841428Y-64740000D01*
X185770000Y-64954285D01*
X185627142Y-65097142D01*
X185412857Y-65168571D01*
X185270000Y-65168571D01*
X187270000Y-65168571D02*
X186555714Y-65168571D01*
X186555714Y-63668571D01*
X188627142Y-65025714D02*
X188555714Y-65097142D01*
X188341428Y-65168571D01*
X188198571Y-65168571D01*
X187984285Y-65097142D01*
X187841428Y-64954285D01*
X187770000Y-64811428D01*
X187698571Y-64525714D01*
X187698571Y-64311428D01*
X187770000Y-64025714D01*
X187841428Y-63882857D01*
X187984285Y-63740000D01*
X188198571Y-63668571D01*
X188341428Y-63668571D01*
X188555714Y-63740000D01*
X188627142Y-63811428D01*
X189698571Y-63668571D02*
X189698571Y-64740000D01*
X189627142Y-64954285D01*
X189484285Y-65097142D01*
X189270000Y-65168571D01*
X189127142Y-65168571D01*
X191127142Y-65168571D02*
X190412857Y-65168571D01*
X190412857Y-63668571D01*
X192484285Y-65025714D02*
X192412857Y-65097142D01*
X192198571Y-65168571D01*
X192055714Y-65168571D01*
X191841428Y-65097142D01*
X191698571Y-64954285D01*
X191627142Y-64811428D01*
X191555714Y-64525714D01*
X191555714Y-64311428D01*
X191627142Y-64025714D01*
X191698571Y-63882857D01*
X191841428Y-63740000D01*
X192055714Y-63668571D01*
X192198571Y-63668571D01*
X192412857Y-63740000D01*
X192484285Y-63811428D01*
X193555714Y-63668571D02*
X193555714Y-64740000D01*
X193484285Y-64954285D01*
X193341428Y-65097142D01*
X193127142Y-65168571D01*
X192984285Y-65168571D01*
X194984285Y-65168571D02*
X194270000Y-65168571D01*
X194270000Y-63668571D01*
X196341428Y-65025714D02*
X196270000Y-65097142D01*
X196055714Y-65168571D01*
X195912857Y-65168571D01*
X195698571Y-65097142D01*
X195555714Y-64954285D01*
X195484285Y-64811428D01*
X195412857Y-64525714D01*
X195412857Y-64311428D01*
X195484285Y-64025714D01*
X195555714Y-63882857D01*
X195698571Y-63740000D01*
X195912857Y-63668571D01*
X196055714Y-63668571D01*
X196270000Y-63740000D01*
X196341428Y-63811428D01*
X197412857Y-63668571D02*
X197412857Y-64740000D01*
X197341428Y-64954285D01*
X197198571Y-65097142D01*
X196984285Y-65168571D01*
X196841428Y-65168571D01*
X198841428Y-65168571D02*
X198127142Y-65168571D01*
X198127142Y-63668571D01*
X200198571Y-65025714D02*
X200127142Y-65097142D01*
X199912857Y-65168571D01*
X199770000Y-65168571D01*
X199555714Y-65097142D01*
X199412857Y-64954285D01*
X199341428Y-64811428D01*
X199270000Y-64525714D01*
X199270000Y-64311428D01*
X199341428Y-64025714D01*
X199412857Y-63882857D01*
X199555714Y-63740000D01*
X199770000Y-63668571D01*
X199912857Y-63668571D01*
X200127142Y-63740000D01*
X200198571Y-63811428D01*
D12*
X102383333Y-81501904D02*
X102383333Y-76501904D01*
X104050000Y-80073333D01*
X105716666Y-76501904D01*
X105716666Y-81501904D01*
X108811904Y-81501904D02*
X108335714Y-81263809D01*
X108097619Y-81025714D01*
X107859523Y-80549523D01*
X107859523Y-79120952D01*
X108097619Y-78644761D01*
X108335714Y-78406666D01*
X108811904Y-78168571D01*
X109526190Y-78168571D01*
X110002380Y-78406666D01*
X110240476Y-78644761D01*
X110478571Y-79120952D01*
X110478571Y-80549523D01*
X110240476Y-81025714D01*
X110002380Y-81263809D01*
X109526190Y-81501904D01*
X108811904Y-81501904D01*
X114764285Y-81501904D02*
X114764285Y-76501904D01*
X114764285Y-81263809D02*
X114288095Y-81501904D01*
X113335714Y-81501904D01*
X112859523Y-81263809D01*
X112621428Y-81025714D01*
X112383333Y-80549523D01*
X112383333Y-79120952D01*
X112621428Y-78644761D01*
X112859523Y-78406666D01*
X113335714Y-78168571D01*
X114288095Y-78168571D01*
X114764285Y-78406666D01*
X119050000Y-81263809D02*
X118573809Y-81501904D01*
X117621428Y-81501904D01*
X117145238Y-81263809D01*
X116907142Y-80787619D01*
X116907142Y-78882857D01*
X117145238Y-78406666D01*
X117621428Y-78168571D01*
X118573809Y-78168571D01*
X119050000Y-78406666D01*
X119288095Y-78882857D01*
X119288095Y-79359047D01*
X116907142Y-79835238D01*
X122145238Y-81501904D02*
X121669047Y-81263809D01*
X121430952Y-80787619D01*
X121430952Y-76501904D01*
X127859523Y-81501904D02*
X127859523Y-76501904D01*
X127859523Y-78882857D02*
X130716666Y-78882857D01*
X130716666Y-81501904D02*
X130716666Y-76501904D01*
D13*
X159421000Y-62340000D02*
X159736000Y-62340000D01*
X156996000Y-62340000D02*
X157311000Y-62340000D01*
X159421000Y-67280000D02*
X159736000Y-67280000D01*
X156996000Y-67280000D02*
X157311000Y-67280000D01*
X159736000Y-67280000D02*
X159736000Y-62340000D01*
X156996000Y-67280000D02*
X156996000Y-62340000D01*
X154087000Y-62340000D02*
X154402000Y-62340000D01*
X151662000Y-62340000D02*
X151977000Y-62340000D01*
X154087000Y-67280000D02*
X154402000Y-67280000D01*
X151662000Y-67280000D02*
X151977000Y-67280000D01*
X154402000Y-67280000D02*
X154402000Y-62340000D01*
X151662000Y-67280000D02*
X151662000Y-62340000D01*
X108268000Y-61866000D02*
X108268000Y-63516000D01*
X143948000Y-61866000D02*
X108268000Y-61866000D01*
X143948000Y-67166000D02*
X143948000Y-61866000D01*
X108268000Y-67166000D02*
X143948000Y-67166000D01*
X108268000Y-65516000D02*
X108268000Y-67166000D01*
X108268000Y-63516000D02*
G75*
G02X108268000Y-65516000I0J-1000000D01*
G01*
X165672000Y-61866000D02*
X165672000Y-63516000D01*
X201352000Y-61866000D02*
X165672000Y-61866000D01*
X201352000Y-67166000D02*
X201352000Y-61866000D01*
X165672000Y-67166000D02*
X201352000Y-67166000D01*
X165672000Y-65516000D02*
X165672000Y-67166000D01*
X165672000Y-63516000D02*
G75*
G02X165672000Y-65516000I0J-1000000D01*
G01*
X207440000Y-49470000D02*
X208770000Y-49470000D01*
X207440000Y-50800000D02*
X207440000Y-49470000D01*
X207440000Y-52070000D02*
X210100000Y-52070000D01*
X210100000Y-52070000D02*
X210100000Y-59750000D01*
X207440000Y-52070000D02*
X207440000Y-59750000D01*
X207440000Y-59750000D02*
X210100000Y-59750000D01*
X172784000Y-52384000D02*
X172784000Y-51054000D01*
X174114000Y-52384000D02*
X172784000Y-52384000D01*
X175384000Y-52384000D02*
X175384000Y-49724000D01*
X175384000Y-49724000D02*
X193224000Y-49724000D01*
X175384000Y-52384000D02*
X193224000Y-52384000D01*
X193224000Y-52384000D02*
X193224000Y-49724000D01*
X115380000Y-52384000D02*
X115380000Y-51054000D01*
X116710000Y-52384000D02*
X115380000Y-52384000D01*
X117980000Y-52384000D02*
X117980000Y-49724000D01*
X117980000Y-49724000D02*
X156140000Y-49724000D01*
X117980000Y-52384000D02*
X156140000Y-52384000D01*
X156140000Y-52384000D02*
X156140000Y-49724000D01*
X181758000Y-75184000D02*
X182528000Y-75184000D01*
X189838000Y-75184000D02*
X189068000Y-75184000D01*
X182528000Y-76554000D02*
X189068000Y-76554000D01*
X182528000Y-73814000D02*
X182528000Y-76554000D01*
X189068000Y-73814000D02*
X182528000Y-73814000D01*
X189068000Y-76554000D02*
X189068000Y-73814000D01*
X181758000Y-78486000D02*
X182528000Y-78486000D01*
X189838000Y-78486000D02*
X189068000Y-78486000D01*
X182528000Y-79856000D02*
X189068000Y-79856000D01*
X182528000Y-77116000D02*
X182528000Y-79856000D01*
X189068000Y-77116000D02*
X182528000Y-77116000D01*
X189068000Y-79856000D02*
X189068000Y-77116000D01*
X181758000Y-81788000D02*
X182528000Y-81788000D01*
X189838000Y-81788000D02*
X189068000Y-81788000D01*
X182528000Y-83158000D02*
X189068000Y-83158000D01*
X182528000Y-80418000D02*
X182528000Y-83158000D01*
X189068000Y-80418000D02*
X182528000Y-80418000D01*
X189068000Y-83158000D02*
X189068000Y-80418000D01*
D11*
X156223142Y-64976666D02*
X156270761Y-65024285D01*
X156318380Y-65167142D01*
X156318380Y-65262380D01*
X156270761Y-65405238D01*
X156175523Y-65500476D01*
X156080285Y-65548095D01*
X155889809Y-65595714D01*
X155746952Y-65595714D01*
X155556476Y-65548095D01*
X155461238Y-65500476D01*
X155366000Y-65405238D01*
X155318380Y-65262380D01*
X155318380Y-65167142D01*
X155366000Y-65024285D01*
X155413619Y-64976666D01*
X155413619Y-64595714D02*
X155366000Y-64548095D01*
X155318380Y-64452857D01*
X155318380Y-64214761D01*
X155366000Y-64119523D01*
X155413619Y-64071904D01*
X155508857Y-64024285D01*
X155604095Y-64024285D01*
X155746952Y-64071904D01*
X156318380Y-64643333D01*
X156318380Y-64024285D01*
X150889142Y-64976666D02*
X150936761Y-65024285D01*
X150984380Y-65167142D01*
X150984380Y-65262380D01*
X150936761Y-65405238D01*
X150841523Y-65500476D01*
X150746285Y-65548095D01*
X150555809Y-65595714D01*
X150412952Y-65595714D01*
X150222476Y-65548095D01*
X150127238Y-65500476D01*
X150032000Y-65405238D01*
X149984380Y-65262380D01*
X149984380Y-65167142D01*
X150032000Y-65024285D01*
X150079619Y-64976666D01*
X150984380Y-64024285D02*
X150984380Y-64595714D01*
X150984380Y-64310000D02*
X149984380Y-64310000D01*
X150127238Y-64405238D01*
X150222476Y-64500476D01*
X150270095Y-64595714D01*
X106720380Y-65277904D02*
X107529904Y-65277904D01*
X107625142Y-65230285D01*
X107672761Y-65182666D01*
X107720380Y-65087428D01*
X107720380Y-64896952D01*
X107672761Y-64801714D01*
X107625142Y-64754095D01*
X107529904Y-64706476D01*
X106720380Y-64706476D01*
X106720380Y-64325523D02*
X106720380Y-63706476D01*
X107101333Y-64039809D01*
X107101333Y-63896952D01*
X107148952Y-63801714D01*
X107196571Y-63754095D01*
X107291809Y-63706476D01*
X107529904Y-63706476D01*
X107625142Y-63754095D01*
X107672761Y-63801714D01*
X107720380Y-63896952D01*
X107720380Y-64182666D01*
X107672761Y-64277904D01*
X107625142Y-64325523D01*
X164124380Y-65277904D02*
X164933904Y-65277904D01*
X165029142Y-65230285D01*
X165076761Y-65182666D01*
X165124380Y-65087428D01*
X165124380Y-64896952D01*
X165076761Y-64801714D01*
X165029142Y-64754095D01*
X164933904Y-64706476D01*
X164124380Y-64706476D01*
X164219619Y-64277904D02*
X164172000Y-64230285D01*
X164124380Y-64135047D01*
X164124380Y-63896952D01*
X164172000Y-63801714D01*
X164219619Y-63754095D01*
X164314857Y-63706476D01*
X164410095Y-63706476D01*
X164552952Y-63754095D01*
X165124380Y-64325523D01*
X165124380Y-63706476D01*
X208436666Y-47922380D02*
X208436666Y-48636666D01*
X208389047Y-48779523D01*
X208293809Y-48874761D01*
X208150952Y-48922380D01*
X208055714Y-48922380D01*
X209341428Y-48255714D02*
X209341428Y-48922380D01*
X209103333Y-47874761D02*
X208865238Y-48589047D01*
X209484285Y-48589047D01*
X171236380Y-51387333D02*
X171950666Y-51387333D01*
X172093523Y-51434952D01*
X172188761Y-51530190D01*
X172236380Y-51673047D01*
X172236380Y-51768285D01*
X171236380Y-51006380D02*
X171236380Y-50387333D01*
X171617333Y-50720666D01*
X171617333Y-50577809D01*
X171664952Y-50482571D01*
X171712571Y-50434952D01*
X171807809Y-50387333D01*
X172045904Y-50387333D01*
X172141142Y-50434952D01*
X172188761Y-50482571D01*
X172236380Y-50577809D01*
X172236380Y-50863523D01*
X172188761Y-50958761D01*
X172141142Y-51006380D01*
X113832380Y-51387333D02*
X114546666Y-51387333D01*
X114689523Y-51434952D01*
X114784761Y-51530190D01*
X114832380Y-51673047D01*
X114832380Y-51768285D01*
X113927619Y-50958761D02*
X113880000Y-50911142D01*
X113832380Y-50815904D01*
X113832380Y-50577809D01*
X113880000Y-50482571D01*
X113927619Y-50434952D01*
X114022857Y-50387333D01*
X114118095Y-50387333D01*
X114260952Y-50434952D01*
X114832380Y-51006380D01*
X114832380Y-50387333D01*
X185631333Y-78006380D02*
X185298000Y-77530190D01*
X185059904Y-78006380D02*
X185059904Y-77006380D01*
X185440857Y-77006380D01*
X185536095Y-77054000D01*
X185583714Y-77101619D01*
X185631333Y-77196857D01*
X185631333Y-77339714D01*
X185583714Y-77434952D01*
X185536095Y-77482571D01*
X185440857Y-77530190D01*
X185059904Y-77530190D01*
X186488476Y-77006380D02*
X186298000Y-77006380D01*
X186202761Y-77054000D01*
X186155142Y-77101619D01*
X186059904Y-77244476D01*
X186012285Y-77434952D01*
X186012285Y-77815904D01*
X186059904Y-77911142D01*
X186107523Y-77958761D01*
X186202761Y-78006380D01*
X186393238Y-78006380D01*
X186488476Y-77958761D01*
X186536095Y-77911142D01*
X186583714Y-77815904D01*
X186583714Y-77577809D01*
X186536095Y-77482571D01*
X186488476Y-77434952D01*
X186393238Y-77387333D01*
X186202761Y-77387333D01*
X186107523Y-77434952D01*
X186059904Y-77482571D01*
X186012285Y-77577809D01*
X185631333Y-81308380D02*
X185298000Y-80832190D01*
X185059904Y-81308380D02*
X185059904Y-80308380D01*
X185440857Y-80308380D01*
X185536095Y-80356000D01*
X185583714Y-80403619D01*
X185631333Y-80498857D01*
X185631333Y-80641714D01*
X185583714Y-80736952D01*
X185536095Y-80784571D01*
X185440857Y-80832190D01*
X185059904Y-80832190D01*
X186536095Y-80308380D02*
X186059904Y-80308380D01*
X186012285Y-80784571D01*
X186059904Y-80736952D01*
X186155142Y-80689333D01*
X186393238Y-80689333D01*
X186488476Y-80736952D01*
X186536095Y-80784571D01*
X186583714Y-80879809D01*
X186583714Y-81117904D01*
X186536095Y-81213142D01*
X186488476Y-81260761D01*
X186393238Y-81308380D01*
X186155142Y-81308380D01*
X186059904Y-81260761D01*
X186012285Y-81213142D01*
X185631333Y-84610380D02*
X185298000Y-84134190D01*
X185059904Y-84610380D02*
X185059904Y-83610380D01*
X185440857Y-83610380D01*
X185536095Y-83658000D01*
X185583714Y-83705619D01*
X185631333Y-83800857D01*
X185631333Y-83943714D01*
X185583714Y-84038952D01*
X185536095Y-84086571D01*
X185440857Y-84134190D01*
X185059904Y-84134190D01*
X186488476Y-83943714D02*
X186488476Y-84610380D01*
X186250380Y-83562761D02*
X186012285Y-84277047D01*
X186631333Y-84277047D01*
M02*
