M48
; DRILL file {KiCad (5.1.5-0-10_14)} date Sunday, April 26, 2020 at 10:29:15 pm
; FORMAT={-:-/ absolute / inch / decimal}
; #@! TF.CreationDate,2020-04-26T22:29:15-07:00
; #@! TF.GenerationSoftware,Kicad,Pcbnew,(5.1.5-0-10_14)
; #@! TF.FileFunction,Plated,1,2,PTH
FMAT,2
INCH
T1C0.0315
T2C0.0394
T3C0.0433
%
G90
G05
T1
X6.0249Y-2.4531
X6.0249Y-2.65
X6.5749Y-2.39
X6.5749Y-2.69
X6.6749Y-2.39
X6.6749Y-2.69
X6.7749Y-2.39
X6.7749Y-2.69
X6.8749Y-2.39
X6.8749Y-2.69
X6.9749Y-2.39
X6.9749Y-2.69
X7.0749Y-2.39
X7.0749Y-2.69
X7.1749Y-2.39
X7.1749Y-2.69
X7.2749Y-2.39
X7.2749Y-2.69
X7.3749Y-2.39
X7.3749Y-2.69
X7.4749Y-2.39
X7.4749Y-2.69
X7.5749Y-2.39
X7.5749Y-2.69
X7.6749Y-2.39
X7.6749Y-2.69
X7.7749Y-2.39
X7.7749Y-2.69
X7.8749Y-2.39
X7.8749Y-2.69
X7.1149Y-2.96
X7.5149Y-2.96
X7.1149Y-3.22
X7.5149Y-3.22
X6.2349Y-2.4531
X6.2349Y-2.65
X4.3149Y-2.39
X4.3149Y-2.69
X4.4149Y-2.39
X4.4149Y-2.69
X4.5149Y-2.39
X4.5149Y-2.69
X4.6149Y-2.39
X4.6149Y-2.69
X4.7149Y-2.39
X4.7149Y-2.69
X4.8149Y-2.39
X4.8149Y-2.69
X4.9149Y-2.39
X4.9149Y-2.69
X5.0149Y-2.39
X5.0149Y-2.69
X5.1149Y-2.39
X5.1149Y-2.69
X5.2149Y-2.39
X5.2149Y-2.69
X5.3149Y-2.39
X5.3149Y-2.69
X5.4149Y-2.39
X5.4149Y-2.69
X5.5149Y-2.39
X5.5149Y-2.69
X5.6149Y-2.39
X5.6149Y-2.69
X7.1149Y-3.09
X7.5149Y-3.09
T2
X6.8549Y-2.01
X6.9549Y-2.01
X7.0549Y-2.01
X7.1549Y-2.01
X7.2549Y-2.01
X7.3549Y-2.01
X7.4549Y-2.01
X7.5549Y-2.01
X4.5949Y-2.01
X4.6949Y-2.01
X4.7949Y-2.01
X4.8949Y-2.01
X4.9949Y-2.01
X5.0949Y-2.01
X5.1949Y-2.01
X5.2949Y-2.01
X5.3949Y-2.01
X5.4949Y-2.01
X5.5949Y-2.01
X5.6949Y-2.01
X5.7949Y-2.01
X5.8949Y-2.01
X5.9949Y-2.01
X6.0949Y-2.01
X8.2193Y-2.0
X8.2193Y-2.1
X8.2193Y-2.2
X8.2193Y-2.3
T3
X3.1949Y-2.0087
X3.1949Y-2.1087
X3.1949Y-2.2087
X3.1949Y-2.3087
X3.1949Y-2.4087
X3.1949Y-2.5087
X3.1949Y-2.6087
X3.1949Y-2.7087
X3.1949Y-2.8087
X3.1949Y-2.9087
X3.1949Y-3.0087
X3.1949Y-3.1087
X3.7949Y-2.0087
X3.7949Y-2.1087
X3.7949Y-2.2087
X3.7949Y-2.3087
X3.7949Y-2.4087
X3.7949Y-2.5087
X3.7949Y-2.6087
X3.7949Y-2.7087
X3.7949Y-2.8087
X3.7949Y-2.9087
X3.7949Y-3.0087
X3.7949Y-3.1087
T0
M30
