G04 #@! TF.GenerationSoftware,KiCad,Pcbnew,(5.1.5-0-10_14)*
G04 #@! TF.CreationDate,2020-04-26T22:29:08-07:00*
G04 #@! TF.ProjectId,modelm,6d6f6465-6c6d-42e6-9b69-6361645f7063,v0.1*
G04 #@! TF.SameCoordinates,Original*
G04 #@! TF.FileFunction,Soldermask,Bot*
G04 #@! TF.FilePolarity,Negative*
%FSLAX46Y46*%
G04 Gerber Fmt 4.6, Leading zero omitted, Abs format (unit mm)*
G04 Created by KiCad (PCBNEW (5.1.5-0-10_14)) date 2020-04-26 22:29:08*
%MOMM*%
%LPD*%
G04 APERTURE LIST*
%ADD10C,0.100000*%
G04 APERTURE END LIST*
D10*
G36*
X191126169Y-80969895D02*
G01*
X191281005Y-81034031D01*
X191420354Y-81127140D01*
X191538860Y-81245646D01*
X191631969Y-81384995D01*
X191696105Y-81539831D01*
X191728800Y-81704203D01*
X191728800Y-81871797D01*
X191696105Y-82036169D01*
X191631969Y-82191005D01*
X191538860Y-82330354D01*
X191420354Y-82448860D01*
X191281005Y-82541969D01*
X191126169Y-82606105D01*
X190961797Y-82638800D01*
X190794203Y-82638800D01*
X190629831Y-82606105D01*
X190474995Y-82541969D01*
X190335646Y-82448860D01*
X190217140Y-82330354D01*
X190124031Y-82191005D01*
X190059895Y-82036169D01*
X190027200Y-81871797D01*
X190027200Y-81704203D01*
X190059895Y-81539831D01*
X190124031Y-81384995D01*
X190217140Y-81245646D01*
X190335646Y-81127140D01*
X190474995Y-81034031D01*
X190629831Y-80969895D01*
X190794203Y-80937200D01*
X190961797Y-80937200D01*
X191126169Y-80969895D01*
G37*
G36*
X180966169Y-80969895D02*
G01*
X181121005Y-81034031D01*
X181260354Y-81127140D01*
X181378860Y-81245646D01*
X181471969Y-81384995D01*
X181536105Y-81539831D01*
X181568800Y-81704203D01*
X181568800Y-81871797D01*
X181536105Y-82036169D01*
X181471969Y-82191005D01*
X181378860Y-82330354D01*
X181260354Y-82448860D01*
X181121005Y-82541969D01*
X180966169Y-82606105D01*
X180801797Y-82638800D01*
X180634203Y-82638800D01*
X180469831Y-82606105D01*
X180314995Y-82541969D01*
X180175646Y-82448860D01*
X180057140Y-82330354D01*
X179964031Y-82191005D01*
X179899895Y-82036169D01*
X179867200Y-81871797D01*
X179867200Y-81704203D01*
X179899895Y-81539831D01*
X179964031Y-81384995D01*
X180057140Y-81245646D01*
X180175646Y-81127140D01*
X180314995Y-81034031D01*
X180469831Y-80969895D01*
X180634203Y-80937200D01*
X180801797Y-80937200D01*
X180966169Y-80969895D01*
G37*
G36*
X210368196Y-78018011D02*
G01*
X210741418Y-78172605D01*
X211077309Y-78397040D01*
X211362960Y-78682691D01*
X211587395Y-79018582D01*
X211741989Y-79391804D01*
X211820800Y-79788014D01*
X211820800Y-80191986D01*
X211741989Y-80588196D01*
X211587395Y-80961418D01*
X211362960Y-81297309D01*
X211077309Y-81582960D01*
X210741418Y-81807395D01*
X210368196Y-81961989D01*
X209971986Y-82040800D01*
X209568014Y-82040800D01*
X209171804Y-81961989D01*
X208798582Y-81807395D01*
X208462691Y-81582960D01*
X208177040Y-81297309D01*
X207952605Y-80961418D01*
X207798011Y-80588196D01*
X207719200Y-80191986D01*
X207719200Y-79788014D01*
X207798011Y-79391804D01*
X207952605Y-79018582D01*
X208177040Y-78682691D01*
X208462691Y-78397040D01*
X208798582Y-78172605D01*
X209171804Y-78018011D01*
X209568014Y-77939200D01*
X209971986Y-77939200D01*
X210368196Y-78018011D01*
G37*
G36*
X81398169Y-78141895D02*
G01*
X81553005Y-78206031D01*
X81692354Y-78299140D01*
X81810860Y-78417646D01*
X81903969Y-78556995D01*
X81968105Y-78711831D01*
X82000800Y-78876203D01*
X82000800Y-79043797D01*
X81968105Y-79208169D01*
X81903969Y-79363005D01*
X81810860Y-79502354D01*
X81692354Y-79620860D01*
X81553005Y-79713969D01*
X81398169Y-79778105D01*
X81233797Y-79810800D01*
X81066203Y-79810800D01*
X80901831Y-79778105D01*
X80746995Y-79713969D01*
X80607646Y-79620860D01*
X80489140Y-79502354D01*
X80396031Y-79363005D01*
X80331895Y-79208169D01*
X80299200Y-79043797D01*
X80299200Y-78876203D01*
X80331895Y-78711831D01*
X80396031Y-78556995D01*
X80489140Y-78417646D01*
X80607646Y-78299140D01*
X80746995Y-78206031D01*
X80901831Y-78141895D01*
X81066203Y-78109200D01*
X81233797Y-78109200D01*
X81398169Y-78141895D01*
G37*
G36*
X96638169Y-78141895D02*
G01*
X96793005Y-78206031D01*
X96932354Y-78299140D01*
X97050860Y-78417646D01*
X97143969Y-78556995D01*
X97208105Y-78711831D01*
X97240800Y-78876203D01*
X97240800Y-79043797D01*
X97208105Y-79208169D01*
X97143969Y-79363005D01*
X97050860Y-79502354D01*
X96932354Y-79620860D01*
X96793005Y-79713969D01*
X96638169Y-79778105D01*
X96473797Y-79810800D01*
X96306203Y-79810800D01*
X96141831Y-79778105D01*
X95986995Y-79713969D01*
X95847646Y-79620860D01*
X95729140Y-79502354D01*
X95636031Y-79363005D01*
X95571895Y-79208169D01*
X95539200Y-79043797D01*
X95539200Y-78876203D01*
X95571895Y-78711831D01*
X95636031Y-78556995D01*
X95729140Y-78417646D01*
X95847646Y-78299140D01*
X95986995Y-78206031D01*
X96141831Y-78141895D01*
X96306203Y-78109200D01*
X96473797Y-78109200D01*
X96638169Y-78141895D01*
G37*
G36*
X180966169Y-77667895D02*
G01*
X181121005Y-77732031D01*
X181260354Y-77825140D01*
X181378860Y-77943646D01*
X181471969Y-78082995D01*
X181536105Y-78237831D01*
X181568800Y-78402203D01*
X181568800Y-78569797D01*
X181536105Y-78734169D01*
X181471969Y-78889005D01*
X181378860Y-79028354D01*
X181260354Y-79146860D01*
X181121005Y-79239969D01*
X180966169Y-79304105D01*
X180801797Y-79336800D01*
X180634203Y-79336800D01*
X180469831Y-79304105D01*
X180314995Y-79239969D01*
X180175646Y-79146860D01*
X180057140Y-79028354D01*
X179964031Y-78889005D01*
X179899895Y-78734169D01*
X179867200Y-78569797D01*
X179867200Y-78402203D01*
X179899895Y-78237831D01*
X179964031Y-78082995D01*
X180057140Y-77943646D01*
X180175646Y-77825140D01*
X180314995Y-77732031D01*
X180469831Y-77667895D01*
X180634203Y-77635200D01*
X180801797Y-77635200D01*
X180966169Y-77667895D01*
G37*
G36*
X191126169Y-77667895D02*
G01*
X191281005Y-77732031D01*
X191420354Y-77825140D01*
X191538860Y-77943646D01*
X191631969Y-78082995D01*
X191696105Y-78237831D01*
X191728800Y-78402203D01*
X191728800Y-78569797D01*
X191696105Y-78734169D01*
X191631969Y-78889005D01*
X191538860Y-79028354D01*
X191420354Y-79146860D01*
X191281005Y-79239969D01*
X191126169Y-79304105D01*
X190961797Y-79336800D01*
X190794203Y-79336800D01*
X190629831Y-79304105D01*
X190474995Y-79239969D01*
X190335646Y-79146860D01*
X190217140Y-79028354D01*
X190124031Y-78889005D01*
X190059895Y-78734169D01*
X190027200Y-78569797D01*
X190027200Y-78402203D01*
X190059895Y-78237831D01*
X190124031Y-78082995D01*
X190217140Y-77943646D01*
X190335646Y-77825140D01*
X190474995Y-77732031D01*
X190629831Y-77667895D01*
X190794203Y-77635200D01*
X190961797Y-77635200D01*
X191126169Y-77667895D01*
G37*
G36*
X81398169Y-75601895D02*
G01*
X81553005Y-75666031D01*
X81692354Y-75759140D01*
X81810860Y-75877646D01*
X81903969Y-76016995D01*
X81968105Y-76171831D01*
X82000800Y-76336203D01*
X82000800Y-76503797D01*
X81968105Y-76668169D01*
X81903969Y-76823005D01*
X81810860Y-76962354D01*
X81692354Y-77080860D01*
X81553005Y-77173969D01*
X81398169Y-77238105D01*
X81233797Y-77270800D01*
X81066203Y-77270800D01*
X80901831Y-77238105D01*
X80746995Y-77173969D01*
X80607646Y-77080860D01*
X80489140Y-76962354D01*
X80396031Y-76823005D01*
X80331895Y-76668169D01*
X80299200Y-76503797D01*
X80299200Y-76336203D01*
X80331895Y-76171831D01*
X80396031Y-76016995D01*
X80489140Y-75877646D01*
X80607646Y-75759140D01*
X80746995Y-75666031D01*
X80901831Y-75601895D01*
X81066203Y-75569200D01*
X81233797Y-75569200D01*
X81398169Y-75601895D01*
G37*
G36*
X96638169Y-75601895D02*
G01*
X96793005Y-75666031D01*
X96932354Y-75759140D01*
X97050860Y-75877646D01*
X97143969Y-76016995D01*
X97208105Y-76171831D01*
X97240800Y-76336203D01*
X97240800Y-76503797D01*
X97208105Y-76668169D01*
X97143969Y-76823005D01*
X97050860Y-76962354D01*
X96932354Y-77080860D01*
X96793005Y-77173969D01*
X96638169Y-77238105D01*
X96473797Y-77270800D01*
X96306203Y-77270800D01*
X96141831Y-77238105D01*
X95986995Y-77173969D01*
X95847646Y-77080860D01*
X95729140Y-76962354D01*
X95636031Y-76823005D01*
X95571895Y-76668169D01*
X95539200Y-76503797D01*
X95539200Y-76336203D01*
X95571895Y-76171831D01*
X95636031Y-76016995D01*
X95729140Y-75877646D01*
X95847646Y-75759140D01*
X95986995Y-75666031D01*
X96141831Y-75601895D01*
X96306203Y-75569200D01*
X96473797Y-75569200D01*
X96638169Y-75601895D01*
G37*
G36*
X180966169Y-74365895D02*
G01*
X181121005Y-74430031D01*
X181260354Y-74523140D01*
X181378860Y-74641646D01*
X181471969Y-74780995D01*
X181536105Y-74935831D01*
X181568800Y-75100203D01*
X181568800Y-75267797D01*
X181536105Y-75432169D01*
X181471969Y-75587005D01*
X181378860Y-75726354D01*
X181260354Y-75844860D01*
X181121005Y-75937969D01*
X180966169Y-76002105D01*
X180801797Y-76034800D01*
X180634203Y-76034800D01*
X180469831Y-76002105D01*
X180314995Y-75937969D01*
X180175646Y-75844860D01*
X180057140Y-75726354D01*
X179964031Y-75587005D01*
X179899895Y-75432169D01*
X179867200Y-75267797D01*
X179867200Y-75100203D01*
X179899895Y-74935831D01*
X179964031Y-74780995D01*
X180057140Y-74641646D01*
X180175646Y-74523140D01*
X180314995Y-74430031D01*
X180469831Y-74365895D01*
X180634203Y-74333200D01*
X180801797Y-74333200D01*
X180966169Y-74365895D01*
G37*
G36*
X191126169Y-74365895D02*
G01*
X191281005Y-74430031D01*
X191420354Y-74523140D01*
X191538860Y-74641646D01*
X191631969Y-74780995D01*
X191696105Y-74935831D01*
X191728800Y-75100203D01*
X191728800Y-75267797D01*
X191696105Y-75432169D01*
X191631969Y-75587005D01*
X191538860Y-75726354D01*
X191420354Y-75844860D01*
X191281005Y-75937969D01*
X191126169Y-76002105D01*
X190961797Y-76034800D01*
X190794203Y-76034800D01*
X190629831Y-76002105D01*
X190474995Y-75937969D01*
X190335646Y-75844860D01*
X190217140Y-75726354D01*
X190124031Y-75587005D01*
X190059895Y-75432169D01*
X190027200Y-75267797D01*
X190027200Y-75100203D01*
X190059895Y-74935831D01*
X190124031Y-74780995D01*
X190217140Y-74641646D01*
X190335646Y-74523140D01*
X190474995Y-74430031D01*
X190629831Y-74365895D01*
X190794203Y-74333200D01*
X190961797Y-74333200D01*
X191126169Y-74365895D01*
G37*
G36*
X96638169Y-73061895D02*
G01*
X96793005Y-73126031D01*
X96932354Y-73219140D01*
X97050860Y-73337646D01*
X97143969Y-73476995D01*
X97208105Y-73631831D01*
X97240800Y-73796203D01*
X97240800Y-73963797D01*
X97208105Y-74128169D01*
X97143969Y-74283005D01*
X97050860Y-74422354D01*
X96932354Y-74540860D01*
X96793005Y-74633969D01*
X96638169Y-74698105D01*
X96473797Y-74730800D01*
X96306203Y-74730800D01*
X96141831Y-74698105D01*
X95986995Y-74633969D01*
X95847646Y-74540860D01*
X95729140Y-74422354D01*
X95636031Y-74283005D01*
X95571895Y-74128169D01*
X95539200Y-73963797D01*
X95539200Y-73796203D01*
X95571895Y-73631831D01*
X95636031Y-73476995D01*
X95729140Y-73337646D01*
X95847646Y-73219140D01*
X95986995Y-73126031D01*
X96141831Y-73061895D01*
X96306203Y-73029200D01*
X96473797Y-73029200D01*
X96638169Y-73061895D01*
G37*
G36*
X81398169Y-73061895D02*
G01*
X81553005Y-73126031D01*
X81692354Y-73219140D01*
X81810860Y-73337646D01*
X81903969Y-73476995D01*
X81968105Y-73631831D01*
X82000800Y-73796203D01*
X82000800Y-73963797D01*
X81968105Y-74128169D01*
X81903969Y-74283005D01*
X81810860Y-74422354D01*
X81692354Y-74540860D01*
X81553005Y-74633969D01*
X81398169Y-74698105D01*
X81233797Y-74730800D01*
X81066203Y-74730800D01*
X80901831Y-74698105D01*
X80746995Y-74633969D01*
X80607646Y-74540860D01*
X80489140Y-74422354D01*
X80396031Y-74283005D01*
X80331895Y-74128169D01*
X80299200Y-73963797D01*
X80299200Y-73796203D01*
X80331895Y-73631831D01*
X80396031Y-73476995D01*
X80489140Y-73337646D01*
X80607646Y-73219140D01*
X80746995Y-73126031D01*
X80901831Y-73061895D01*
X81066203Y-73029200D01*
X81233797Y-73029200D01*
X81398169Y-73061895D01*
G37*
G36*
X70368196Y-70018011D02*
G01*
X70741418Y-70172605D01*
X71077309Y-70397040D01*
X71362960Y-70682691D01*
X71587395Y-71018582D01*
X71741989Y-71391804D01*
X71820800Y-71788014D01*
X71820800Y-72191986D01*
X71741989Y-72588196D01*
X71587395Y-72961418D01*
X71362960Y-73297309D01*
X71077309Y-73582960D01*
X70741418Y-73807395D01*
X70368196Y-73961989D01*
X69971986Y-74040800D01*
X69568014Y-74040800D01*
X69171804Y-73961989D01*
X68798582Y-73807395D01*
X68462691Y-73582960D01*
X68177040Y-73297309D01*
X67952605Y-72961418D01*
X67798011Y-72588196D01*
X67719200Y-72191986D01*
X67719200Y-71788014D01*
X67798011Y-71391804D01*
X67952605Y-71018582D01*
X68177040Y-70682691D01*
X68462691Y-70397040D01*
X68798582Y-70172605D01*
X69171804Y-70018011D01*
X69568014Y-69939200D01*
X69971986Y-69939200D01*
X70368196Y-70018011D01*
G37*
G36*
X96638169Y-70521895D02*
G01*
X96793005Y-70586031D01*
X96932354Y-70679140D01*
X97050860Y-70797646D01*
X97143969Y-70936995D01*
X97208105Y-71091831D01*
X97240800Y-71256203D01*
X97240800Y-71423797D01*
X97208105Y-71588169D01*
X97143969Y-71743005D01*
X97050860Y-71882354D01*
X96932354Y-72000860D01*
X96793005Y-72093969D01*
X96638169Y-72158105D01*
X96473797Y-72190800D01*
X96306203Y-72190800D01*
X96141831Y-72158105D01*
X95986995Y-72093969D01*
X95847646Y-72000860D01*
X95729140Y-71882354D01*
X95636031Y-71743005D01*
X95571895Y-71588169D01*
X95539200Y-71423797D01*
X95539200Y-71256203D01*
X95571895Y-71091831D01*
X95636031Y-70936995D01*
X95729140Y-70797646D01*
X95847646Y-70679140D01*
X95986995Y-70586031D01*
X96141831Y-70521895D01*
X96306203Y-70489200D01*
X96473797Y-70489200D01*
X96638169Y-70521895D01*
G37*
G36*
X81398169Y-70521895D02*
G01*
X81553005Y-70586031D01*
X81692354Y-70679140D01*
X81810860Y-70797646D01*
X81903969Y-70936995D01*
X81968105Y-71091831D01*
X82000800Y-71256203D01*
X82000800Y-71423797D01*
X81968105Y-71588169D01*
X81903969Y-71743005D01*
X81810860Y-71882354D01*
X81692354Y-72000860D01*
X81553005Y-72093969D01*
X81398169Y-72158105D01*
X81233797Y-72190800D01*
X81066203Y-72190800D01*
X80901831Y-72158105D01*
X80746995Y-72093969D01*
X80607646Y-72000860D01*
X80489140Y-71882354D01*
X80396031Y-71743005D01*
X80331895Y-71588169D01*
X80299200Y-71423797D01*
X80299200Y-71256203D01*
X80331895Y-71091831D01*
X80396031Y-70936995D01*
X80489140Y-70797646D01*
X80607646Y-70679140D01*
X80746995Y-70586031D01*
X80901831Y-70521895D01*
X81066203Y-70489200D01*
X81233797Y-70489200D01*
X81398169Y-70521895D01*
G37*
G36*
X96638169Y-67981895D02*
G01*
X96793005Y-68046031D01*
X96932354Y-68139140D01*
X97050860Y-68257646D01*
X97143969Y-68396995D01*
X97208105Y-68551831D01*
X97240800Y-68716203D01*
X97240800Y-68883797D01*
X97208105Y-69048169D01*
X97143969Y-69203005D01*
X97050860Y-69342354D01*
X96932354Y-69460860D01*
X96793005Y-69553969D01*
X96638169Y-69618105D01*
X96473797Y-69650800D01*
X96306203Y-69650800D01*
X96141831Y-69618105D01*
X95986995Y-69553969D01*
X95847646Y-69460860D01*
X95729140Y-69342354D01*
X95636031Y-69203005D01*
X95571895Y-69048169D01*
X95539200Y-68883797D01*
X95539200Y-68716203D01*
X95571895Y-68551831D01*
X95636031Y-68396995D01*
X95729140Y-68257646D01*
X95847646Y-68139140D01*
X95986995Y-68046031D01*
X96141831Y-67981895D01*
X96306203Y-67949200D01*
X96473797Y-67949200D01*
X96638169Y-67981895D01*
G37*
G36*
X81398169Y-67981895D02*
G01*
X81553005Y-68046031D01*
X81692354Y-68139140D01*
X81810860Y-68257646D01*
X81903969Y-68396995D01*
X81968105Y-68551831D01*
X82000800Y-68716203D01*
X82000800Y-68883797D01*
X81968105Y-69048169D01*
X81903969Y-69203005D01*
X81810860Y-69342354D01*
X81692354Y-69460860D01*
X81553005Y-69553969D01*
X81398169Y-69618105D01*
X81233797Y-69650800D01*
X81066203Y-69650800D01*
X80901831Y-69618105D01*
X80746995Y-69553969D01*
X80607646Y-69460860D01*
X80489140Y-69342354D01*
X80396031Y-69203005D01*
X80331895Y-69048169D01*
X80299200Y-68883797D01*
X80299200Y-68716203D01*
X80331895Y-68551831D01*
X80396031Y-68396995D01*
X80489140Y-68257646D01*
X80607646Y-68139140D01*
X80746995Y-68046031D01*
X80901831Y-67981895D01*
X81066203Y-67949200D01*
X81233797Y-67949200D01*
X81398169Y-67981895D01*
G37*
G36*
X132706169Y-67507895D02*
G01*
X132861005Y-67572031D01*
X133000354Y-67665140D01*
X133118860Y-67783646D01*
X133211969Y-67922995D01*
X133276105Y-68077831D01*
X133308800Y-68242203D01*
X133308800Y-68409797D01*
X133276105Y-68574169D01*
X133211969Y-68729005D01*
X133118860Y-68868354D01*
X133000354Y-68986860D01*
X132861005Y-69079969D01*
X132706169Y-69144105D01*
X132541797Y-69176800D01*
X132374203Y-69176800D01*
X132209831Y-69144105D01*
X132054995Y-69079969D01*
X131915646Y-68986860D01*
X131797140Y-68868354D01*
X131704031Y-68729005D01*
X131639895Y-68574169D01*
X131607200Y-68409797D01*
X131607200Y-68242203D01*
X131639895Y-68077831D01*
X131704031Y-67922995D01*
X131797140Y-67783646D01*
X131915646Y-67665140D01*
X132054995Y-67572031D01*
X132209831Y-67507895D01*
X132374203Y-67475200D01*
X132541797Y-67475200D01*
X132706169Y-67507895D01*
G37*
G36*
X130166169Y-67507895D02*
G01*
X130321005Y-67572031D01*
X130460354Y-67665140D01*
X130578860Y-67783646D01*
X130671969Y-67922995D01*
X130736105Y-68077831D01*
X130768800Y-68242203D01*
X130768800Y-68409797D01*
X130736105Y-68574169D01*
X130671969Y-68729005D01*
X130578860Y-68868354D01*
X130460354Y-68986860D01*
X130321005Y-69079969D01*
X130166169Y-69144105D01*
X130001797Y-69176800D01*
X129834203Y-69176800D01*
X129669831Y-69144105D01*
X129514995Y-69079969D01*
X129375646Y-68986860D01*
X129257140Y-68868354D01*
X129164031Y-68729005D01*
X129099895Y-68574169D01*
X129067200Y-68409797D01*
X129067200Y-68242203D01*
X129099895Y-68077831D01*
X129164031Y-67922995D01*
X129257140Y-67783646D01*
X129375646Y-67665140D01*
X129514995Y-67572031D01*
X129669831Y-67507895D01*
X129834203Y-67475200D01*
X130001797Y-67475200D01*
X130166169Y-67507895D01*
G37*
G36*
X127626169Y-67507895D02*
G01*
X127781005Y-67572031D01*
X127920354Y-67665140D01*
X128038860Y-67783646D01*
X128131969Y-67922995D01*
X128196105Y-68077831D01*
X128228800Y-68242203D01*
X128228800Y-68409797D01*
X128196105Y-68574169D01*
X128131969Y-68729005D01*
X128038860Y-68868354D01*
X127920354Y-68986860D01*
X127781005Y-69079969D01*
X127626169Y-69144105D01*
X127461797Y-69176800D01*
X127294203Y-69176800D01*
X127129831Y-69144105D01*
X126974995Y-69079969D01*
X126835646Y-68986860D01*
X126717140Y-68868354D01*
X126624031Y-68729005D01*
X126559895Y-68574169D01*
X126527200Y-68409797D01*
X126527200Y-68242203D01*
X126559895Y-68077831D01*
X126624031Y-67922995D01*
X126717140Y-67783646D01*
X126835646Y-67665140D01*
X126974995Y-67572031D01*
X127129831Y-67507895D01*
X127294203Y-67475200D01*
X127461797Y-67475200D01*
X127626169Y-67507895D01*
G37*
G36*
X125086169Y-67507895D02*
G01*
X125241005Y-67572031D01*
X125380354Y-67665140D01*
X125498860Y-67783646D01*
X125591969Y-67922995D01*
X125656105Y-68077831D01*
X125688800Y-68242203D01*
X125688800Y-68409797D01*
X125656105Y-68574169D01*
X125591969Y-68729005D01*
X125498860Y-68868354D01*
X125380354Y-68986860D01*
X125241005Y-69079969D01*
X125086169Y-69144105D01*
X124921797Y-69176800D01*
X124754203Y-69176800D01*
X124589831Y-69144105D01*
X124434995Y-69079969D01*
X124295646Y-68986860D01*
X124177140Y-68868354D01*
X124084031Y-68729005D01*
X124019895Y-68574169D01*
X123987200Y-68409797D01*
X123987200Y-68242203D01*
X124019895Y-68077831D01*
X124084031Y-67922995D01*
X124177140Y-67783646D01*
X124295646Y-67665140D01*
X124434995Y-67572031D01*
X124589831Y-67507895D01*
X124754203Y-67475200D01*
X124921797Y-67475200D01*
X125086169Y-67507895D01*
G37*
G36*
X122546169Y-67507895D02*
G01*
X122701005Y-67572031D01*
X122840354Y-67665140D01*
X122958860Y-67783646D01*
X123051969Y-67922995D01*
X123116105Y-68077831D01*
X123148800Y-68242203D01*
X123148800Y-68409797D01*
X123116105Y-68574169D01*
X123051969Y-68729005D01*
X122958860Y-68868354D01*
X122840354Y-68986860D01*
X122701005Y-69079969D01*
X122546169Y-69144105D01*
X122381797Y-69176800D01*
X122214203Y-69176800D01*
X122049831Y-69144105D01*
X121894995Y-69079969D01*
X121755646Y-68986860D01*
X121637140Y-68868354D01*
X121544031Y-68729005D01*
X121479895Y-68574169D01*
X121447200Y-68409797D01*
X121447200Y-68242203D01*
X121479895Y-68077831D01*
X121544031Y-67922995D01*
X121637140Y-67783646D01*
X121755646Y-67665140D01*
X121894995Y-67572031D01*
X122049831Y-67507895D01*
X122214203Y-67475200D01*
X122381797Y-67475200D01*
X122546169Y-67507895D01*
G37*
G36*
X120006169Y-67507895D02*
G01*
X120161005Y-67572031D01*
X120300354Y-67665140D01*
X120418860Y-67783646D01*
X120511969Y-67922995D01*
X120576105Y-68077831D01*
X120608800Y-68242203D01*
X120608800Y-68409797D01*
X120576105Y-68574169D01*
X120511969Y-68729005D01*
X120418860Y-68868354D01*
X120300354Y-68986860D01*
X120161005Y-69079969D01*
X120006169Y-69144105D01*
X119841797Y-69176800D01*
X119674203Y-69176800D01*
X119509831Y-69144105D01*
X119354995Y-69079969D01*
X119215646Y-68986860D01*
X119097140Y-68868354D01*
X119004031Y-68729005D01*
X118939895Y-68574169D01*
X118907200Y-68409797D01*
X118907200Y-68242203D01*
X118939895Y-68077831D01*
X119004031Y-67922995D01*
X119097140Y-67783646D01*
X119215646Y-67665140D01*
X119354995Y-67572031D01*
X119509831Y-67507895D01*
X119674203Y-67475200D01*
X119841797Y-67475200D01*
X120006169Y-67507895D01*
G37*
G36*
X117466169Y-67507895D02*
G01*
X117621005Y-67572031D01*
X117760354Y-67665140D01*
X117878860Y-67783646D01*
X117971969Y-67922995D01*
X118036105Y-68077831D01*
X118068800Y-68242203D01*
X118068800Y-68409797D01*
X118036105Y-68574169D01*
X117971969Y-68729005D01*
X117878860Y-68868354D01*
X117760354Y-68986860D01*
X117621005Y-69079969D01*
X117466169Y-69144105D01*
X117301797Y-69176800D01*
X117134203Y-69176800D01*
X116969831Y-69144105D01*
X116814995Y-69079969D01*
X116675646Y-68986860D01*
X116557140Y-68868354D01*
X116464031Y-68729005D01*
X116399895Y-68574169D01*
X116367200Y-68409797D01*
X116367200Y-68242203D01*
X116399895Y-68077831D01*
X116464031Y-67922995D01*
X116557140Y-67783646D01*
X116675646Y-67665140D01*
X116814995Y-67572031D01*
X116969831Y-67507895D01*
X117134203Y-67475200D01*
X117301797Y-67475200D01*
X117466169Y-67507895D01*
G37*
G36*
X114926169Y-67507895D02*
G01*
X115081005Y-67572031D01*
X115220354Y-67665140D01*
X115338860Y-67783646D01*
X115431969Y-67922995D01*
X115496105Y-68077831D01*
X115528800Y-68242203D01*
X115528800Y-68409797D01*
X115496105Y-68574169D01*
X115431969Y-68729005D01*
X115338860Y-68868354D01*
X115220354Y-68986860D01*
X115081005Y-69079969D01*
X114926169Y-69144105D01*
X114761797Y-69176800D01*
X114594203Y-69176800D01*
X114429831Y-69144105D01*
X114274995Y-69079969D01*
X114135646Y-68986860D01*
X114017140Y-68868354D01*
X113924031Y-68729005D01*
X113859895Y-68574169D01*
X113827200Y-68409797D01*
X113827200Y-68242203D01*
X113859895Y-68077831D01*
X113924031Y-67922995D01*
X114017140Y-67783646D01*
X114135646Y-67665140D01*
X114274995Y-67572031D01*
X114429831Y-67507895D01*
X114594203Y-67475200D01*
X114761797Y-67475200D01*
X114926169Y-67507895D01*
G37*
G36*
X112386169Y-67507895D02*
G01*
X112541005Y-67572031D01*
X112680354Y-67665140D01*
X112798860Y-67783646D01*
X112891969Y-67922995D01*
X112956105Y-68077831D01*
X112988800Y-68242203D01*
X112988800Y-68409797D01*
X112956105Y-68574169D01*
X112891969Y-68729005D01*
X112798860Y-68868354D01*
X112680354Y-68986860D01*
X112541005Y-69079969D01*
X112386169Y-69144105D01*
X112221797Y-69176800D01*
X112054203Y-69176800D01*
X111889831Y-69144105D01*
X111734995Y-69079969D01*
X111595646Y-68986860D01*
X111477140Y-68868354D01*
X111384031Y-68729005D01*
X111319895Y-68574169D01*
X111287200Y-68409797D01*
X111287200Y-68242203D01*
X111319895Y-68077831D01*
X111384031Y-67922995D01*
X111477140Y-67783646D01*
X111595646Y-67665140D01*
X111734995Y-67572031D01*
X111889831Y-67507895D01*
X112054203Y-67475200D01*
X112221797Y-67475200D01*
X112386169Y-67507895D01*
G37*
G36*
X110448800Y-69176800D02*
G01*
X108747200Y-69176800D01*
X108747200Y-67475200D01*
X110448800Y-67475200D01*
X110448800Y-69176800D01*
G37*
G36*
X135246169Y-67507895D02*
G01*
X135401005Y-67572031D01*
X135540354Y-67665140D01*
X135658860Y-67783646D01*
X135751969Y-67922995D01*
X135816105Y-68077831D01*
X135848800Y-68242203D01*
X135848800Y-68409797D01*
X135816105Y-68574169D01*
X135751969Y-68729005D01*
X135658860Y-68868354D01*
X135540354Y-68986860D01*
X135401005Y-69079969D01*
X135246169Y-69144105D01*
X135081797Y-69176800D01*
X134914203Y-69176800D01*
X134749831Y-69144105D01*
X134594995Y-69079969D01*
X134455646Y-68986860D01*
X134337140Y-68868354D01*
X134244031Y-68729005D01*
X134179895Y-68574169D01*
X134147200Y-68409797D01*
X134147200Y-68242203D01*
X134179895Y-68077831D01*
X134244031Y-67922995D01*
X134337140Y-67783646D01*
X134455646Y-67665140D01*
X134594995Y-67572031D01*
X134749831Y-67507895D01*
X134914203Y-67475200D01*
X135081797Y-67475200D01*
X135246169Y-67507895D01*
G37*
G36*
X137786169Y-67507895D02*
G01*
X137941005Y-67572031D01*
X138080354Y-67665140D01*
X138198860Y-67783646D01*
X138291969Y-67922995D01*
X138356105Y-68077831D01*
X138388800Y-68242203D01*
X138388800Y-68409797D01*
X138356105Y-68574169D01*
X138291969Y-68729005D01*
X138198860Y-68868354D01*
X138080354Y-68986860D01*
X137941005Y-69079969D01*
X137786169Y-69144105D01*
X137621797Y-69176800D01*
X137454203Y-69176800D01*
X137289831Y-69144105D01*
X137134995Y-69079969D01*
X136995646Y-68986860D01*
X136877140Y-68868354D01*
X136784031Y-68729005D01*
X136719895Y-68574169D01*
X136687200Y-68409797D01*
X136687200Y-68242203D01*
X136719895Y-68077831D01*
X136784031Y-67922995D01*
X136877140Y-67783646D01*
X136995646Y-67665140D01*
X137134995Y-67572031D01*
X137289831Y-67507895D01*
X137454203Y-67475200D01*
X137621797Y-67475200D01*
X137786169Y-67507895D01*
G37*
G36*
X140326169Y-67507895D02*
G01*
X140481005Y-67572031D01*
X140620354Y-67665140D01*
X140738860Y-67783646D01*
X140831969Y-67922995D01*
X140896105Y-68077831D01*
X140928800Y-68242203D01*
X140928800Y-68409797D01*
X140896105Y-68574169D01*
X140831969Y-68729005D01*
X140738860Y-68868354D01*
X140620354Y-68986860D01*
X140481005Y-69079969D01*
X140326169Y-69144105D01*
X140161797Y-69176800D01*
X139994203Y-69176800D01*
X139829831Y-69144105D01*
X139674995Y-69079969D01*
X139535646Y-68986860D01*
X139417140Y-68868354D01*
X139324031Y-68729005D01*
X139259895Y-68574169D01*
X139227200Y-68409797D01*
X139227200Y-68242203D01*
X139259895Y-68077831D01*
X139324031Y-67922995D01*
X139417140Y-67783646D01*
X139535646Y-67665140D01*
X139674995Y-67572031D01*
X139829831Y-67507895D01*
X139994203Y-67475200D01*
X140161797Y-67475200D01*
X140326169Y-67507895D01*
G37*
G36*
X142866169Y-67507895D02*
G01*
X143021005Y-67572031D01*
X143160354Y-67665140D01*
X143278860Y-67783646D01*
X143371969Y-67922995D01*
X143436105Y-68077831D01*
X143468800Y-68242203D01*
X143468800Y-68409797D01*
X143436105Y-68574169D01*
X143371969Y-68729005D01*
X143278860Y-68868354D01*
X143160354Y-68986860D01*
X143021005Y-69079969D01*
X142866169Y-69144105D01*
X142701797Y-69176800D01*
X142534203Y-69176800D01*
X142369831Y-69144105D01*
X142214995Y-69079969D01*
X142075646Y-68986860D01*
X141957140Y-68868354D01*
X141864031Y-68729005D01*
X141799895Y-68574169D01*
X141767200Y-68409797D01*
X141767200Y-68242203D01*
X141799895Y-68077831D01*
X141864031Y-67922995D01*
X141957140Y-67783646D01*
X142075646Y-67665140D01*
X142214995Y-67572031D01*
X142369831Y-67507895D01*
X142534203Y-67475200D01*
X142701797Y-67475200D01*
X142866169Y-67507895D01*
G37*
G36*
X200270169Y-67507895D02*
G01*
X200425005Y-67572031D01*
X200564354Y-67665140D01*
X200682860Y-67783646D01*
X200775969Y-67922995D01*
X200840105Y-68077831D01*
X200872800Y-68242203D01*
X200872800Y-68409797D01*
X200840105Y-68574169D01*
X200775969Y-68729005D01*
X200682860Y-68868354D01*
X200564354Y-68986860D01*
X200425005Y-69079969D01*
X200270169Y-69144105D01*
X200105797Y-69176800D01*
X199938203Y-69176800D01*
X199773831Y-69144105D01*
X199618995Y-69079969D01*
X199479646Y-68986860D01*
X199361140Y-68868354D01*
X199268031Y-68729005D01*
X199203895Y-68574169D01*
X199171200Y-68409797D01*
X199171200Y-68242203D01*
X199203895Y-68077831D01*
X199268031Y-67922995D01*
X199361140Y-67783646D01*
X199479646Y-67665140D01*
X199618995Y-67572031D01*
X199773831Y-67507895D01*
X199938203Y-67475200D01*
X200105797Y-67475200D01*
X200270169Y-67507895D01*
G37*
G36*
X197730169Y-67507895D02*
G01*
X197885005Y-67572031D01*
X198024354Y-67665140D01*
X198142860Y-67783646D01*
X198235969Y-67922995D01*
X198300105Y-68077831D01*
X198332800Y-68242203D01*
X198332800Y-68409797D01*
X198300105Y-68574169D01*
X198235969Y-68729005D01*
X198142860Y-68868354D01*
X198024354Y-68986860D01*
X197885005Y-69079969D01*
X197730169Y-69144105D01*
X197565797Y-69176800D01*
X197398203Y-69176800D01*
X197233831Y-69144105D01*
X197078995Y-69079969D01*
X196939646Y-68986860D01*
X196821140Y-68868354D01*
X196728031Y-68729005D01*
X196663895Y-68574169D01*
X196631200Y-68409797D01*
X196631200Y-68242203D01*
X196663895Y-68077831D01*
X196728031Y-67922995D01*
X196821140Y-67783646D01*
X196939646Y-67665140D01*
X197078995Y-67572031D01*
X197233831Y-67507895D01*
X197398203Y-67475200D01*
X197565797Y-67475200D01*
X197730169Y-67507895D01*
G37*
G36*
X195190169Y-67507895D02*
G01*
X195345005Y-67572031D01*
X195484354Y-67665140D01*
X195602860Y-67783646D01*
X195695969Y-67922995D01*
X195760105Y-68077831D01*
X195792800Y-68242203D01*
X195792800Y-68409797D01*
X195760105Y-68574169D01*
X195695969Y-68729005D01*
X195602860Y-68868354D01*
X195484354Y-68986860D01*
X195345005Y-69079969D01*
X195190169Y-69144105D01*
X195025797Y-69176800D01*
X194858203Y-69176800D01*
X194693831Y-69144105D01*
X194538995Y-69079969D01*
X194399646Y-68986860D01*
X194281140Y-68868354D01*
X194188031Y-68729005D01*
X194123895Y-68574169D01*
X194091200Y-68409797D01*
X194091200Y-68242203D01*
X194123895Y-68077831D01*
X194188031Y-67922995D01*
X194281140Y-67783646D01*
X194399646Y-67665140D01*
X194538995Y-67572031D01*
X194693831Y-67507895D01*
X194858203Y-67475200D01*
X195025797Y-67475200D01*
X195190169Y-67507895D01*
G37*
G36*
X192650169Y-67507895D02*
G01*
X192805005Y-67572031D01*
X192944354Y-67665140D01*
X193062860Y-67783646D01*
X193155969Y-67922995D01*
X193220105Y-68077831D01*
X193252800Y-68242203D01*
X193252800Y-68409797D01*
X193220105Y-68574169D01*
X193155969Y-68729005D01*
X193062860Y-68868354D01*
X192944354Y-68986860D01*
X192805005Y-69079969D01*
X192650169Y-69144105D01*
X192485797Y-69176800D01*
X192318203Y-69176800D01*
X192153831Y-69144105D01*
X191998995Y-69079969D01*
X191859646Y-68986860D01*
X191741140Y-68868354D01*
X191648031Y-68729005D01*
X191583895Y-68574169D01*
X191551200Y-68409797D01*
X191551200Y-68242203D01*
X191583895Y-68077831D01*
X191648031Y-67922995D01*
X191741140Y-67783646D01*
X191859646Y-67665140D01*
X191998995Y-67572031D01*
X192153831Y-67507895D01*
X192318203Y-67475200D01*
X192485797Y-67475200D01*
X192650169Y-67507895D01*
G37*
G36*
X190110169Y-67507895D02*
G01*
X190265005Y-67572031D01*
X190404354Y-67665140D01*
X190522860Y-67783646D01*
X190615969Y-67922995D01*
X190680105Y-68077831D01*
X190712800Y-68242203D01*
X190712800Y-68409797D01*
X190680105Y-68574169D01*
X190615969Y-68729005D01*
X190522860Y-68868354D01*
X190404354Y-68986860D01*
X190265005Y-69079969D01*
X190110169Y-69144105D01*
X189945797Y-69176800D01*
X189778203Y-69176800D01*
X189613831Y-69144105D01*
X189458995Y-69079969D01*
X189319646Y-68986860D01*
X189201140Y-68868354D01*
X189108031Y-68729005D01*
X189043895Y-68574169D01*
X189011200Y-68409797D01*
X189011200Y-68242203D01*
X189043895Y-68077831D01*
X189108031Y-67922995D01*
X189201140Y-67783646D01*
X189319646Y-67665140D01*
X189458995Y-67572031D01*
X189613831Y-67507895D01*
X189778203Y-67475200D01*
X189945797Y-67475200D01*
X190110169Y-67507895D01*
G37*
G36*
X187570169Y-67507895D02*
G01*
X187725005Y-67572031D01*
X187864354Y-67665140D01*
X187982860Y-67783646D01*
X188075969Y-67922995D01*
X188140105Y-68077831D01*
X188172800Y-68242203D01*
X188172800Y-68409797D01*
X188140105Y-68574169D01*
X188075969Y-68729005D01*
X187982860Y-68868354D01*
X187864354Y-68986860D01*
X187725005Y-69079969D01*
X187570169Y-69144105D01*
X187405797Y-69176800D01*
X187238203Y-69176800D01*
X187073831Y-69144105D01*
X186918995Y-69079969D01*
X186779646Y-68986860D01*
X186661140Y-68868354D01*
X186568031Y-68729005D01*
X186503895Y-68574169D01*
X186471200Y-68409797D01*
X186471200Y-68242203D01*
X186503895Y-68077831D01*
X186568031Y-67922995D01*
X186661140Y-67783646D01*
X186779646Y-67665140D01*
X186918995Y-67572031D01*
X187073831Y-67507895D01*
X187238203Y-67475200D01*
X187405797Y-67475200D01*
X187570169Y-67507895D01*
G37*
G36*
X185030169Y-67507895D02*
G01*
X185185005Y-67572031D01*
X185324354Y-67665140D01*
X185442860Y-67783646D01*
X185535969Y-67922995D01*
X185600105Y-68077831D01*
X185632800Y-68242203D01*
X185632800Y-68409797D01*
X185600105Y-68574169D01*
X185535969Y-68729005D01*
X185442860Y-68868354D01*
X185324354Y-68986860D01*
X185185005Y-69079969D01*
X185030169Y-69144105D01*
X184865797Y-69176800D01*
X184698203Y-69176800D01*
X184533831Y-69144105D01*
X184378995Y-69079969D01*
X184239646Y-68986860D01*
X184121140Y-68868354D01*
X184028031Y-68729005D01*
X183963895Y-68574169D01*
X183931200Y-68409797D01*
X183931200Y-68242203D01*
X183963895Y-68077831D01*
X184028031Y-67922995D01*
X184121140Y-67783646D01*
X184239646Y-67665140D01*
X184378995Y-67572031D01*
X184533831Y-67507895D01*
X184698203Y-67475200D01*
X184865797Y-67475200D01*
X185030169Y-67507895D01*
G37*
G36*
X182490169Y-67507895D02*
G01*
X182645005Y-67572031D01*
X182784354Y-67665140D01*
X182902860Y-67783646D01*
X182995969Y-67922995D01*
X183060105Y-68077831D01*
X183092800Y-68242203D01*
X183092800Y-68409797D01*
X183060105Y-68574169D01*
X182995969Y-68729005D01*
X182902860Y-68868354D01*
X182784354Y-68986860D01*
X182645005Y-69079969D01*
X182490169Y-69144105D01*
X182325797Y-69176800D01*
X182158203Y-69176800D01*
X181993831Y-69144105D01*
X181838995Y-69079969D01*
X181699646Y-68986860D01*
X181581140Y-68868354D01*
X181488031Y-68729005D01*
X181423895Y-68574169D01*
X181391200Y-68409797D01*
X181391200Y-68242203D01*
X181423895Y-68077831D01*
X181488031Y-67922995D01*
X181581140Y-67783646D01*
X181699646Y-67665140D01*
X181838995Y-67572031D01*
X181993831Y-67507895D01*
X182158203Y-67475200D01*
X182325797Y-67475200D01*
X182490169Y-67507895D01*
G37*
G36*
X179950169Y-67507895D02*
G01*
X180105005Y-67572031D01*
X180244354Y-67665140D01*
X180362860Y-67783646D01*
X180455969Y-67922995D01*
X180520105Y-68077831D01*
X180552800Y-68242203D01*
X180552800Y-68409797D01*
X180520105Y-68574169D01*
X180455969Y-68729005D01*
X180362860Y-68868354D01*
X180244354Y-68986860D01*
X180105005Y-69079969D01*
X179950169Y-69144105D01*
X179785797Y-69176800D01*
X179618203Y-69176800D01*
X179453831Y-69144105D01*
X179298995Y-69079969D01*
X179159646Y-68986860D01*
X179041140Y-68868354D01*
X178948031Y-68729005D01*
X178883895Y-68574169D01*
X178851200Y-68409797D01*
X178851200Y-68242203D01*
X178883895Y-68077831D01*
X178948031Y-67922995D01*
X179041140Y-67783646D01*
X179159646Y-67665140D01*
X179298995Y-67572031D01*
X179453831Y-67507895D01*
X179618203Y-67475200D01*
X179785797Y-67475200D01*
X179950169Y-67507895D01*
G37*
G36*
X177410169Y-67507895D02*
G01*
X177565005Y-67572031D01*
X177704354Y-67665140D01*
X177822860Y-67783646D01*
X177915969Y-67922995D01*
X177980105Y-68077831D01*
X178012800Y-68242203D01*
X178012800Y-68409797D01*
X177980105Y-68574169D01*
X177915969Y-68729005D01*
X177822860Y-68868354D01*
X177704354Y-68986860D01*
X177565005Y-69079969D01*
X177410169Y-69144105D01*
X177245797Y-69176800D01*
X177078203Y-69176800D01*
X176913831Y-69144105D01*
X176758995Y-69079969D01*
X176619646Y-68986860D01*
X176501140Y-68868354D01*
X176408031Y-68729005D01*
X176343895Y-68574169D01*
X176311200Y-68409797D01*
X176311200Y-68242203D01*
X176343895Y-68077831D01*
X176408031Y-67922995D01*
X176501140Y-67783646D01*
X176619646Y-67665140D01*
X176758995Y-67572031D01*
X176913831Y-67507895D01*
X177078203Y-67475200D01*
X177245797Y-67475200D01*
X177410169Y-67507895D01*
G37*
G36*
X174870169Y-67507895D02*
G01*
X175025005Y-67572031D01*
X175164354Y-67665140D01*
X175282860Y-67783646D01*
X175375969Y-67922995D01*
X175440105Y-68077831D01*
X175472800Y-68242203D01*
X175472800Y-68409797D01*
X175440105Y-68574169D01*
X175375969Y-68729005D01*
X175282860Y-68868354D01*
X175164354Y-68986860D01*
X175025005Y-69079969D01*
X174870169Y-69144105D01*
X174705797Y-69176800D01*
X174538203Y-69176800D01*
X174373831Y-69144105D01*
X174218995Y-69079969D01*
X174079646Y-68986860D01*
X173961140Y-68868354D01*
X173868031Y-68729005D01*
X173803895Y-68574169D01*
X173771200Y-68409797D01*
X173771200Y-68242203D01*
X173803895Y-68077831D01*
X173868031Y-67922995D01*
X173961140Y-67783646D01*
X174079646Y-67665140D01*
X174218995Y-67572031D01*
X174373831Y-67507895D01*
X174538203Y-67475200D01*
X174705797Y-67475200D01*
X174870169Y-67507895D01*
G37*
G36*
X172330169Y-67507895D02*
G01*
X172485005Y-67572031D01*
X172624354Y-67665140D01*
X172742860Y-67783646D01*
X172835969Y-67922995D01*
X172900105Y-68077831D01*
X172932800Y-68242203D01*
X172932800Y-68409797D01*
X172900105Y-68574169D01*
X172835969Y-68729005D01*
X172742860Y-68868354D01*
X172624354Y-68986860D01*
X172485005Y-69079969D01*
X172330169Y-69144105D01*
X172165797Y-69176800D01*
X171998203Y-69176800D01*
X171833831Y-69144105D01*
X171678995Y-69079969D01*
X171539646Y-68986860D01*
X171421140Y-68868354D01*
X171328031Y-68729005D01*
X171263895Y-68574169D01*
X171231200Y-68409797D01*
X171231200Y-68242203D01*
X171263895Y-68077831D01*
X171328031Y-67922995D01*
X171421140Y-67783646D01*
X171539646Y-67665140D01*
X171678995Y-67572031D01*
X171833831Y-67507895D01*
X171998203Y-67475200D01*
X172165797Y-67475200D01*
X172330169Y-67507895D01*
G37*
G36*
X169790169Y-67507895D02*
G01*
X169945005Y-67572031D01*
X170084354Y-67665140D01*
X170202860Y-67783646D01*
X170295969Y-67922995D01*
X170360105Y-68077831D01*
X170392800Y-68242203D01*
X170392800Y-68409797D01*
X170360105Y-68574169D01*
X170295969Y-68729005D01*
X170202860Y-68868354D01*
X170084354Y-68986860D01*
X169945005Y-69079969D01*
X169790169Y-69144105D01*
X169625797Y-69176800D01*
X169458203Y-69176800D01*
X169293831Y-69144105D01*
X169138995Y-69079969D01*
X168999646Y-68986860D01*
X168881140Y-68868354D01*
X168788031Y-68729005D01*
X168723895Y-68574169D01*
X168691200Y-68409797D01*
X168691200Y-68242203D01*
X168723895Y-68077831D01*
X168788031Y-67922995D01*
X168881140Y-67783646D01*
X168999646Y-67665140D01*
X169138995Y-67572031D01*
X169293831Y-67507895D01*
X169458203Y-67475200D01*
X169625797Y-67475200D01*
X169790169Y-67507895D01*
G37*
G36*
X167852800Y-69176800D02*
G01*
X166151200Y-69176800D01*
X166151200Y-67475200D01*
X167852800Y-67475200D01*
X167852800Y-69176800D01*
G37*
G36*
X158614169Y-66491895D02*
G01*
X158769005Y-66556031D01*
X158908354Y-66649140D01*
X159026860Y-66767646D01*
X159119969Y-66906995D01*
X159184105Y-67061831D01*
X159216800Y-67226203D01*
X159216800Y-67393797D01*
X159184105Y-67558169D01*
X159119969Y-67713005D01*
X159026860Y-67852354D01*
X158908354Y-67970860D01*
X158769005Y-68063969D01*
X158614169Y-68128105D01*
X158449797Y-68160800D01*
X158282203Y-68160800D01*
X158117831Y-68128105D01*
X157962995Y-68063969D01*
X157823646Y-67970860D01*
X157705140Y-67852354D01*
X157612031Y-67713005D01*
X157547895Y-67558169D01*
X157515200Y-67393797D01*
X157515200Y-67226203D01*
X157547895Y-67061831D01*
X157612031Y-66906995D01*
X157705140Y-66767646D01*
X157823646Y-66649140D01*
X157962995Y-66556031D01*
X158117831Y-66491895D01*
X158282203Y-66459200D01*
X158449797Y-66459200D01*
X158614169Y-66491895D01*
G37*
G36*
X153280169Y-66491895D02*
G01*
X153435005Y-66556031D01*
X153574354Y-66649140D01*
X153692860Y-66767646D01*
X153785969Y-66906995D01*
X153850105Y-67061831D01*
X153882800Y-67226203D01*
X153882800Y-67393797D01*
X153850105Y-67558169D01*
X153785969Y-67713005D01*
X153692860Y-67852354D01*
X153574354Y-67970860D01*
X153435005Y-68063969D01*
X153280169Y-68128105D01*
X153115797Y-68160800D01*
X152948203Y-68160800D01*
X152783831Y-68128105D01*
X152628995Y-68063969D01*
X152489646Y-67970860D01*
X152371140Y-67852354D01*
X152278031Y-67713005D01*
X152213895Y-67558169D01*
X152181200Y-67393797D01*
X152181200Y-67226203D01*
X152213895Y-67061831D01*
X152278031Y-66906995D01*
X152371140Y-66767646D01*
X152489646Y-66649140D01*
X152628995Y-66556031D01*
X152783831Y-66491895D01*
X152948203Y-66459200D01*
X153115797Y-66459200D01*
X153280169Y-66491895D01*
G37*
G36*
X96638169Y-65441895D02*
G01*
X96793005Y-65506031D01*
X96932354Y-65599140D01*
X97050860Y-65717646D01*
X97143969Y-65856995D01*
X97208105Y-66011831D01*
X97240800Y-66176203D01*
X97240800Y-66343797D01*
X97208105Y-66508169D01*
X97143969Y-66663005D01*
X97050860Y-66802354D01*
X96932354Y-66920860D01*
X96793005Y-67013969D01*
X96638169Y-67078105D01*
X96473797Y-67110800D01*
X96306203Y-67110800D01*
X96141831Y-67078105D01*
X95986995Y-67013969D01*
X95847646Y-66920860D01*
X95729140Y-66802354D01*
X95636031Y-66663005D01*
X95571895Y-66508169D01*
X95539200Y-66343797D01*
X95539200Y-66176203D01*
X95571895Y-66011831D01*
X95636031Y-65856995D01*
X95729140Y-65717646D01*
X95847646Y-65599140D01*
X95986995Y-65506031D01*
X96141831Y-65441895D01*
X96306203Y-65409200D01*
X96473797Y-65409200D01*
X96638169Y-65441895D01*
G37*
G36*
X81398169Y-65441895D02*
G01*
X81553005Y-65506031D01*
X81692354Y-65599140D01*
X81810860Y-65717646D01*
X81903969Y-65856995D01*
X81968105Y-66011831D01*
X82000800Y-66176203D01*
X82000800Y-66343797D01*
X81968105Y-66508169D01*
X81903969Y-66663005D01*
X81810860Y-66802354D01*
X81692354Y-66920860D01*
X81553005Y-67013969D01*
X81398169Y-67078105D01*
X81233797Y-67110800D01*
X81066203Y-67110800D01*
X80901831Y-67078105D01*
X80746995Y-67013969D01*
X80607646Y-66920860D01*
X80489140Y-66802354D01*
X80396031Y-66663005D01*
X80331895Y-66508169D01*
X80299200Y-66343797D01*
X80299200Y-66176203D01*
X80331895Y-66011831D01*
X80396031Y-65856995D01*
X80489140Y-65717646D01*
X80607646Y-65599140D01*
X80746995Y-65506031D01*
X80901831Y-65441895D01*
X81066203Y-65409200D01*
X81233797Y-65409200D01*
X81398169Y-65441895D01*
G37*
G36*
X96638169Y-62901895D02*
G01*
X96793005Y-62966031D01*
X96932354Y-63059140D01*
X97050860Y-63177646D01*
X97143969Y-63316995D01*
X97208105Y-63471831D01*
X97240800Y-63636203D01*
X97240800Y-63803797D01*
X97208105Y-63968169D01*
X97143969Y-64123005D01*
X97050860Y-64262354D01*
X96932354Y-64380860D01*
X96793005Y-64473969D01*
X96638169Y-64538105D01*
X96473797Y-64570800D01*
X96306203Y-64570800D01*
X96141831Y-64538105D01*
X95986995Y-64473969D01*
X95847646Y-64380860D01*
X95729140Y-64262354D01*
X95636031Y-64123005D01*
X95571895Y-63968169D01*
X95539200Y-63803797D01*
X95539200Y-63636203D01*
X95571895Y-63471831D01*
X95636031Y-63316995D01*
X95729140Y-63177646D01*
X95847646Y-63059140D01*
X95986995Y-62966031D01*
X96141831Y-62901895D01*
X96306203Y-62869200D01*
X96473797Y-62869200D01*
X96638169Y-62901895D01*
G37*
G36*
X81398169Y-62901895D02*
G01*
X81553005Y-62966031D01*
X81692354Y-63059140D01*
X81810860Y-63177646D01*
X81903969Y-63316995D01*
X81968105Y-63471831D01*
X82000800Y-63636203D01*
X82000800Y-63803797D01*
X81968105Y-63968169D01*
X81903969Y-64123005D01*
X81810860Y-64262354D01*
X81692354Y-64380860D01*
X81553005Y-64473969D01*
X81398169Y-64538105D01*
X81233797Y-64570800D01*
X81066203Y-64570800D01*
X80901831Y-64538105D01*
X80746995Y-64473969D01*
X80607646Y-64380860D01*
X80489140Y-64262354D01*
X80396031Y-64123005D01*
X80331895Y-63968169D01*
X80299200Y-63803797D01*
X80299200Y-63636203D01*
X80331895Y-63471831D01*
X80396031Y-63316995D01*
X80489140Y-63177646D01*
X80607646Y-63059140D01*
X80746995Y-62966031D01*
X80901831Y-62901895D01*
X81066203Y-62869200D01*
X81233797Y-62869200D01*
X81398169Y-62901895D01*
G37*
G36*
X158614169Y-61491895D02*
G01*
X158769005Y-61556031D01*
X158908354Y-61649140D01*
X159026860Y-61767646D01*
X159119969Y-61906995D01*
X159184105Y-62061831D01*
X159216800Y-62226203D01*
X159216800Y-62393797D01*
X159184105Y-62558169D01*
X159119969Y-62713005D01*
X159026860Y-62852354D01*
X158908354Y-62970860D01*
X158769005Y-63063969D01*
X158614169Y-63128105D01*
X158449797Y-63160800D01*
X158282203Y-63160800D01*
X158117831Y-63128105D01*
X157962995Y-63063969D01*
X157823646Y-62970860D01*
X157705140Y-62852354D01*
X157612031Y-62713005D01*
X157547895Y-62558169D01*
X157515200Y-62393797D01*
X157515200Y-62226203D01*
X157547895Y-62061831D01*
X157612031Y-61906995D01*
X157705140Y-61767646D01*
X157823646Y-61649140D01*
X157962995Y-61556031D01*
X158117831Y-61491895D01*
X158282203Y-61459200D01*
X158449797Y-61459200D01*
X158614169Y-61491895D01*
G37*
G36*
X153280169Y-61491895D02*
G01*
X153435005Y-61556031D01*
X153574354Y-61649140D01*
X153692860Y-61767646D01*
X153785969Y-61906995D01*
X153850105Y-62061831D01*
X153882800Y-62226203D01*
X153882800Y-62393797D01*
X153850105Y-62558169D01*
X153785969Y-62713005D01*
X153692860Y-62852354D01*
X153574354Y-62970860D01*
X153435005Y-63063969D01*
X153280169Y-63128105D01*
X153115797Y-63160800D01*
X152948203Y-63160800D01*
X152783831Y-63128105D01*
X152628995Y-63063969D01*
X152489646Y-62970860D01*
X152371140Y-62852354D01*
X152278031Y-62713005D01*
X152213895Y-62558169D01*
X152181200Y-62393797D01*
X152181200Y-62226203D01*
X152213895Y-62061831D01*
X152278031Y-61906995D01*
X152371140Y-61767646D01*
X152489646Y-61649140D01*
X152628995Y-61556031D01*
X152783831Y-61491895D01*
X152948203Y-61459200D01*
X153115797Y-61459200D01*
X153280169Y-61491895D01*
G37*
G36*
X96638169Y-60361895D02*
G01*
X96793005Y-60426031D01*
X96932354Y-60519140D01*
X97050860Y-60637646D01*
X97143969Y-60776995D01*
X97208105Y-60931831D01*
X97240800Y-61096203D01*
X97240800Y-61263797D01*
X97208105Y-61428169D01*
X97143969Y-61583005D01*
X97050860Y-61722354D01*
X96932354Y-61840860D01*
X96793005Y-61933969D01*
X96638169Y-61998105D01*
X96473797Y-62030800D01*
X96306203Y-62030800D01*
X96141831Y-61998105D01*
X95986995Y-61933969D01*
X95847646Y-61840860D01*
X95729140Y-61722354D01*
X95636031Y-61583005D01*
X95571895Y-61428169D01*
X95539200Y-61263797D01*
X95539200Y-61096203D01*
X95571895Y-60931831D01*
X95636031Y-60776995D01*
X95729140Y-60637646D01*
X95847646Y-60519140D01*
X95986995Y-60426031D01*
X96141831Y-60361895D01*
X96306203Y-60329200D01*
X96473797Y-60329200D01*
X96638169Y-60361895D01*
G37*
G36*
X81398169Y-60361895D02*
G01*
X81553005Y-60426031D01*
X81692354Y-60519140D01*
X81810860Y-60637646D01*
X81903969Y-60776995D01*
X81968105Y-60931831D01*
X82000800Y-61096203D01*
X82000800Y-61263797D01*
X81968105Y-61428169D01*
X81903969Y-61583005D01*
X81810860Y-61722354D01*
X81692354Y-61840860D01*
X81553005Y-61933969D01*
X81398169Y-61998105D01*
X81233797Y-62030800D01*
X81066203Y-62030800D01*
X80901831Y-61998105D01*
X80746995Y-61933969D01*
X80607646Y-61840860D01*
X80489140Y-61722354D01*
X80396031Y-61583005D01*
X80331895Y-61428169D01*
X80299200Y-61263797D01*
X80299200Y-61096203D01*
X80331895Y-60931831D01*
X80396031Y-60776995D01*
X80489140Y-60637646D01*
X80607646Y-60519140D01*
X80746995Y-60426031D01*
X80901831Y-60361895D01*
X81066203Y-60329200D01*
X81233797Y-60329200D01*
X81398169Y-60361895D01*
G37*
G36*
X177410169Y-59887895D02*
G01*
X177565005Y-59952031D01*
X177704354Y-60045140D01*
X177822860Y-60163646D01*
X177915969Y-60302995D01*
X177980105Y-60457831D01*
X178012800Y-60622203D01*
X178012800Y-60789797D01*
X177980105Y-60954169D01*
X177915969Y-61109005D01*
X177822860Y-61248354D01*
X177704354Y-61366860D01*
X177565005Y-61459969D01*
X177410169Y-61524105D01*
X177245797Y-61556800D01*
X177078203Y-61556800D01*
X176913831Y-61524105D01*
X176758995Y-61459969D01*
X176619646Y-61366860D01*
X176501140Y-61248354D01*
X176408031Y-61109005D01*
X176343895Y-60954169D01*
X176311200Y-60789797D01*
X176311200Y-60622203D01*
X176343895Y-60457831D01*
X176408031Y-60302995D01*
X176501140Y-60163646D01*
X176619646Y-60045140D01*
X176758995Y-59952031D01*
X176913831Y-59887895D01*
X177078203Y-59855200D01*
X177245797Y-59855200D01*
X177410169Y-59887895D01*
G37*
G36*
X130166169Y-59887895D02*
G01*
X130321005Y-59952031D01*
X130460354Y-60045140D01*
X130578860Y-60163646D01*
X130671969Y-60302995D01*
X130736105Y-60457831D01*
X130768800Y-60622203D01*
X130768800Y-60789797D01*
X130736105Y-60954169D01*
X130671969Y-61109005D01*
X130578860Y-61248354D01*
X130460354Y-61366860D01*
X130321005Y-61459969D01*
X130166169Y-61524105D01*
X130001797Y-61556800D01*
X129834203Y-61556800D01*
X129669831Y-61524105D01*
X129514995Y-61459969D01*
X129375646Y-61366860D01*
X129257140Y-61248354D01*
X129164031Y-61109005D01*
X129099895Y-60954169D01*
X129067200Y-60789797D01*
X129067200Y-60622203D01*
X129099895Y-60457831D01*
X129164031Y-60302995D01*
X129257140Y-60163646D01*
X129375646Y-60045140D01*
X129514995Y-59952031D01*
X129669831Y-59887895D01*
X129834203Y-59855200D01*
X130001797Y-59855200D01*
X130166169Y-59887895D01*
G37*
G36*
X174870169Y-59887895D02*
G01*
X175025005Y-59952031D01*
X175164354Y-60045140D01*
X175282860Y-60163646D01*
X175375969Y-60302995D01*
X175440105Y-60457831D01*
X175472800Y-60622203D01*
X175472800Y-60789797D01*
X175440105Y-60954169D01*
X175375969Y-61109005D01*
X175282860Y-61248354D01*
X175164354Y-61366860D01*
X175025005Y-61459969D01*
X174870169Y-61524105D01*
X174705797Y-61556800D01*
X174538203Y-61556800D01*
X174373831Y-61524105D01*
X174218995Y-61459969D01*
X174079646Y-61366860D01*
X173961140Y-61248354D01*
X173868031Y-61109005D01*
X173803895Y-60954169D01*
X173771200Y-60789797D01*
X173771200Y-60622203D01*
X173803895Y-60457831D01*
X173868031Y-60302995D01*
X173961140Y-60163646D01*
X174079646Y-60045140D01*
X174218995Y-59952031D01*
X174373831Y-59887895D01*
X174538203Y-59855200D01*
X174705797Y-59855200D01*
X174870169Y-59887895D01*
G37*
G36*
X132706169Y-59887895D02*
G01*
X132861005Y-59952031D01*
X133000354Y-60045140D01*
X133118860Y-60163646D01*
X133211969Y-60302995D01*
X133276105Y-60457831D01*
X133308800Y-60622203D01*
X133308800Y-60789797D01*
X133276105Y-60954169D01*
X133211969Y-61109005D01*
X133118860Y-61248354D01*
X133000354Y-61366860D01*
X132861005Y-61459969D01*
X132706169Y-61524105D01*
X132541797Y-61556800D01*
X132374203Y-61556800D01*
X132209831Y-61524105D01*
X132054995Y-61459969D01*
X131915646Y-61366860D01*
X131797140Y-61248354D01*
X131704031Y-61109005D01*
X131639895Y-60954169D01*
X131607200Y-60789797D01*
X131607200Y-60622203D01*
X131639895Y-60457831D01*
X131704031Y-60302995D01*
X131797140Y-60163646D01*
X131915646Y-60045140D01*
X132054995Y-59952031D01*
X132209831Y-59887895D01*
X132374203Y-59855200D01*
X132541797Y-59855200D01*
X132706169Y-59887895D01*
G37*
G36*
X172330169Y-59887895D02*
G01*
X172485005Y-59952031D01*
X172624354Y-60045140D01*
X172742860Y-60163646D01*
X172835969Y-60302995D01*
X172900105Y-60457831D01*
X172932800Y-60622203D01*
X172932800Y-60789797D01*
X172900105Y-60954169D01*
X172835969Y-61109005D01*
X172742860Y-61248354D01*
X172624354Y-61366860D01*
X172485005Y-61459969D01*
X172330169Y-61524105D01*
X172165797Y-61556800D01*
X171998203Y-61556800D01*
X171833831Y-61524105D01*
X171678995Y-61459969D01*
X171539646Y-61366860D01*
X171421140Y-61248354D01*
X171328031Y-61109005D01*
X171263895Y-60954169D01*
X171231200Y-60789797D01*
X171231200Y-60622203D01*
X171263895Y-60457831D01*
X171328031Y-60302995D01*
X171421140Y-60163646D01*
X171539646Y-60045140D01*
X171678995Y-59952031D01*
X171833831Y-59887895D01*
X171998203Y-59855200D01*
X172165797Y-59855200D01*
X172330169Y-59887895D01*
G37*
G36*
X135246169Y-59887895D02*
G01*
X135401005Y-59952031D01*
X135540354Y-60045140D01*
X135658860Y-60163646D01*
X135751969Y-60302995D01*
X135816105Y-60457831D01*
X135848800Y-60622203D01*
X135848800Y-60789797D01*
X135816105Y-60954169D01*
X135751969Y-61109005D01*
X135658860Y-61248354D01*
X135540354Y-61366860D01*
X135401005Y-61459969D01*
X135246169Y-61524105D01*
X135081797Y-61556800D01*
X134914203Y-61556800D01*
X134749831Y-61524105D01*
X134594995Y-61459969D01*
X134455646Y-61366860D01*
X134337140Y-61248354D01*
X134244031Y-61109005D01*
X134179895Y-60954169D01*
X134147200Y-60789797D01*
X134147200Y-60622203D01*
X134179895Y-60457831D01*
X134244031Y-60302995D01*
X134337140Y-60163646D01*
X134455646Y-60045140D01*
X134594995Y-59952031D01*
X134749831Y-59887895D01*
X134914203Y-59855200D01*
X135081797Y-59855200D01*
X135246169Y-59887895D01*
G37*
G36*
X169790169Y-59887895D02*
G01*
X169945005Y-59952031D01*
X170084354Y-60045140D01*
X170202860Y-60163646D01*
X170295969Y-60302995D01*
X170360105Y-60457831D01*
X170392800Y-60622203D01*
X170392800Y-60789797D01*
X170360105Y-60954169D01*
X170295969Y-61109005D01*
X170202860Y-61248354D01*
X170084354Y-61366860D01*
X169945005Y-61459969D01*
X169790169Y-61524105D01*
X169625797Y-61556800D01*
X169458203Y-61556800D01*
X169293831Y-61524105D01*
X169138995Y-61459969D01*
X168999646Y-61366860D01*
X168881140Y-61248354D01*
X168788031Y-61109005D01*
X168723895Y-60954169D01*
X168691200Y-60789797D01*
X168691200Y-60622203D01*
X168723895Y-60457831D01*
X168788031Y-60302995D01*
X168881140Y-60163646D01*
X168999646Y-60045140D01*
X169138995Y-59952031D01*
X169293831Y-59887895D01*
X169458203Y-59855200D01*
X169625797Y-59855200D01*
X169790169Y-59887895D01*
G37*
G36*
X137786169Y-59887895D02*
G01*
X137941005Y-59952031D01*
X138080354Y-60045140D01*
X138198860Y-60163646D01*
X138291969Y-60302995D01*
X138356105Y-60457831D01*
X138388800Y-60622203D01*
X138388800Y-60789797D01*
X138356105Y-60954169D01*
X138291969Y-61109005D01*
X138198860Y-61248354D01*
X138080354Y-61366860D01*
X137941005Y-61459969D01*
X137786169Y-61524105D01*
X137621797Y-61556800D01*
X137454203Y-61556800D01*
X137289831Y-61524105D01*
X137134995Y-61459969D01*
X136995646Y-61366860D01*
X136877140Y-61248354D01*
X136784031Y-61109005D01*
X136719895Y-60954169D01*
X136687200Y-60789797D01*
X136687200Y-60622203D01*
X136719895Y-60457831D01*
X136784031Y-60302995D01*
X136877140Y-60163646D01*
X136995646Y-60045140D01*
X137134995Y-59952031D01*
X137289831Y-59887895D01*
X137454203Y-59855200D01*
X137621797Y-59855200D01*
X137786169Y-59887895D01*
G37*
G36*
X167250169Y-59887895D02*
G01*
X167405005Y-59952031D01*
X167544354Y-60045140D01*
X167662860Y-60163646D01*
X167755969Y-60302995D01*
X167820105Y-60457831D01*
X167852800Y-60622203D01*
X167852800Y-60789797D01*
X167820105Y-60954169D01*
X167755969Y-61109005D01*
X167662860Y-61248354D01*
X167544354Y-61366860D01*
X167405005Y-61459969D01*
X167250169Y-61524105D01*
X167085797Y-61556800D01*
X166918203Y-61556800D01*
X166753831Y-61524105D01*
X166598995Y-61459969D01*
X166459646Y-61366860D01*
X166341140Y-61248354D01*
X166248031Y-61109005D01*
X166183895Y-60954169D01*
X166151200Y-60789797D01*
X166151200Y-60622203D01*
X166183895Y-60457831D01*
X166248031Y-60302995D01*
X166341140Y-60163646D01*
X166459646Y-60045140D01*
X166598995Y-59952031D01*
X166753831Y-59887895D01*
X166918203Y-59855200D01*
X167085797Y-59855200D01*
X167250169Y-59887895D01*
G37*
G36*
X140326169Y-59887895D02*
G01*
X140481005Y-59952031D01*
X140620354Y-60045140D01*
X140738860Y-60163646D01*
X140831969Y-60302995D01*
X140896105Y-60457831D01*
X140928800Y-60622203D01*
X140928800Y-60789797D01*
X140896105Y-60954169D01*
X140831969Y-61109005D01*
X140738860Y-61248354D01*
X140620354Y-61366860D01*
X140481005Y-61459969D01*
X140326169Y-61524105D01*
X140161797Y-61556800D01*
X139994203Y-61556800D01*
X139829831Y-61524105D01*
X139674995Y-61459969D01*
X139535646Y-61366860D01*
X139417140Y-61248354D01*
X139324031Y-61109005D01*
X139259895Y-60954169D01*
X139227200Y-60789797D01*
X139227200Y-60622203D01*
X139259895Y-60457831D01*
X139324031Y-60302995D01*
X139417140Y-60163646D01*
X139535646Y-60045140D01*
X139674995Y-59952031D01*
X139829831Y-59887895D01*
X139994203Y-59855200D01*
X140161797Y-59855200D01*
X140326169Y-59887895D01*
G37*
G36*
X142866169Y-59887895D02*
G01*
X143021005Y-59952031D01*
X143160354Y-60045140D01*
X143278860Y-60163646D01*
X143371969Y-60302995D01*
X143436105Y-60457831D01*
X143468800Y-60622203D01*
X143468800Y-60789797D01*
X143436105Y-60954169D01*
X143371969Y-61109005D01*
X143278860Y-61248354D01*
X143160354Y-61366860D01*
X143021005Y-61459969D01*
X142866169Y-61524105D01*
X142701797Y-61556800D01*
X142534203Y-61556800D01*
X142369831Y-61524105D01*
X142214995Y-61459969D01*
X142075646Y-61366860D01*
X141957140Y-61248354D01*
X141864031Y-61109005D01*
X141799895Y-60954169D01*
X141767200Y-60789797D01*
X141767200Y-60622203D01*
X141799895Y-60457831D01*
X141864031Y-60302995D01*
X141957140Y-60163646D01*
X142075646Y-60045140D01*
X142214995Y-59952031D01*
X142369831Y-59887895D01*
X142534203Y-59855200D01*
X142701797Y-59855200D01*
X142866169Y-59887895D01*
G37*
G36*
X127626169Y-59887895D02*
G01*
X127781005Y-59952031D01*
X127920354Y-60045140D01*
X128038860Y-60163646D01*
X128131969Y-60302995D01*
X128196105Y-60457831D01*
X128228800Y-60622203D01*
X128228800Y-60789797D01*
X128196105Y-60954169D01*
X128131969Y-61109005D01*
X128038860Y-61248354D01*
X127920354Y-61366860D01*
X127781005Y-61459969D01*
X127626169Y-61524105D01*
X127461797Y-61556800D01*
X127294203Y-61556800D01*
X127129831Y-61524105D01*
X126974995Y-61459969D01*
X126835646Y-61366860D01*
X126717140Y-61248354D01*
X126624031Y-61109005D01*
X126559895Y-60954169D01*
X126527200Y-60789797D01*
X126527200Y-60622203D01*
X126559895Y-60457831D01*
X126624031Y-60302995D01*
X126717140Y-60163646D01*
X126835646Y-60045140D01*
X126974995Y-59952031D01*
X127129831Y-59887895D01*
X127294203Y-59855200D01*
X127461797Y-59855200D01*
X127626169Y-59887895D01*
G37*
G36*
X179950169Y-59887895D02*
G01*
X180105005Y-59952031D01*
X180244354Y-60045140D01*
X180362860Y-60163646D01*
X180455969Y-60302995D01*
X180520105Y-60457831D01*
X180552800Y-60622203D01*
X180552800Y-60789797D01*
X180520105Y-60954169D01*
X180455969Y-61109005D01*
X180362860Y-61248354D01*
X180244354Y-61366860D01*
X180105005Y-61459969D01*
X179950169Y-61524105D01*
X179785797Y-61556800D01*
X179618203Y-61556800D01*
X179453831Y-61524105D01*
X179298995Y-61459969D01*
X179159646Y-61366860D01*
X179041140Y-61248354D01*
X178948031Y-61109005D01*
X178883895Y-60954169D01*
X178851200Y-60789797D01*
X178851200Y-60622203D01*
X178883895Y-60457831D01*
X178948031Y-60302995D01*
X179041140Y-60163646D01*
X179159646Y-60045140D01*
X179298995Y-59952031D01*
X179453831Y-59887895D01*
X179618203Y-59855200D01*
X179785797Y-59855200D01*
X179950169Y-59887895D01*
G37*
G36*
X125086169Y-59887895D02*
G01*
X125241005Y-59952031D01*
X125380354Y-60045140D01*
X125498860Y-60163646D01*
X125591969Y-60302995D01*
X125656105Y-60457831D01*
X125688800Y-60622203D01*
X125688800Y-60789797D01*
X125656105Y-60954169D01*
X125591969Y-61109005D01*
X125498860Y-61248354D01*
X125380354Y-61366860D01*
X125241005Y-61459969D01*
X125086169Y-61524105D01*
X124921797Y-61556800D01*
X124754203Y-61556800D01*
X124589831Y-61524105D01*
X124434995Y-61459969D01*
X124295646Y-61366860D01*
X124177140Y-61248354D01*
X124084031Y-61109005D01*
X124019895Y-60954169D01*
X123987200Y-60789797D01*
X123987200Y-60622203D01*
X124019895Y-60457831D01*
X124084031Y-60302995D01*
X124177140Y-60163646D01*
X124295646Y-60045140D01*
X124434995Y-59952031D01*
X124589831Y-59887895D01*
X124754203Y-59855200D01*
X124921797Y-59855200D01*
X125086169Y-59887895D01*
G37*
G36*
X182490169Y-59887895D02*
G01*
X182645005Y-59952031D01*
X182784354Y-60045140D01*
X182902860Y-60163646D01*
X182995969Y-60302995D01*
X183060105Y-60457831D01*
X183092800Y-60622203D01*
X183092800Y-60789797D01*
X183060105Y-60954169D01*
X182995969Y-61109005D01*
X182902860Y-61248354D01*
X182784354Y-61366860D01*
X182645005Y-61459969D01*
X182490169Y-61524105D01*
X182325797Y-61556800D01*
X182158203Y-61556800D01*
X181993831Y-61524105D01*
X181838995Y-61459969D01*
X181699646Y-61366860D01*
X181581140Y-61248354D01*
X181488031Y-61109005D01*
X181423895Y-60954169D01*
X181391200Y-60789797D01*
X181391200Y-60622203D01*
X181423895Y-60457831D01*
X181488031Y-60302995D01*
X181581140Y-60163646D01*
X181699646Y-60045140D01*
X181838995Y-59952031D01*
X181993831Y-59887895D01*
X182158203Y-59855200D01*
X182325797Y-59855200D01*
X182490169Y-59887895D01*
G37*
G36*
X185030169Y-59887895D02*
G01*
X185185005Y-59952031D01*
X185324354Y-60045140D01*
X185442860Y-60163646D01*
X185535969Y-60302995D01*
X185600105Y-60457831D01*
X185632800Y-60622203D01*
X185632800Y-60789797D01*
X185600105Y-60954169D01*
X185535969Y-61109005D01*
X185442860Y-61248354D01*
X185324354Y-61366860D01*
X185185005Y-61459969D01*
X185030169Y-61524105D01*
X184865797Y-61556800D01*
X184698203Y-61556800D01*
X184533831Y-61524105D01*
X184378995Y-61459969D01*
X184239646Y-61366860D01*
X184121140Y-61248354D01*
X184028031Y-61109005D01*
X183963895Y-60954169D01*
X183931200Y-60789797D01*
X183931200Y-60622203D01*
X183963895Y-60457831D01*
X184028031Y-60302995D01*
X184121140Y-60163646D01*
X184239646Y-60045140D01*
X184378995Y-59952031D01*
X184533831Y-59887895D01*
X184698203Y-59855200D01*
X184865797Y-59855200D01*
X185030169Y-59887895D01*
G37*
G36*
X187570169Y-59887895D02*
G01*
X187725005Y-59952031D01*
X187864354Y-60045140D01*
X187982860Y-60163646D01*
X188075969Y-60302995D01*
X188140105Y-60457831D01*
X188172800Y-60622203D01*
X188172800Y-60789797D01*
X188140105Y-60954169D01*
X188075969Y-61109005D01*
X187982860Y-61248354D01*
X187864354Y-61366860D01*
X187725005Y-61459969D01*
X187570169Y-61524105D01*
X187405797Y-61556800D01*
X187238203Y-61556800D01*
X187073831Y-61524105D01*
X186918995Y-61459969D01*
X186779646Y-61366860D01*
X186661140Y-61248354D01*
X186568031Y-61109005D01*
X186503895Y-60954169D01*
X186471200Y-60789797D01*
X186471200Y-60622203D01*
X186503895Y-60457831D01*
X186568031Y-60302995D01*
X186661140Y-60163646D01*
X186779646Y-60045140D01*
X186918995Y-59952031D01*
X187073831Y-59887895D01*
X187238203Y-59855200D01*
X187405797Y-59855200D01*
X187570169Y-59887895D01*
G37*
G36*
X190110169Y-59887895D02*
G01*
X190265005Y-59952031D01*
X190404354Y-60045140D01*
X190522860Y-60163646D01*
X190615969Y-60302995D01*
X190680105Y-60457831D01*
X190712800Y-60622203D01*
X190712800Y-60789797D01*
X190680105Y-60954169D01*
X190615969Y-61109005D01*
X190522860Y-61248354D01*
X190404354Y-61366860D01*
X190265005Y-61459969D01*
X190110169Y-61524105D01*
X189945797Y-61556800D01*
X189778203Y-61556800D01*
X189613831Y-61524105D01*
X189458995Y-61459969D01*
X189319646Y-61366860D01*
X189201140Y-61248354D01*
X189108031Y-61109005D01*
X189043895Y-60954169D01*
X189011200Y-60789797D01*
X189011200Y-60622203D01*
X189043895Y-60457831D01*
X189108031Y-60302995D01*
X189201140Y-60163646D01*
X189319646Y-60045140D01*
X189458995Y-59952031D01*
X189613831Y-59887895D01*
X189778203Y-59855200D01*
X189945797Y-59855200D01*
X190110169Y-59887895D01*
G37*
G36*
X192650169Y-59887895D02*
G01*
X192805005Y-59952031D01*
X192944354Y-60045140D01*
X193062860Y-60163646D01*
X193155969Y-60302995D01*
X193220105Y-60457831D01*
X193252800Y-60622203D01*
X193252800Y-60789797D01*
X193220105Y-60954169D01*
X193155969Y-61109005D01*
X193062860Y-61248354D01*
X192944354Y-61366860D01*
X192805005Y-61459969D01*
X192650169Y-61524105D01*
X192485797Y-61556800D01*
X192318203Y-61556800D01*
X192153831Y-61524105D01*
X191998995Y-61459969D01*
X191859646Y-61366860D01*
X191741140Y-61248354D01*
X191648031Y-61109005D01*
X191583895Y-60954169D01*
X191551200Y-60789797D01*
X191551200Y-60622203D01*
X191583895Y-60457831D01*
X191648031Y-60302995D01*
X191741140Y-60163646D01*
X191859646Y-60045140D01*
X191998995Y-59952031D01*
X192153831Y-59887895D01*
X192318203Y-59855200D01*
X192485797Y-59855200D01*
X192650169Y-59887895D01*
G37*
G36*
X122546169Y-59887895D02*
G01*
X122701005Y-59952031D01*
X122840354Y-60045140D01*
X122958860Y-60163646D01*
X123051969Y-60302995D01*
X123116105Y-60457831D01*
X123148800Y-60622203D01*
X123148800Y-60789797D01*
X123116105Y-60954169D01*
X123051969Y-61109005D01*
X122958860Y-61248354D01*
X122840354Y-61366860D01*
X122701005Y-61459969D01*
X122546169Y-61524105D01*
X122381797Y-61556800D01*
X122214203Y-61556800D01*
X122049831Y-61524105D01*
X121894995Y-61459969D01*
X121755646Y-61366860D01*
X121637140Y-61248354D01*
X121544031Y-61109005D01*
X121479895Y-60954169D01*
X121447200Y-60789797D01*
X121447200Y-60622203D01*
X121479895Y-60457831D01*
X121544031Y-60302995D01*
X121637140Y-60163646D01*
X121755646Y-60045140D01*
X121894995Y-59952031D01*
X122049831Y-59887895D01*
X122214203Y-59855200D01*
X122381797Y-59855200D01*
X122546169Y-59887895D01*
G37*
G36*
X195190169Y-59887895D02*
G01*
X195345005Y-59952031D01*
X195484354Y-60045140D01*
X195602860Y-60163646D01*
X195695969Y-60302995D01*
X195760105Y-60457831D01*
X195792800Y-60622203D01*
X195792800Y-60789797D01*
X195760105Y-60954169D01*
X195695969Y-61109005D01*
X195602860Y-61248354D01*
X195484354Y-61366860D01*
X195345005Y-61459969D01*
X195190169Y-61524105D01*
X195025797Y-61556800D01*
X194858203Y-61556800D01*
X194693831Y-61524105D01*
X194538995Y-61459969D01*
X194399646Y-61366860D01*
X194281140Y-61248354D01*
X194188031Y-61109005D01*
X194123895Y-60954169D01*
X194091200Y-60789797D01*
X194091200Y-60622203D01*
X194123895Y-60457831D01*
X194188031Y-60302995D01*
X194281140Y-60163646D01*
X194399646Y-60045140D01*
X194538995Y-59952031D01*
X194693831Y-59887895D01*
X194858203Y-59855200D01*
X195025797Y-59855200D01*
X195190169Y-59887895D01*
G37*
G36*
X197730169Y-59887895D02*
G01*
X197885005Y-59952031D01*
X198024354Y-60045140D01*
X198142860Y-60163646D01*
X198235969Y-60302995D01*
X198300105Y-60457831D01*
X198332800Y-60622203D01*
X198332800Y-60789797D01*
X198300105Y-60954169D01*
X198235969Y-61109005D01*
X198142860Y-61248354D01*
X198024354Y-61366860D01*
X197885005Y-61459969D01*
X197730169Y-61524105D01*
X197565797Y-61556800D01*
X197398203Y-61556800D01*
X197233831Y-61524105D01*
X197078995Y-61459969D01*
X196939646Y-61366860D01*
X196821140Y-61248354D01*
X196728031Y-61109005D01*
X196663895Y-60954169D01*
X196631200Y-60789797D01*
X196631200Y-60622203D01*
X196663895Y-60457831D01*
X196728031Y-60302995D01*
X196821140Y-60163646D01*
X196939646Y-60045140D01*
X197078995Y-59952031D01*
X197233831Y-59887895D01*
X197398203Y-59855200D01*
X197565797Y-59855200D01*
X197730169Y-59887895D01*
G37*
G36*
X200270169Y-59887895D02*
G01*
X200425005Y-59952031D01*
X200564354Y-60045140D01*
X200682860Y-60163646D01*
X200775969Y-60302995D01*
X200840105Y-60457831D01*
X200872800Y-60622203D01*
X200872800Y-60789797D01*
X200840105Y-60954169D01*
X200775969Y-61109005D01*
X200682860Y-61248354D01*
X200564354Y-61366860D01*
X200425005Y-61459969D01*
X200270169Y-61524105D01*
X200105797Y-61556800D01*
X199938203Y-61556800D01*
X199773831Y-61524105D01*
X199618995Y-61459969D01*
X199479646Y-61366860D01*
X199361140Y-61248354D01*
X199268031Y-61109005D01*
X199203895Y-60954169D01*
X199171200Y-60789797D01*
X199171200Y-60622203D01*
X199203895Y-60457831D01*
X199268031Y-60302995D01*
X199361140Y-60163646D01*
X199479646Y-60045140D01*
X199618995Y-59952031D01*
X199773831Y-59887895D01*
X199938203Y-59855200D01*
X200105797Y-59855200D01*
X200270169Y-59887895D01*
G37*
G36*
X120006169Y-59887895D02*
G01*
X120161005Y-59952031D01*
X120300354Y-60045140D01*
X120418860Y-60163646D01*
X120511969Y-60302995D01*
X120576105Y-60457831D01*
X120608800Y-60622203D01*
X120608800Y-60789797D01*
X120576105Y-60954169D01*
X120511969Y-61109005D01*
X120418860Y-61248354D01*
X120300354Y-61366860D01*
X120161005Y-61459969D01*
X120006169Y-61524105D01*
X119841797Y-61556800D01*
X119674203Y-61556800D01*
X119509831Y-61524105D01*
X119354995Y-61459969D01*
X119215646Y-61366860D01*
X119097140Y-61248354D01*
X119004031Y-61109005D01*
X118939895Y-60954169D01*
X118907200Y-60789797D01*
X118907200Y-60622203D01*
X118939895Y-60457831D01*
X119004031Y-60302995D01*
X119097140Y-60163646D01*
X119215646Y-60045140D01*
X119354995Y-59952031D01*
X119509831Y-59887895D01*
X119674203Y-59855200D01*
X119841797Y-59855200D01*
X120006169Y-59887895D01*
G37*
G36*
X117466169Y-59887895D02*
G01*
X117621005Y-59952031D01*
X117760354Y-60045140D01*
X117878860Y-60163646D01*
X117971969Y-60302995D01*
X118036105Y-60457831D01*
X118068800Y-60622203D01*
X118068800Y-60789797D01*
X118036105Y-60954169D01*
X117971969Y-61109005D01*
X117878860Y-61248354D01*
X117760354Y-61366860D01*
X117621005Y-61459969D01*
X117466169Y-61524105D01*
X117301797Y-61556800D01*
X117134203Y-61556800D01*
X116969831Y-61524105D01*
X116814995Y-61459969D01*
X116675646Y-61366860D01*
X116557140Y-61248354D01*
X116464031Y-61109005D01*
X116399895Y-60954169D01*
X116367200Y-60789797D01*
X116367200Y-60622203D01*
X116399895Y-60457831D01*
X116464031Y-60302995D01*
X116557140Y-60163646D01*
X116675646Y-60045140D01*
X116814995Y-59952031D01*
X116969831Y-59887895D01*
X117134203Y-59855200D01*
X117301797Y-59855200D01*
X117466169Y-59887895D01*
G37*
G36*
X114926169Y-59887895D02*
G01*
X115081005Y-59952031D01*
X115220354Y-60045140D01*
X115338860Y-60163646D01*
X115431969Y-60302995D01*
X115496105Y-60457831D01*
X115528800Y-60622203D01*
X115528800Y-60789797D01*
X115496105Y-60954169D01*
X115431969Y-61109005D01*
X115338860Y-61248354D01*
X115220354Y-61366860D01*
X115081005Y-61459969D01*
X114926169Y-61524105D01*
X114761797Y-61556800D01*
X114594203Y-61556800D01*
X114429831Y-61524105D01*
X114274995Y-61459969D01*
X114135646Y-61366860D01*
X114017140Y-61248354D01*
X113924031Y-61109005D01*
X113859895Y-60954169D01*
X113827200Y-60789797D01*
X113827200Y-60622203D01*
X113859895Y-60457831D01*
X113924031Y-60302995D01*
X114017140Y-60163646D01*
X114135646Y-60045140D01*
X114274995Y-59952031D01*
X114429831Y-59887895D01*
X114594203Y-59855200D01*
X114761797Y-59855200D01*
X114926169Y-59887895D01*
G37*
G36*
X109846169Y-59887895D02*
G01*
X110001005Y-59952031D01*
X110140354Y-60045140D01*
X110258860Y-60163646D01*
X110351969Y-60302995D01*
X110416105Y-60457831D01*
X110448800Y-60622203D01*
X110448800Y-60789797D01*
X110416105Y-60954169D01*
X110351969Y-61109005D01*
X110258860Y-61248354D01*
X110140354Y-61366860D01*
X110001005Y-61459969D01*
X109846169Y-61524105D01*
X109681797Y-61556800D01*
X109514203Y-61556800D01*
X109349831Y-61524105D01*
X109194995Y-61459969D01*
X109055646Y-61366860D01*
X108937140Y-61248354D01*
X108844031Y-61109005D01*
X108779895Y-60954169D01*
X108747200Y-60789797D01*
X108747200Y-60622203D01*
X108779895Y-60457831D01*
X108844031Y-60302995D01*
X108937140Y-60163646D01*
X109055646Y-60045140D01*
X109194995Y-59952031D01*
X109349831Y-59887895D01*
X109514203Y-59855200D01*
X109681797Y-59855200D01*
X109846169Y-59887895D01*
G37*
G36*
X112386169Y-59887895D02*
G01*
X112541005Y-59952031D01*
X112680354Y-60045140D01*
X112798860Y-60163646D01*
X112891969Y-60302995D01*
X112956105Y-60457831D01*
X112988800Y-60622203D01*
X112988800Y-60789797D01*
X112956105Y-60954169D01*
X112891969Y-61109005D01*
X112798860Y-61248354D01*
X112680354Y-61366860D01*
X112541005Y-61459969D01*
X112386169Y-61524105D01*
X112221797Y-61556800D01*
X112054203Y-61556800D01*
X111889831Y-61524105D01*
X111734995Y-61459969D01*
X111595646Y-61366860D01*
X111477140Y-61248354D01*
X111384031Y-61109005D01*
X111319895Y-60954169D01*
X111287200Y-60789797D01*
X111287200Y-60622203D01*
X111319895Y-60457831D01*
X111384031Y-60302995D01*
X111477140Y-60163646D01*
X111595646Y-60045140D01*
X111734995Y-59952031D01*
X111889831Y-59887895D01*
X112054203Y-59855200D01*
X112221797Y-59855200D01*
X112386169Y-59887895D01*
G37*
G36*
X96638169Y-57821895D02*
G01*
X96793005Y-57886031D01*
X96932354Y-57979140D01*
X97050860Y-58097646D01*
X97143969Y-58236995D01*
X97208105Y-58391831D01*
X97240800Y-58556203D01*
X97240800Y-58723797D01*
X97208105Y-58888169D01*
X97143969Y-59043005D01*
X97050860Y-59182354D01*
X96932354Y-59300860D01*
X96793005Y-59393969D01*
X96638169Y-59458105D01*
X96473797Y-59490800D01*
X96306203Y-59490800D01*
X96141831Y-59458105D01*
X95986995Y-59393969D01*
X95847646Y-59300860D01*
X95729140Y-59182354D01*
X95636031Y-59043005D01*
X95571895Y-58888169D01*
X95539200Y-58723797D01*
X95539200Y-58556203D01*
X95571895Y-58391831D01*
X95636031Y-58236995D01*
X95729140Y-58097646D01*
X95847646Y-57979140D01*
X95986995Y-57886031D01*
X96141831Y-57821895D01*
X96306203Y-57789200D01*
X96473797Y-57789200D01*
X96638169Y-57821895D01*
G37*
G36*
X81398169Y-57821895D02*
G01*
X81553005Y-57886031D01*
X81692354Y-57979140D01*
X81810860Y-58097646D01*
X81903969Y-58236995D01*
X81968105Y-58391831D01*
X82000800Y-58556203D01*
X82000800Y-58723797D01*
X81968105Y-58888169D01*
X81903969Y-59043005D01*
X81810860Y-59182354D01*
X81692354Y-59300860D01*
X81553005Y-59393969D01*
X81398169Y-59458105D01*
X81233797Y-59490800D01*
X81066203Y-59490800D01*
X80901831Y-59458105D01*
X80746995Y-59393969D01*
X80607646Y-59300860D01*
X80489140Y-59182354D01*
X80396031Y-59043005D01*
X80331895Y-58888169D01*
X80299200Y-58723797D01*
X80299200Y-58556203D01*
X80331895Y-58391831D01*
X80396031Y-58236995D01*
X80489140Y-58097646D01*
X80607646Y-57979140D01*
X80746995Y-57886031D01*
X80901831Y-57821895D01*
X81066203Y-57789200D01*
X81233797Y-57789200D01*
X81398169Y-57821895D01*
G37*
G36*
X209032754Y-57553817D02*
G01*
X209196689Y-57621721D01*
X209344227Y-57720303D01*
X209469697Y-57845773D01*
X209568279Y-57993311D01*
X209636183Y-58157246D01*
X209670800Y-58331279D01*
X209670800Y-58508721D01*
X209636183Y-58682754D01*
X209568279Y-58846689D01*
X209469697Y-58994227D01*
X209344227Y-59119697D01*
X209196689Y-59218279D01*
X209032754Y-59286183D01*
X208858721Y-59320800D01*
X208681279Y-59320800D01*
X208507246Y-59286183D01*
X208343311Y-59218279D01*
X208195773Y-59119697D01*
X208070303Y-58994227D01*
X207971721Y-58846689D01*
X207903817Y-58682754D01*
X207869200Y-58508721D01*
X207869200Y-58331279D01*
X207903817Y-58157246D01*
X207971721Y-57993311D01*
X208070303Y-57845773D01*
X208195773Y-57720303D01*
X208343311Y-57621721D01*
X208507246Y-57553817D01*
X208681279Y-57519200D01*
X208858721Y-57519200D01*
X209032754Y-57553817D01*
G37*
G36*
X96638169Y-55281895D02*
G01*
X96793005Y-55346031D01*
X96932354Y-55439140D01*
X97050860Y-55557646D01*
X97143969Y-55696995D01*
X97208105Y-55851831D01*
X97240800Y-56016203D01*
X97240800Y-56183797D01*
X97208105Y-56348169D01*
X97143969Y-56503005D01*
X97050860Y-56642354D01*
X96932354Y-56760860D01*
X96793005Y-56853969D01*
X96638169Y-56918105D01*
X96473797Y-56950800D01*
X96306203Y-56950800D01*
X96141831Y-56918105D01*
X95986995Y-56853969D01*
X95847646Y-56760860D01*
X95729140Y-56642354D01*
X95636031Y-56503005D01*
X95571895Y-56348169D01*
X95539200Y-56183797D01*
X95539200Y-56016203D01*
X95571895Y-55851831D01*
X95636031Y-55696995D01*
X95729140Y-55557646D01*
X95847646Y-55439140D01*
X95986995Y-55346031D01*
X96141831Y-55281895D01*
X96306203Y-55249200D01*
X96473797Y-55249200D01*
X96638169Y-55281895D01*
G37*
G36*
X81398169Y-55281895D02*
G01*
X81553005Y-55346031D01*
X81692354Y-55439140D01*
X81810860Y-55557646D01*
X81903969Y-55696995D01*
X81968105Y-55851831D01*
X82000800Y-56016203D01*
X82000800Y-56183797D01*
X81968105Y-56348169D01*
X81903969Y-56503005D01*
X81810860Y-56642354D01*
X81692354Y-56760860D01*
X81553005Y-56853969D01*
X81398169Y-56918105D01*
X81233797Y-56950800D01*
X81066203Y-56950800D01*
X80901831Y-56918105D01*
X80746995Y-56853969D01*
X80607646Y-56760860D01*
X80489140Y-56642354D01*
X80396031Y-56503005D01*
X80331895Y-56348169D01*
X80299200Y-56183797D01*
X80299200Y-56016203D01*
X80331895Y-55851831D01*
X80396031Y-55696995D01*
X80489140Y-55557646D01*
X80607646Y-55439140D01*
X80746995Y-55346031D01*
X80901831Y-55281895D01*
X81066203Y-55249200D01*
X81233797Y-55249200D01*
X81398169Y-55281895D01*
G37*
G36*
X209032754Y-55013817D02*
G01*
X209196689Y-55081721D01*
X209344227Y-55180303D01*
X209469697Y-55305773D01*
X209568279Y-55453311D01*
X209636183Y-55617246D01*
X209670800Y-55791279D01*
X209670800Y-55968721D01*
X209636183Y-56142754D01*
X209568279Y-56306689D01*
X209469697Y-56454227D01*
X209344227Y-56579697D01*
X209196689Y-56678279D01*
X209032754Y-56746183D01*
X208858721Y-56780800D01*
X208681279Y-56780800D01*
X208507246Y-56746183D01*
X208343311Y-56678279D01*
X208195773Y-56579697D01*
X208070303Y-56454227D01*
X207971721Y-56306689D01*
X207903817Y-56142754D01*
X207869200Y-55968721D01*
X207869200Y-55791279D01*
X207903817Y-55617246D01*
X207971721Y-55453311D01*
X208070303Y-55305773D01*
X208195773Y-55180303D01*
X208343311Y-55081721D01*
X208507246Y-55013817D01*
X208681279Y-54979200D01*
X208858721Y-54979200D01*
X209032754Y-55013817D01*
G37*
G36*
X81398169Y-52741895D02*
G01*
X81553005Y-52806031D01*
X81692354Y-52899140D01*
X81810860Y-53017646D01*
X81903969Y-53156995D01*
X81968105Y-53311831D01*
X82000800Y-53476203D01*
X82000800Y-53643797D01*
X81968105Y-53808169D01*
X81903969Y-53963005D01*
X81810860Y-54102354D01*
X81692354Y-54220860D01*
X81553005Y-54313969D01*
X81398169Y-54378105D01*
X81233797Y-54410800D01*
X81066203Y-54410800D01*
X80901831Y-54378105D01*
X80746995Y-54313969D01*
X80607646Y-54220860D01*
X80489140Y-54102354D01*
X80396031Y-53963005D01*
X80331895Y-53808169D01*
X80299200Y-53643797D01*
X80299200Y-53476203D01*
X80331895Y-53311831D01*
X80396031Y-53156995D01*
X80489140Y-53017646D01*
X80607646Y-52899140D01*
X80746995Y-52806031D01*
X80901831Y-52741895D01*
X81066203Y-52709200D01*
X81233797Y-52709200D01*
X81398169Y-52741895D01*
G37*
G36*
X96638169Y-52741895D02*
G01*
X96793005Y-52806031D01*
X96932354Y-52899140D01*
X97050860Y-53017646D01*
X97143969Y-53156995D01*
X97208105Y-53311831D01*
X97240800Y-53476203D01*
X97240800Y-53643797D01*
X97208105Y-53808169D01*
X97143969Y-53963005D01*
X97050860Y-54102354D01*
X96932354Y-54220860D01*
X96793005Y-54313969D01*
X96638169Y-54378105D01*
X96473797Y-54410800D01*
X96306203Y-54410800D01*
X96141831Y-54378105D01*
X95986995Y-54313969D01*
X95847646Y-54220860D01*
X95729140Y-54102354D01*
X95636031Y-53963005D01*
X95571895Y-53808169D01*
X95539200Y-53643797D01*
X95539200Y-53476203D01*
X95571895Y-53311831D01*
X95636031Y-53156995D01*
X95729140Y-53017646D01*
X95847646Y-52899140D01*
X95986995Y-52806031D01*
X96141831Y-52741895D01*
X96306203Y-52709200D01*
X96473797Y-52709200D01*
X96638169Y-52741895D01*
G37*
G36*
X209032754Y-52473817D02*
G01*
X209196689Y-52541721D01*
X209344227Y-52640303D01*
X209469697Y-52765773D01*
X209568279Y-52913311D01*
X209636183Y-53077246D01*
X209670800Y-53251279D01*
X209670800Y-53428721D01*
X209636183Y-53602754D01*
X209568279Y-53766689D01*
X209469697Y-53914227D01*
X209344227Y-54039697D01*
X209196689Y-54138279D01*
X209032754Y-54206183D01*
X208858721Y-54240800D01*
X208681279Y-54240800D01*
X208507246Y-54206183D01*
X208343311Y-54138279D01*
X208195773Y-54039697D01*
X208070303Y-53914227D01*
X207971721Y-53766689D01*
X207903817Y-53602754D01*
X207869200Y-53428721D01*
X207869200Y-53251279D01*
X207903817Y-53077246D01*
X207971721Y-52913311D01*
X208070303Y-52765773D01*
X208195773Y-52640303D01*
X208343311Y-52541721D01*
X208507246Y-52473817D01*
X208681279Y-52439200D01*
X208858721Y-52439200D01*
X209032754Y-52473817D01*
G37*
G36*
X101063333Y-50212268D02*
G01*
X101295276Y-50258404D01*
X101622999Y-50394152D01*
X101917944Y-50591227D01*
X102168773Y-50842056D01*
X102365848Y-51137001D01*
X102501596Y-51464724D01*
X102570800Y-51812638D01*
X102570800Y-52167362D01*
X102501596Y-52515276D01*
X102365848Y-52842999D01*
X102168773Y-53137944D01*
X101917944Y-53388773D01*
X101622999Y-53585848D01*
X101295276Y-53721596D01*
X101068577Y-53766689D01*
X100947363Y-53790800D01*
X100592637Y-53790800D01*
X100471423Y-53766689D01*
X100244724Y-53721596D01*
X99917001Y-53585848D01*
X99622056Y-53388773D01*
X99371227Y-53137944D01*
X99174152Y-52842999D01*
X99038404Y-52515276D01*
X98969200Y-52167362D01*
X98969200Y-51812638D01*
X99038404Y-51464724D01*
X99174152Y-51137001D01*
X99371227Y-50842056D01*
X99622056Y-50591227D01*
X99917001Y-50394152D01*
X100244724Y-50258404D01*
X100476667Y-50212268D01*
X100592637Y-50189200D01*
X100947363Y-50189200D01*
X101063333Y-50212268D01*
G37*
G36*
X77063333Y-50212268D02*
G01*
X77295276Y-50258404D01*
X77622999Y-50394152D01*
X77917944Y-50591227D01*
X78168773Y-50842056D01*
X78365848Y-51137001D01*
X78501596Y-51464724D01*
X78570800Y-51812638D01*
X78570800Y-52167362D01*
X78501596Y-52515276D01*
X78365848Y-52842999D01*
X78168773Y-53137944D01*
X77917944Y-53388773D01*
X77622999Y-53585848D01*
X77295276Y-53721596D01*
X77068577Y-53766689D01*
X76947363Y-53790800D01*
X76592637Y-53790800D01*
X76471423Y-53766689D01*
X76244724Y-53721596D01*
X75917001Y-53585848D01*
X75622056Y-53388773D01*
X75371227Y-53137944D01*
X75174152Y-52842999D01*
X75038404Y-52515276D01*
X74969200Y-52167362D01*
X74969200Y-51812638D01*
X75038404Y-51464724D01*
X75174152Y-51137001D01*
X75371227Y-50842056D01*
X75622056Y-50591227D01*
X75917001Y-50394152D01*
X76244724Y-50258404D01*
X76476667Y-50212268D01*
X76592637Y-50189200D01*
X76947363Y-50189200D01*
X77063333Y-50212268D01*
G37*
G36*
X132212754Y-50187817D02*
G01*
X132376689Y-50255721D01*
X132524227Y-50354303D01*
X132649697Y-50479773D01*
X132748279Y-50627311D01*
X132816183Y-50791246D01*
X132850800Y-50965279D01*
X132850800Y-51142721D01*
X132816183Y-51316754D01*
X132748279Y-51480689D01*
X132649697Y-51628227D01*
X132524227Y-51753697D01*
X132376689Y-51852279D01*
X132212754Y-51920183D01*
X132038721Y-51954800D01*
X131861279Y-51954800D01*
X131687246Y-51920183D01*
X131523311Y-51852279D01*
X131375773Y-51753697D01*
X131250303Y-51628227D01*
X131151721Y-51480689D01*
X131083817Y-51316754D01*
X131049200Y-51142721D01*
X131049200Y-50965279D01*
X131083817Y-50791246D01*
X131151721Y-50627311D01*
X131250303Y-50479773D01*
X131375773Y-50354303D01*
X131523311Y-50255721D01*
X131687246Y-50187817D01*
X131861279Y-50153200D01*
X132038721Y-50153200D01*
X132212754Y-50187817D01*
G37*
G36*
X134752754Y-50187817D02*
G01*
X134916689Y-50255721D01*
X135064227Y-50354303D01*
X135189697Y-50479773D01*
X135288279Y-50627311D01*
X135356183Y-50791246D01*
X135390800Y-50965279D01*
X135390800Y-51142721D01*
X135356183Y-51316754D01*
X135288279Y-51480689D01*
X135189697Y-51628227D01*
X135064227Y-51753697D01*
X134916689Y-51852279D01*
X134752754Y-51920183D01*
X134578721Y-51954800D01*
X134401279Y-51954800D01*
X134227246Y-51920183D01*
X134063311Y-51852279D01*
X133915773Y-51753697D01*
X133790303Y-51628227D01*
X133691721Y-51480689D01*
X133623817Y-51316754D01*
X133589200Y-51142721D01*
X133589200Y-50965279D01*
X133623817Y-50791246D01*
X133691721Y-50627311D01*
X133790303Y-50479773D01*
X133915773Y-50354303D01*
X134063311Y-50255721D01*
X134227246Y-50187817D01*
X134401279Y-50153200D01*
X134578721Y-50153200D01*
X134752754Y-50187817D01*
G37*
G36*
X137292754Y-50187817D02*
G01*
X137456689Y-50255721D01*
X137604227Y-50354303D01*
X137729697Y-50479773D01*
X137828279Y-50627311D01*
X137896183Y-50791246D01*
X137930800Y-50965279D01*
X137930800Y-51142721D01*
X137896183Y-51316754D01*
X137828279Y-51480689D01*
X137729697Y-51628227D01*
X137604227Y-51753697D01*
X137456689Y-51852279D01*
X137292754Y-51920183D01*
X137118721Y-51954800D01*
X136941279Y-51954800D01*
X136767246Y-51920183D01*
X136603311Y-51852279D01*
X136455773Y-51753697D01*
X136330303Y-51628227D01*
X136231721Y-51480689D01*
X136163817Y-51316754D01*
X136129200Y-51142721D01*
X136129200Y-50965279D01*
X136163817Y-50791246D01*
X136231721Y-50627311D01*
X136330303Y-50479773D01*
X136455773Y-50354303D01*
X136603311Y-50255721D01*
X136767246Y-50187817D01*
X136941279Y-50153200D01*
X137118721Y-50153200D01*
X137292754Y-50187817D01*
G37*
G36*
X139832754Y-50187817D02*
G01*
X139996689Y-50255721D01*
X140144227Y-50354303D01*
X140269697Y-50479773D01*
X140368279Y-50627311D01*
X140436183Y-50791246D01*
X140470800Y-50965279D01*
X140470800Y-51142721D01*
X140436183Y-51316754D01*
X140368279Y-51480689D01*
X140269697Y-51628227D01*
X140144227Y-51753697D01*
X139996689Y-51852279D01*
X139832754Y-51920183D01*
X139658721Y-51954800D01*
X139481279Y-51954800D01*
X139307246Y-51920183D01*
X139143311Y-51852279D01*
X138995773Y-51753697D01*
X138870303Y-51628227D01*
X138771721Y-51480689D01*
X138703817Y-51316754D01*
X138669200Y-51142721D01*
X138669200Y-50965279D01*
X138703817Y-50791246D01*
X138771721Y-50627311D01*
X138870303Y-50479773D01*
X138995773Y-50354303D01*
X139143311Y-50255721D01*
X139307246Y-50187817D01*
X139481279Y-50153200D01*
X139658721Y-50153200D01*
X139832754Y-50187817D01*
G37*
G36*
X142372754Y-50187817D02*
G01*
X142536689Y-50255721D01*
X142684227Y-50354303D01*
X142809697Y-50479773D01*
X142908279Y-50627311D01*
X142976183Y-50791246D01*
X143010800Y-50965279D01*
X143010800Y-51142721D01*
X142976183Y-51316754D01*
X142908279Y-51480689D01*
X142809697Y-51628227D01*
X142684227Y-51753697D01*
X142536689Y-51852279D01*
X142372754Y-51920183D01*
X142198721Y-51954800D01*
X142021279Y-51954800D01*
X141847246Y-51920183D01*
X141683311Y-51852279D01*
X141535773Y-51753697D01*
X141410303Y-51628227D01*
X141311721Y-51480689D01*
X141243817Y-51316754D01*
X141209200Y-51142721D01*
X141209200Y-50965279D01*
X141243817Y-50791246D01*
X141311721Y-50627311D01*
X141410303Y-50479773D01*
X141535773Y-50354303D01*
X141683311Y-50255721D01*
X141847246Y-50187817D01*
X142021279Y-50153200D01*
X142198721Y-50153200D01*
X142372754Y-50187817D01*
G37*
G36*
X144912754Y-50187817D02*
G01*
X145076689Y-50255721D01*
X145224227Y-50354303D01*
X145349697Y-50479773D01*
X145448279Y-50627311D01*
X145516183Y-50791246D01*
X145550800Y-50965279D01*
X145550800Y-51142721D01*
X145516183Y-51316754D01*
X145448279Y-51480689D01*
X145349697Y-51628227D01*
X145224227Y-51753697D01*
X145076689Y-51852279D01*
X144912754Y-51920183D01*
X144738721Y-51954800D01*
X144561279Y-51954800D01*
X144387246Y-51920183D01*
X144223311Y-51852279D01*
X144075773Y-51753697D01*
X143950303Y-51628227D01*
X143851721Y-51480689D01*
X143783817Y-51316754D01*
X143749200Y-51142721D01*
X143749200Y-50965279D01*
X143783817Y-50791246D01*
X143851721Y-50627311D01*
X143950303Y-50479773D01*
X144075773Y-50354303D01*
X144223311Y-50255721D01*
X144387246Y-50187817D01*
X144561279Y-50153200D01*
X144738721Y-50153200D01*
X144912754Y-50187817D01*
G37*
G36*
X147452754Y-50187817D02*
G01*
X147616689Y-50255721D01*
X147764227Y-50354303D01*
X147889697Y-50479773D01*
X147988279Y-50627311D01*
X148056183Y-50791246D01*
X148090800Y-50965279D01*
X148090800Y-51142721D01*
X148056183Y-51316754D01*
X147988279Y-51480689D01*
X147889697Y-51628227D01*
X147764227Y-51753697D01*
X147616689Y-51852279D01*
X147452754Y-51920183D01*
X147278721Y-51954800D01*
X147101279Y-51954800D01*
X146927246Y-51920183D01*
X146763311Y-51852279D01*
X146615773Y-51753697D01*
X146490303Y-51628227D01*
X146391721Y-51480689D01*
X146323817Y-51316754D01*
X146289200Y-51142721D01*
X146289200Y-50965279D01*
X146323817Y-50791246D01*
X146391721Y-50627311D01*
X146490303Y-50479773D01*
X146615773Y-50354303D01*
X146763311Y-50255721D01*
X146927246Y-50187817D01*
X147101279Y-50153200D01*
X147278721Y-50153200D01*
X147452754Y-50187817D01*
G37*
G36*
X149992754Y-50187817D02*
G01*
X150156689Y-50255721D01*
X150304227Y-50354303D01*
X150429697Y-50479773D01*
X150528279Y-50627311D01*
X150596183Y-50791246D01*
X150630800Y-50965279D01*
X150630800Y-51142721D01*
X150596183Y-51316754D01*
X150528279Y-51480689D01*
X150429697Y-51628227D01*
X150304227Y-51753697D01*
X150156689Y-51852279D01*
X149992754Y-51920183D01*
X149818721Y-51954800D01*
X149641279Y-51954800D01*
X149467246Y-51920183D01*
X149303311Y-51852279D01*
X149155773Y-51753697D01*
X149030303Y-51628227D01*
X148931721Y-51480689D01*
X148863817Y-51316754D01*
X148829200Y-51142721D01*
X148829200Y-50965279D01*
X148863817Y-50791246D01*
X148931721Y-50627311D01*
X149030303Y-50479773D01*
X149155773Y-50354303D01*
X149303311Y-50255721D01*
X149467246Y-50187817D01*
X149641279Y-50153200D01*
X149818721Y-50153200D01*
X149992754Y-50187817D01*
G37*
G36*
X152532754Y-50187817D02*
G01*
X152696689Y-50255721D01*
X152844227Y-50354303D01*
X152969697Y-50479773D01*
X153068279Y-50627311D01*
X153136183Y-50791246D01*
X153170800Y-50965279D01*
X153170800Y-51142721D01*
X153136183Y-51316754D01*
X153068279Y-51480689D01*
X152969697Y-51628227D01*
X152844227Y-51753697D01*
X152696689Y-51852279D01*
X152532754Y-51920183D01*
X152358721Y-51954800D01*
X152181279Y-51954800D01*
X152007246Y-51920183D01*
X151843311Y-51852279D01*
X151695773Y-51753697D01*
X151570303Y-51628227D01*
X151471721Y-51480689D01*
X151403817Y-51316754D01*
X151369200Y-51142721D01*
X151369200Y-50965279D01*
X151403817Y-50791246D01*
X151471721Y-50627311D01*
X151570303Y-50479773D01*
X151695773Y-50354303D01*
X151843311Y-50255721D01*
X152007246Y-50187817D01*
X152181279Y-50153200D01*
X152358721Y-50153200D01*
X152532754Y-50187817D01*
G37*
G36*
X155072754Y-50187817D02*
G01*
X155236689Y-50255721D01*
X155384227Y-50354303D01*
X155509697Y-50479773D01*
X155608279Y-50627311D01*
X155676183Y-50791246D01*
X155710800Y-50965279D01*
X155710800Y-51142721D01*
X155676183Y-51316754D01*
X155608279Y-51480689D01*
X155509697Y-51628227D01*
X155384227Y-51753697D01*
X155236689Y-51852279D01*
X155072754Y-51920183D01*
X154898721Y-51954800D01*
X154721279Y-51954800D01*
X154547246Y-51920183D01*
X154383311Y-51852279D01*
X154235773Y-51753697D01*
X154110303Y-51628227D01*
X154011721Y-51480689D01*
X153943817Y-51316754D01*
X153909200Y-51142721D01*
X153909200Y-50965279D01*
X153943817Y-50791246D01*
X154011721Y-50627311D01*
X154110303Y-50479773D01*
X154235773Y-50354303D01*
X154383311Y-50255721D01*
X154547246Y-50187817D01*
X154721279Y-50153200D01*
X154898721Y-50153200D01*
X155072754Y-50187817D01*
G37*
G36*
X175014800Y-51954800D02*
G01*
X173213200Y-51954800D01*
X173213200Y-50153200D01*
X175014800Y-50153200D01*
X175014800Y-51954800D01*
G37*
G36*
X176916754Y-50187817D02*
G01*
X177080689Y-50255721D01*
X177228227Y-50354303D01*
X177353697Y-50479773D01*
X177452279Y-50627311D01*
X177520183Y-50791246D01*
X177554800Y-50965279D01*
X177554800Y-51142721D01*
X177520183Y-51316754D01*
X177452279Y-51480689D01*
X177353697Y-51628227D01*
X177228227Y-51753697D01*
X177080689Y-51852279D01*
X176916754Y-51920183D01*
X176742721Y-51954800D01*
X176565279Y-51954800D01*
X176391246Y-51920183D01*
X176227311Y-51852279D01*
X176079773Y-51753697D01*
X175954303Y-51628227D01*
X175855721Y-51480689D01*
X175787817Y-51316754D01*
X175753200Y-51142721D01*
X175753200Y-50965279D01*
X175787817Y-50791246D01*
X175855721Y-50627311D01*
X175954303Y-50479773D01*
X176079773Y-50354303D01*
X176227311Y-50255721D01*
X176391246Y-50187817D01*
X176565279Y-50153200D01*
X176742721Y-50153200D01*
X176916754Y-50187817D01*
G37*
G36*
X179456754Y-50187817D02*
G01*
X179620689Y-50255721D01*
X179768227Y-50354303D01*
X179893697Y-50479773D01*
X179992279Y-50627311D01*
X180060183Y-50791246D01*
X180094800Y-50965279D01*
X180094800Y-51142721D01*
X180060183Y-51316754D01*
X179992279Y-51480689D01*
X179893697Y-51628227D01*
X179768227Y-51753697D01*
X179620689Y-51852279D01*
X179456754Y-51920183D01*
X179282721Y-51954800D01*
X179105279Y-51954800D01*
X178931246Y-51920183D01*
X178767311Y-51852279D01*
X178619773Y-51753697D01*
X178494303Y-51628227D01*
X178395721Y-51480689D01*
X178327817Y-51316754D01*
X178293200Y-51142721D01*
X178293200Y-50965279D01*
X178327817Y-50791246D01*
X178395721Y-50627311D01*
X178494303Y-50479773D01*
X178619773Y-50354303D01*
X178767311Y-50255721D01*
X178931246Y-50187817D01*
X179105279Y-50153200D01*
X179282721Y-50153200D01*
X179456754Y-50187817D01*
G37*
G36*
X181996754Y-50187817D02*
G01*
X182160689Y-50255721D01*
X182308227Y-50354303D01*
X182433697Y-50479773D01*
X182532279Y-50627311D01*
X182600183Y-50791246D01*
X182634800Y-50965279D01*
X182634800Y-51142721D01*
X182600183Y-51316754D01*
X182532279Y-51480689D01*
X182433697Y-51628227D01*
X182308227Y-51753697D01*
X182160689Y-51852279D01*
X181996754Y-51920183D01*
X181822721Y-51954800D01*
X181645279Y-51954800D01*
X181471246Y-51920183D01*
X181307311Y-51852279D01*
X181159773Y-51753697D01*
X181034303Y-51628227D01*
X180935721Y-51480689D01*
X180867817Y-51316754D01*
X180833200Y-51142721D01*
X180833200Y-50965279D01*
X180867817Y-50791246D01*
X180935721Y-50627311D01*
X181034303Y-50479773D01*
X181159773Y-50354303D01*
X181307311Y-50255721D01*
X181471246Y-50187817D01*
X181645279Y-50153200D01*
X181822721Y-50153200D01*
X181996754Y-50187817D01*
G37*
G36*
X184536754Y-50187817D02*
G01*
X184700689Y-50255721D01*
X184848227Y-50354303D01*
X184973697Y-50479773D01*
X185072279Y-50627311D01*
X185140183Y-50791246D01*
X185174800Y-50965279D01*
X185174800Y-51142721D01*
X185140183Y-51316754D01*
X185072279Y-51480689D01*
X184973697Y-51628227D01*
X184848227Y-51753697D01*
X184700689Y-51852279D01*
X184536754Y-51920183D01*
X184362721Y-51954800D01*
X184185279Y-51954800D01*
X184011246Y-51920183D01*
X183847311Y-51852279D01*
X183699773Y-51753697D01*
X183574303Y-51628227D01*
X183475721Y-51480689D01*
X183407817Y-51316754D01*
X183373200Y-51142721D01*
X183373200Y-50965279D01*
X183407817Y-50791246D01*
X183475721Y-50627311D01*
X183574303Y-50479773D01*
X183699773Y-50354303D01*
X183847311Y-50255721D01*
X184011246Y-50187817D01*
X184185279Y-50153200D01*
X184362721Y-50153200D01*
X184536754Y-50187817D01*
G37*
G36*
X187076754Y-50187817D02*
G01*
X187240689Y-50255721D01*
X187388227Y-50354303D01*
X187513697Y-50479773D01*
X187612279Y-50627311D01*
X187680183Y-50791246D01*
X187714800Y-50965279D01*
X187714800Y-51142721D01*
X187680183Y-51316754D01*
X187612279Y-51480689D01*
X187513697Y-51628227D01*
X187388227Y-51753697D01*
X187240689Y-51852279D01*
X187076754Y-51920183D01*
X186902721Y-51954800D01*
X186725279Y-51954800D01*
X186551246Y-51920183D01*
X186387311Y-51852279D01*
X186239773Y-51753697D01*
X186114303Y-51628227D01*
X186015721Y-51480689D01*
X185947817Y-51316754D01*
X185913200Y-51142721D01*
X185913200Y-50965279D01*
X185947817Y-50791246D01*
X186015721Y-50627311D01*
X186114303Y-50479773D01*
X186239773Y-50354303D01*
X186387311Y-50255721D01*
X186551246Y-50187817D01*
X186725279Y-50153200D01*
X186902721Y-50153200D01*
X187076754Y-50187817D01*
G37*
G36*
X189616754Y-50187817D02*
G01*
X189780689Y-50255721D01*
X189928227Y-50354303D01*
X190053697Y-50479773D01*
X190152279Y-50627311D01*
X190220183Y-50791246D01*
X190254800Y-50965279D01*
X190254800Y-51142721D01*
X190220183Y-51316754D01*
X190152279Y-51480689D01*
X190053697Y-51628227D01*
X189928227Y-51753697D01*
X189780689Y-51852279D01*
X189616754Y-51920183D01*
X189442721Y-51954800D01*
X189265279Y-51954800D01*
X189091246Y-51920183D01*
X188927311Y-51852279D01*
X188779773Y-51753697D01*
X188654303Y-51628227D01*
X188555721Y-51480689D01*
X188487817Y-51316754D01*
X188453200Y-51142721D01*
X188453200Y-50965279D01*
X188487817Y-50791246D01*
X188555721Y-50627311D01*
X188654303Y-50479773D01*
X188779773Y-50354303D01*
X188927311Y-50255721D01*
X189091246Y-50187817D01*
X189265279Y-50153200D01*
X189442721Y-50153200D01*
X189616754Y-50187817D01*
G37*
G36*
X192156754Y-50187817D02*
G01*
X192320689Y-50255721D01*
X192468227Y-50354303D01*
X192593697Y-50479773D01*
X192692279Y-50627311D01*
X192760183Y-50791246D01*
X192794800Y-50965279D01*
X192794800Y-51142721D01*
X192760183Y-51316754D01*
X192692279Y-51480689D01*
X192593697Y-51628227D01*
X192468227Y-51753697D01*
X192320689Y-51852279D01*
X192156754Y-51920183D01*
X191982721Y-51954800D01*
X191805279Y-51954800D01*
X191631246Y-51920183D01*
X191467311Y-51852279D01*
X191319773Y-51753697D01*
X191194303Y-51628227D01*
X191095721Y-51480689D01*
X191027817Y-51316754D01*
X190993200Y-51142721D01*
X190993200Y-50965279D01*
X191027817Y-50791246D01*
X191095721Y-50627311D01*
X191194303Y-50479773D01*
X191319773Y-50354303D01*
X191467311Y-50255721D01*
X191631246Y-50187817D01*
X191805279Y-50153200D01*
X191982721Y-50153200D01*
X192156754Y-50187817D01*
G37*
G36*
X129672754Y-50187817D02*
G01*
X129836689Y-50255721D01*
X129984227Y-50354303D01*
X130109697Y-50479773D01*
X130208279Y-50627311D01*
X130276183Y-50791246D01*
X130310800Y-50965279D01*
X130310800Y-51142721D01*
X130276183Y-51316754D01*
X130208279Y-51480689D01*
X130109697Y-51628227D01*
X129984227Y-51753697D01*
X129836689Y-51852279D01*
X129672754Y-51920183D01*
X129498721Y-51954800D01*
X129321279Y-51954800D01*
X129147246Y-51920183D01*
X128983311Y-51852279D01*
X128835773Y-51753697D01*
X128710303Y-51628227D01*
X128611721Y-51480689D01*
X128543817Y-51316754D01*
X128509200Y-51142721D01*
X128509200Y-50965279D01*
X128543817Y-50791246D01*
X128611721Y-50627311D01*
X128710303Y-50479773D01*
X128835773Y-50354303D01*
X128983311Y-50255721D01*
X129147246Y-50187817D01*
X129321279Y-50153200D01*
X129498721Y-50153200D01*
X129672754Y-50187817D01*
G37*
G36*
X122052754Y-50187817D02*
G01*
X122216689Y-50255721D01*
X122364227Y-50354303D01*
X122489697Y-50479773D01*
X122588279Y-50627311D01*
X122656183Y-50791246D01*
X122690800Y-50965279D01*
X122690800Y-51142721D01*
X122656183Y-51316754D01*
X122588279Y-51480689D01*
X122489697Y-51628227D01*
X122364227Y-51753697D01*
X122216689Y-51852279D01*
X122052754Y-51920183D01*
X121878721Y-51954800D01*
X121701279Y-51954800D01*
X121527246Y-51920183D01*
X121363311Y-51852279D01*
X121215773Y-51753697D01*
X121090303Y-51628227D01*
X120991721Y-51480689D01*
X120923817Y-51316754D01*
X120889200Y-51142721D01*
X120889200Y-50965279D01*
X120923817Y-50791246D01*
X120991721Y-50627311D01*
X121090303Y-50479773D01*
X121215773Y-50354303D01*
X121363311Y-50255721D01*
X121527246Y-50187817D01*
X121701279Y-50153200D01*
X121878721Y-50153200D01*
X122052754Y-50187817D01*
G37*
G36*
X119512754Y-50187817D02*
G01*
X119676689Y-50255721D01*
X119824227Y-50354303D01*
X119949697Y-50479773D01*
X120048279Y-50627311D01*
X120116183Y-50791246D01*
X120150800Y-50965279D01*
X120150800Y-51142721D01*
X120116183Y-51316754D01*
X120048279Y-51480689D01*
X119949697Y-51628227D01*
X119824227Y-51753697D01*
X119676689Y-51852279D01*
X119512754Y-51920183D01*
X119338721Y-51954800D01*
X119161279Y-51954800D01*
X118987246Y-51920183D01*
X118823311Y-51852279D01*
X118675773Y-51753697D01*
X118550303Y-51628227D01*
X118451721Y-51480689D01*
X118383817Y-51316754D01*
X118349200Y-51142721D01*
X118349200Y-50965279D01*
X118383817Y-50791246D01*
X118451721Y-50627311D01*
X118550303Y-50479773D01*
X118675773Y-50354303D01*
X118823311Y-50255721D01*
X118987246Y-50187817D01*
X119161279Y-50153200D01*
X119338721Y-50153200D01*
X119512754Y-50187817D01*
G37*
G36*
X117610800Y-51954800D02*
G01*
X115809200Y-51954800D01*
X115809200Y-50153200D01*
X117610800Y-50153200D01*
X117610800Y-51954800D01*
G37*
G36*
X124592754Y-50187817D02*
G01*
X124756689Y-50255721D01*
X124904227Y-50354303D01*
X125029697Y-50479773D01*
X125128279Y-50627311D01*
X125196183Y-50791246D01*
X125230800Y-50965279D01*
X125230800Y-51142721D01*
X125196183Y-51316754D01*
X125128279Y-51480689D01*
X125029697Y-51628227D01*
X124904227Y-51753697D01*
X124756689Y-51852279D01*
X124592754Y-51920183D01*
X124418721Y-51954800D01*
X124241279Y-51954800D01*
X124067246Y-51920183D01*
X123903311Y-51852279D01*
X123755773Y-51753697D01*
X123630303Y-51628227D01*
X123531721Y-51480689D01*
X123463817Y-51316754D01*
X123429200Y-51142721D01*
X123429200Y-50965279D01*
X123463817Y-50791246D01*
X123531721Y-50627311D01*
X123630303Y-50479773D01*
X123755773Y-50354303D01*
X123903311Y-50255721D01*
X124067246Y-50187817D01*
X124241279Y-50153200D01*
X124418721Y-50153200D01*
X124592754Y-50187817D01*
G37*
G36*
X127132754Y-50187817D02*
G01*
X127296689Y-50255721D01*
X127444227Y-50354303D01*
X127569697Y-50479773D01*
X127668279Y-50627311D01*
X127736183Y-50791246D01*
X127770800Y-50965279D01*
X127770800Y-51142721D01*
X127736183Y-51316754D01*
X127668279Y-51480689D01*
X127569697Y-51628227D01*
X127444227Y-51753697D01*
X127296689Y-51852279D01*
X127132754Y-51920183D01*
X126958721Y-51954800D01*
X126781279Y-51954800D01*
X126607246Y-51920183D01*
X126443311Y-51852279D01*
X126295773Y-51753697D01*
X126170303Y-51628227D01*
X126071721Y-51480689D01*
X126003817Y-51316754D01*
X125969200Y-51142721D01*
X125969200Y-50965279D01*
X126003817Y-50791246D01*
X126071721Y-50627311D01*
X126170303Y-50479773D01*
X126295773Y-50354303D01*
X126443311Y-50255721D01*
X126607246Y-50187817D01*
X126781279Y-50153200D01*
X126958721Y-50153200D01*
X127132754Y-50187817D01*
G37*
G36*
X82000800Y-51870800D02*
G01*
X80299200Y-51870800D01*
X80299200Y-50169200D01*
X82000800Y-50169200D01*
X82000800Y-51870800D01*
G37*
G36*
X96638169Y-50201895D02*
G01*
X96793005Y-50266031D01*
X96932354Y-50359140D01*
X97050860Y-50477646D01*
X97143969Y-50616995D01*
X97208105Y-50771831D01*
X97240800Y-50936203D01*
X97240800Y-51103797D01*
X97208105Y-51268169D01*
X97143969Y-51423005D01*
X97050860Y-51562354D01*
X96932354Y-51680860D01*
X96793005Y-51773969D01*
X96638169Y-51838105D01*
X96473797Y-51870800D01*
X96306203Y-51870800D01*
X96141831Y-51838105D01*
X95986995Y-51773969D01*
X95847646Y-51680860D01*
X95729140Y-51562354D01*
X95636031Y-51423005D01*
X95571895Y-51268169D01*
X95539200Y-51103797D01*
X95539200Y-50936203D01*
X95571895Y-50771831D01*
X95636031Y-50616995D01*
X95729140Y-50477646D01*
X95847646Y-50359140D01*
X95986995Y-50266031D01*
X96141831Y-50201895D01*
X96306203Y-50169200D01*
X96473797Y-50169200D01*
X96638169Y-50201895D01*
G37*
G36*
X209670800Y-51700800D02*
G01*
X207869200Y-51700800D01*
X207869200Y-49899200D01*
X209670800Y-49899200D01*
X209670800Y-51700800D01*
G37*
M02*
